M48
; DRILL file {KiCad 8.0.6} date 2024-11-15T08:38:30-0500
; FORMAT={-:-/ absolute / inch / decimal}
; #@! TF.CreationDate,2024-11-15T08:38:30-05:00
; #@! TF.GenerationSoftware,Kicad,Pcbnew,8.0.6
; #@! TF.FileFunction,Plated,1,2,PTH
FMAT,2
INCH
; #@! TA.AperFunction,Plated,PTH,ViaDrill
T1C0.0118
; #@! TA.AperFunction,Plated,PTH,ComponentDrill
T2C0.0315
; #@! TA.AperFunction,Plated,PTH,ComponentDrill
T3C0.0340
; #@! TA.AperFunction,Plated,PTH,ComponentDrill
T4C0.0394
; #@! TA.AperFunction,Plated,PTH,ComponentDrill
T5C0.0394
%
G90
G05
T1
X1.5059Y-1.8602
X1.5059Y-2.8051
X1.5157Y-2.0866
X1.5256Y-4.4488
X1.5354Y-1.4961
X1.5354Y-1.6634
X1.5354Y-4.1142
X1.5551Y-4.3209
X1.7618Y-4.439
X1.8307Y-4.0059
X1.8406Y-3.6417
X1.8504Y-2.8051
X1.8701Y-4.5571
X1.9094Y-1.9882
X2.0177Y-4.3898
X2.0177Y-4.5768
X2.0276Y-4.0945
X2.1654Y-4.6654
X2.185Y-2.2146
X2.2047Y-4.6063
X2.2343Y-4.439
X2.2539Y-4.5571
X2.2736Y-4.3701
X2.2736Y-4.9114
X2.313Y-3.8287
X2.3228Y-2.9626
X2.3228Y-3.0413
X2.3228Y-3.4941
X2.3524Y-3.5433
X2.3524Y-3.6319
X2.3819Y-3.1201
X2.3917Y-1.9685
X2.4508Y-3.7106
X2.4567Y-3.563
X2.4606Y-4.2323
X2.4705Y-4.4882
X2.4705Y-4.5965
X2.4705Y-4.685
X2.4705Y-4.7933
X2.4705Y-5.0
X2.4705Y-5.0787
X2.4705Y-5.187
X2.4705Y-5.2953
X2.4705Y-5.3839
X2.4705Y-5.4921
X2.4803Y-3.1299
X2.4803Y-3.5039
X2.5295Y-3.0413
X2.5394Y-1.8012
X2.5689Y-4.1339
X2.574Y-3.2724
X2.5787Y-3.563
X2.5886Y-3.1398
X2.628Y-3.002
X2.7067Y-1.8898
X2.7067Y-3.8583
X2.7165Y-3.189
X2.7461Y-3.8091
X2.7854Y-3.7598
X2.7953Y-4.498
X2.7953Y-4.6949
X2.7953Y-5.0984
X2.8051Y-2.1752
X2.8051Y-3.5138
X2.815Y-4.9803
X2.8248Y-1.4173
X2.8346Y-2.9528
X2.8937Y-3.8484
X2.9528Y-3.6909
X2.9724Y-2.9921
X2.9921Y-2.3524
X3.0167Y-2.564
X3.061Y-4.0059
X3.0709Y-2.9921
X3.0709Y-3.6811
X3.0709Y-4.2913
X3.0709Y-4.8031
X3.0906Y-2.3524
X3.1594Y-1.7224
X3.1693Y-2.9921
X3.2185Y-3.6811
X3.2185Y-5.2953
X3.2677Y-2.3622
X3.2677Y-2.9921
X3.2874Y-1.1516
X3.3268Y-3.6811
X3.376Y-2.9921
X3.3957Y-1.1516
X3.4349Y-2.2637
X3.4449Y-4.7933
X3.4449Y-4.9016
X3.4646Y-4.3504
X3.4744Y-2.9921
X3.4843Y-1.7717
X3.5341Y-2.2645
X3.5531Y-2.4902
X3.563Y-3.0906
X3.5728Y-4.0551
X3.5827Y-1.7717
X3.5925Y-1.2795
X3.5925Y-3.6024
X3.6319Y-3.2087
X3.6334Y-2.2652
X3.6713Y-4.3406
X3.6811Y-1.7717
X3.6909Y-2.5492
X3.6909Y-3.2874
X3.7402Y-2.2638
X3.7697Y-3.2185
X3.7697Y-3.8484
X3.7894Y-1.7717
X3.7992Y-5.0984
X3.7992Y-5.187
X3.7992Y-5.2854
X3.8287Y-2.2638
X3.8386Y-5.3937
X3.8386Y-5.5217
X3.8681Y-3.2185
X3.878Y-5.0
X3.8878Y-2.9232
X3.8878Y-3.9173
X3.9359Y-2.2627
X3.9764Y-4.8917
X3.9862Y-1.7717
X3.9961Y-4.498
X3.9961Y-4.5965
X3.9961Y-4.6949
X4.0157Y-3.2579
X4.0256Y-2.2638
X4.0551Y-2.8937
X4.0846Y-1.7717
X4.1043Y-3.7106
X4.1252Y-2.2649
X4.1339Y-2.1949
X4.1831Y-1.7717
T2
X1.3465Y-4.06
X1.3465Y-4.16
X1.3465Y-4.26
X1.3465Y-4.36
X1.3465Y-4.46
X1.3465Y-4.56
X1.3465Y-4.66
X1.3622Y-2.7874
X1.3622Y-2.8874
X1.3622Y-2.9874
X1.3622Y-3.0874
X1.3622Y-3.1874
X1.3622Y-3.2874
X1.3622Y-3.3874
X1.378Y-1.4846
X1.378Y-1.5846
X1.378Y-1.6846
X1.378Y-1.7846
X1.378Y-1.8846
X1.378Y-1.9846
X1.378Y-2.0846
X1.6339Y-0.7677
X1.6465Y-4.06
X1.6465Y-4.16
X1.6465Y-4.26
X1.6465Y-4.36
X1.6465Y-4.46
X1.6465Y-4.56
X1.6465Y-4.66
X1.6622Y-2.7874
X1.6622Y-2.8874
X1.6622Y-2.9874
X1.6622Y-3.0874
X1.6622Y-3.1874
X1.6622Y-3.2874
X1.6622Y-3.3874
X1.678Y-1.4846
X1.678Y-1.5846
X1.678Y-1.6846
X1.678Y-1.7846
X1.678Y-1.8846
X1.678Y-1.9846
X1.678Y-2.0846
X1.8307Y-0.7677
X2.1161Y-1.4935
X2.1161Y-1.6935
X2.1654Y-0.777
X2.1654Y-0.977
X2.3433Y-4.0969
X2.3433Y-4.1969
X2.3433Y-4.2969
X2.3433Y-4.3969
X2.3433Y-4.4969
X2.3433Y-4.5969
X2.3433Y-4.6969
X2.3433Y-4.7969
X2.3433Y-4.8969
X2.3433Y-4.9969
X2.3433Y-5.0969
X2.3433Y-5.1969
X2.3433Y-5.2969
X2.3433Y-5.3969
X2.3433Y-5.4969
X2.3433Y-5.5969
X2.3622Y-3.7376
X2.3622Y-3.9376
X2.374Y-2.7858
X2.374Y-3.3858
X2.3764Y-1.4961
X2.3764Y-2.0961
X2.474Y-2.7858
X2.474Y-3.3858
X2.4764Y-1.4961
X2.4764Y-2.0961
X2.5197Y-1.0703
X2.5197Y-1.2703
X2.5224Y-0.7874
X2.574Y-2.7858
X2.574Y-3.3858
X2.5764Y-1.4961
X2.5764Y-2.0961
X2.674Y-2.7858
X2.674Y-3.3858
X2.6764Y-1.4961
X2.6764Y-2.0961
X2.7146Y-0.7874
X2.774Y-2.7858
X2.774Y-3.3858
X2.7764Y-1.4961
X2.7764Y-2.0961
X2.874Y-2.7858
X2.874Y-3.3858
X2.8764Y-1.4961
X2.8764Y-2.0961
X2.9433Y-4.0969
X2.9433Y-4.1969
X2.9433Y-4.2969
X2.9433Y-4.3969
X2.9433Y-4.4969
X2.9433Y-4.5969
X2.9433Y-4.6969
X2.9433Y-4.7969
X2.9433Y-4.8969
X2.9433Y-4.9969
X2.9433Y-5.0969
X2.9433Y-5.1969
X2.9433Y-5.2969
X2.9433Y-5.3969
X2.9433Y-5.4969
X2.9433Y-5.5969
X2.9724Y-1.0329
X2.9724Y-1.2329
X2.974Y-2.7858
X2.974Y-3.3858
X2.9764Y-1.4961
X2.9764Y-2.0961
X3.074Y-2.7858
X3.074Y-3.3858
X3.0764Y-1.4961
X3.0764Y-2.0961
X3.174Y-2.7858
X3.174Y-3.3858
X3.1764Y-1.4961
X3.1764Y-2.0961
X3.274Y-2.7858
X3.274Y-3.3858
X3.2764Y-1.4961
X3.2764Y-2.0961
X3.374Y-2.7858
X3.374Y-3.3858
X3.3764Y-1.4961
X3.3764Y-2.0961
X3.474Y-2.7858
X3.474Y-3.3858
X3.4764Y-1.4961
X3.4764Y-2.0961
X3.5535Y-4.2953
X3.5535Y-4.3953
X3.5535Y-4.4953
X3.5535Y-4.5953
X3.5535Y-4.6953
X3.5535Y-4.7953
X3.5535Y-4.8953
X3.5535Y-4.9953
X3.5535Y-5.0953
X3.5535Y-5.1953
X3.5535Y-5.2953
X3.5535Y-5.3953
X3.5535Y-5.4953
X3.5535Y-5.5953
X3.574Y-2.7858
X3.574Y-3.3858
X3.5764Y-1.4961
X3.5764Y-2.0961
X3.674Y-2.7858
X3.674Y-3.3858
X3.6764Y-1.4961
X3.6764Y-2.0961
X3.774Y-2.7858
X3.774Y-3.3858
X3.7764Y-1.4961
X3.7764Y-2.0961
X3.874Y-2.7858
X3.874Y-3.3858
X3.8764Y-1.4961
X3.8764Y-2.0961
X3.974Y-2.7858
X3.974Y-3.3858
X3.9764Y-1.4961
X3.9764Y-2.0961
X4.074Y-2.7858
X4.074Y-3.3858
X4.0764Y-1.4961
X4.0764Y-2.0961
X4.1535Y-4.2953
X4.1535Y-4.3953
X4.1535Y-4.4953
X4.1535Y-4.5953
X4.1535Y-4.6953
X4.1535Y-4.7953
X4.1535Y-4.8953
X4.1535Y-4.9953
X4.1535Y-5.0953
X4.1535Y-5.1953
X4.1535Y-5.2953
X4.1535Y-5.3953
X4.1535Y-5.4953
X4.1535Y-5.5953
X4.174Y-2.7858
X4.174Y-3.3858
X4.1764Y-1.4961
X4.1764Y-2.0961
X4.2224Y-0.9246
X4.2224Y-1.1246
X4.274Y-2.7858
X4.274Y-3.3858
X4.2764Y-1.4961
X4.2764Y-2.0961
X4.2913Y-2.3222
X4.2913Y-2.5222
X4.4685Y-3.3734
X4.4685Y-3.5734
X4.5697Y-2.7559
X4.7618Y-2.7559
T3
X1.3752Y-5.748
X1.4157Y-5.2756
X1.4202Y-5.4921
X1.5157Y-5.2756
X1.5202Y-5.4921
X1.5752Y-5.748
X1.6339Y-3.7751
X1.6339Y-3.8751
X1.6437Y-2.4591
X1.6437Y-2.5591
X1.6634Y-1.1906
X1.6634Y-1.2906
X1.6823Y-0.9843
X1.7823Y-0.9843
X2.594Y-5.8169
X2.694Y-5.8169
X3.9331Y-2.5984
X4.0331Y-2.5984
X4.0408Y-4.0354
X4.1408Y-4.0354
X4.4866Y-1.1811
X4.5079Y-1.9079
X4.5079Y-2.0079
X4.5866Y-1.1811
X4.5866Y-2.2886
X4.5866Y-2.3886
X4.7441Y-2.2886
X4.7441Y-2.3886
T4
X4.3996Y-0.7972
X4.3996Y-0.9744
X4.6555Y-0.7972
X4.6555Y-0.9744
T5
X1.4173Y-5.0591
X1.5173Y-5.0591
X3.1283Y-0.7874
X3.2283Y-0.7874
X3.3283Y-0.7874
X3.4283Y-0.7874
X3.5283Y-0.7874
X3.6283Y-0.7874
M30
