M48
; DRILL file {KiCad 8.0.6} date 2024-11-14T10:19:42-0500
; FORMAT={-:-/ absolute / inch / decimal}
; #@! TF.CreationDate,2024-11-14T10:19:42-05:00
; #@! TF.GenerationSoftware,Kicad,Pcbnew,8.0.6
; #@! TF.FileFunction,Plated,1,2,PTH
FMAT,2
INCH
; #@! TA.AperFunction,Plated,PTH,ViaDrill
T1C0.0118
; #@! TA.AperFunction,Plated,PTH,ComponentDrill
T2C0.0315
; #@! TA.AperFunction,Plated,PTH,ComponentDrill
T3C0.0340
; #@! TA.AperFunction,Plated,PTH,ComponentDrill
T4C0.0394
; #@! TA.AperFunction,Plated,PTH,ComponentDrill
T5C0.0394
%
G90
G05
T1
X1.2697Y-3.2283
X1.2795Y-4.4488
X1.2795Y-4.4488
X1.2894Y-1.7815
X1.3484Y-3.6516
X1.378Y-2.5295
X1.4272Y-4.7933
X1.437Y-4.2224
X1.437Y-4.3504
X1.437Y-4.4587
X1.4567Y-0.8858
X1.4764Y-1.2598
X1.5059Y-2.7953
X1.5157Y-2.0571
X1.5256Y-0.6791
X1.5256Y-5.6004
X1.5354Y-3.9665
X1.5354Y-4.252
X1.5354Y-4.6457
X1.5453Y-1.8898
X1.5453Y-3.3563
X1.5846Y-1.4862
X1.5846Y-1.7028
X1.5846Y-5.3937
X1.7421Y-5.0591
X1.752Y-4.4587
X1.752Y-5.2854
X1.7717Y-4.5669
X1.7717Y-5.4921
X1.8012Y-3.1102
X1.8012Y-3.9961
X1.8307Y-2.4705
X1.8406Y-2.7953
X1.8504Y-4.2323
X1.8602Y-1.1319
X1.8602Y-3.6024
X1.8701Y-4.5571
X1.8701Y-4.7933
X1.8799Y-1.7224
X1.8898Y-1.9882
X1.8996Y-2.1457
X1.8996Y-4.4094
X1.9193Y-5.6988
X1.9291Y-5.0197
X1.9488Y-0.876
X1.9882Y-5.2756
X1.998Y-4.5965
X2.0276Y-2.9429
X2.0276Y-3.7697
X2.0276Y-4.0945
X2.0276Y-4.3602
X2.0374Y-3.4843
X2.0965Y-0.6693
X2.0965Y-5.4528
X2.126Y-5.0295
X2.1358Y-1.8898
X2.1555Y-5.2657
X2.185Y-2.2146
X2.1949Y-4.685
X2.2047Y-2.4803
X2.2146Y-1.2106
X2.2146Y-5.6299
X2.2244Y-4.4291
X2.2244Y-4.626
X2.2441Y-1.5945
X2.2539Y-4.5669
X2.2539Y-4.8917
X2.2638Y-4.3701
X2.2835Y-5.7382
X2.3228Y-2.9626
X2.3228Y-3.0413
X2.3228Y-3.4744
X2.3524Y-3.5433
X2.3524Y-3.6319
X2.3819Y-3.1201
X2.3917Y-1.9685
X2.3917Y-3.2874
X2.4114Y-1.8209
X2.4311Y-2.1752
X2.4508Y-3.9764
X2.4567Y-3.5728
X2.4606Y-4.4882
X2.4606Y-4.5768
X2.4606Y-4.685
X2.4606Y-4.8031
X2.4606Y-4.9803
X2.4606Y-5.0886
X2.4606Y-5.1772
X2.4606Y-5.2854
X2.4606Y-5.3839
X2.4606Y-5.4921
X2.4606Y-5.6004
X2.4705Y-3.2972
X2.4803Y-3.5039
X2.4902Y-3.1102
X2.5295Y-3.0413
X2.5492Y-1.811
X2.574Y-3.2724
X2.5787Y-3.4941
X2.5787Y-4.2126
X2.5886Y-3.1201
X2.628Y-3.002
X2.6378Y-0.9744
X2.687Y-4.9803
X2.6969Y-2.4016
X2.7067Y-1.8898
X2.7067Y-3.8583
X2.7264Y-3.1594
X2.7461Y-3.8091
X2.7657Y-4.685
X2.7854Y-3.7598
X2.7953Y-4.498
X2.815Y-1.1417
X2.815Y-2.9626
X2.8248Y-2.1752
X2.8346Y-4.9902
X2.8543Y-4.8031
X2.8642Y-1.4173
X2.8642Y-4.1535
X2.8839Y-0.7283
X2.8937Y-3.8484
X2.9035Y-5.7087
X2.9331Y-2.1752
X2.9626Y-2.9626
X2.9724Y-3.622
X3.0118Y-2.5689
X3.0315Y-2.1752
X3.061Y-2.9626
X3.061Y-3.6024
X3.061Y-4.0059
X3.0709Y-4.2913
X3.0709Y-4.8031
X3.0709Y-5.2953
X3.0807Y-0.8858
X3.1299Y-1.2894
X3.1398Y-1.7717
X3.1594Y-2.9626
X3.1988Y-0.6496
X3.2185Y-4.1535
X3.2185Y-5.2953
X3.2283Y-3.622
X3.2382Y-3.2677
X3.248Y-2.9626
X3.2677Y-2.3622
X3.2776Y-1.3189
X3.2776Y-2.2638
X3.3071Y-3.3071
X3.3268Y-3.622
X3.3268Y-4.065
X3.3465Y-5.7087
X3.376Y-2.9724
X3.376Y-3.3268
X3.3858Y-1.3189
X3.4349Y-2.2637
X3.435Y-3.6122
X3.4449Y-4.3406
X3.4449Y-4.8031
X3.4449Y-4.9016
X3.4744Y-3.0512
X3.4941Y-1.6634
X3.5341Y-2.2645
X3.563Y-3.1102
X3.563Y-3.2579
X3.563Y-3.9665
X3.5728Y-2.9331
X3.5827Y-3.6713
X3.5925Y-1.6634
X3.5925Y-2.4508
X3.622Y-1.3189
X3.6334Y-2.2652
X3.6713Y-5.4232
X3.6811Y-1.6634
X3.6909Y-5.5906
X3.7106Y-5.1969
X3.7402Y-2.2638
X3.7795Y-3.8189
X3.7795Y-4.1339
X3.7894Y-1.6634
X3.7894Y-2.4606
X3.8287Y-2.2638
X3.8287Y-5.7283
X3.8484Y-5.374
X3.8583Y-5.0984
X3.8681Y-2.9232
X3.8681Y-3.1496
X3.878Y-3.8976
X3.9173Y-0.8858
X3.9359Y-2.2627
X3.9567Y-1.25
X3.9862Y-1.6634
X3.9862Y-5.0
X3.9862Y-5.1083
X3.9862Y-5.2067
X3.9862Y-5.2953
X3.9862Y-5.4035
X3.9862Y-5.5118
X3.9961Y-4.2913
X3.9961Y-4.3898
X3.9961Y-4.5079
X3.9961Y-4.6063
X3.9961Y-4.6949
X3.9961Y-4.8228
X4.0059Y-2.4508
X4.0256Y-2.2638
X4.0453Y-2.8839
X4.0551Y-3.2579
X4.0551Y-3.6713
X4.0945Y-1.6634
X4.1043Y-4.1634
X4.1142Y-0.6398
X4.124Y-1.0138
X4.1252Y-2.2649
X4.1535Y-1.3681
X4.1535Y-2.185
X4.1732Y-2.9921
X4.1929Y-1.6634
X4.2126Y-3.5728
X4.2224Y-4.2126
X4.3406Y-1.0335
X4.3996Y-2.6772
X4.4193Y-1.7028
X4.4291Y-1.3976
X4.5669Y-1.0531
X4.5768Y-0.6693
X4.6358Y-1.752
X4.6358Y-3.1496
X4.685Y-2.5787
X4.7244Y-1.9783
X4.7638Y-1.3189
X4.813Y-0.7776
X4.813Y-1.4469
T2
X1.3465Y-4.06
X1.3465Y-4.16
X1.3465Y-4.26
X1.3465Y-4.36
X1.3465Y-4.46
X1.3465Y-4.56
X1.3465Y-4.66
X1.3622Y-2.7874
X1.3622Y-2.8874
X1.3622Y-2.9874
X1.3622Y-3.0874
X1.3622Y-3.1874
X1.3622Y-3.2874
X1.3622Y-3.3874
X1.378Y-1.4846
X1.378Y-1.5846
X1.378Y-1.6846
X1.378Y-1.7846
X1.378Y-1.8846
X1.378Y-1.9846
X1.378Y-2.0846
X1.6339Y-0.7677
X1.6465Y-4.06
X1.6465Y-4.16
X1.6465Y-4.26
X1.6465Y-4.36
X1.6465Y-4.46
X1.6465Y-4.56
X1.6465Y-4.66
X1.6622Y-2.7874
X1.6622Y-2.8874
X1.6622Y-2.9874
X1.6622Y-3.0874
X1.6622Y-3.1874
X1.6622Y-3.2874
X1.6622Y-3.3874
X1.678Y-1.4846
X1.678Y-1.5846
X1.678Y-1.6846
X1.678Y-1.7846
X1.678Y-1.8846
X1.678Y-1.9846
X1.678Y-2.0846
X1.8307Y-0.7677
X2.1161Y-1.4935
X2.1161Y-1.6935
X2.1654Y-0.777
X2.1654Y-0.977
X2.3433Y-4.0969
X2.3433Y-4.1969
X2.3433Y-4.2969
X2.3433Y-4.3969
X2.3433Y-4.4969
X2.3433Y-4.5969
X2.3433Y-4.6969
X2.3433Y-4.7969
X2.3433Y-4.8969
X2.3433Y-4.9969
X2.3433Y-5.0969
X2.3433Y-5.1969
X2.3433Y-5.2969
X2.3433Y-5.3969
X2.3433Y-5.4969
X2.3433Y-5.5969
X2.3622Y-3.7376
X2.3622Y-3.9376
X2.374Y-2.7858
X2.374Y-3.3858
X2.3764Y-1.4961
X2.3764Y-2.0961
X2.474Y-2.7858
X2.474Y-3.3858
X2.4764Y-1.4961
X2.4764Y-2.0961
X2.5197Y-1.0703
X2.5197Y-1.2703
X2.5224Y-0.7874
X2.574Y-2.7858
X2.574Y-3.3858
X2.5764Y-1.4961
X2.5764Y-2.0961
X2.674Y-2.7858
X2.674Y-3.3858
X2.6764Y-1.4961
X2.6764Y-2.0961
X2.7146Y-0.7874
X2.774Y-2.7858
X2.774Y-3.3858
X2.7764Y-1.4961
X2.7764Y-2.0961
X2.874Y-2.7858
X2.874Y-3.3858
X2.8764Y-1.4961
X2.8764Y-2.0961
X2.9433Y-4.0969
X2.9433Y-4.1969
X2.9433Y-4.2969
X2.9433Y-4.3969
X2.9433Y-4.4969
X2.9433Y-4.5969
X2.9433Y-4.6969
X2.9433Y-4.7969
X2.9433Y-4.8969
X2.9433Y-4.9969
X2.9433Y-5.0969
X2.9433Y-5.1969
X2.9433Y-5.2969
X2.9433Y-5.3969
X2.9433Y-5.4969
X2.9433Y-5.5969
X2.9724Y-1.0329
X2.9724Y-1.2329
X2.974Y-2.7858
X2.974Y-3.3858
X2.9764Y-1.4961
X2.9764Y-2.0961
X3.074Y-2.7858
X3.074Y-3.3858
X3.0764Y-1.4961
X3.0764Y-2.0961
X3.174Y-2.7858
X3.174Y-3.3858
X3.1764Y-1.4961
X3.1764Y-2.0961
X3.274Y-2.7858
X3.274Y-3.3858
X3.2764Y-1.4961
X3.2764Y-2.0961
X3.374Y-2.7858
X3.374Y-3.3858
X3.3764Y-1.4961
X3.3764Y-2.0961
X3.474Y-2.7858
X3.474Y-3.3858
X3.4764Y-1.4961
X3.4764Y-2.0961
X3.5535Y-4.2953
X3.5535Y-4.3953
X3.5535Y-4.4953
X3.5535Y-4.5953
X3.5535Y-4.6953
X3.5535Y-4.7953
X3.5535Y-4.8953
X3.5535Y-4.9953
X3.5535Y-5.0953
X3.5535Y-5.1953
X3.5535Y-5.2953
X3.5535Y-5.3953
X3.5535Y-5.4953
X3.5535Y-5.5953
X3.574Y-2.7858
X3.574Y-3.3858
X3.5764Y-1.4961
X3.5764Y-2.0961
X3.674Y-2.7858
X3.674Y-3.3858
X3.6764Y-1.4961
X3.6764Y-2.0961
X3.774Y-2.7858
X3.774Y-3.3858
X3.7764Y-1.4961
X3.7764Y-2.0961
X3.874Y-2.7858
X3.874Y-3.3858
X3.8764Y-1.4961
X3.8764Y-2.0961
X3.974Y-2.7858
X3.974Y-3.3858
X3.9764Y-1.4961
X3.9764Y-2.0961
X4.074Y-2.7858
X4.074Y-3.3858
X4.0764Y-1.4961
X4.0764Y-2.0961
X4.1535Y-4.2953
X4.1535Y-4.3953
X4.1535Y-4.4953
X4.1535Y-4.5953
X4.1535Y-4.6953
X4.1535Y-4.7953
X4.1535Y-4.8953
X4.1535Y-4.9953
X4.1535Y-5.0953
X4.1535Y-5.1953
X4.1535Y-5.2953
X4.1535Y-5.3953
X4.1535Y-5.4953
X4.1535Y-5.5953
X4.174Y-2.7858
X4.174Y-3.3858
X4.1764Y-1.4961
X4.1764Y-2.0961
X4.2224Y-0.9246
X4.2224Y-1.1246
X4.274Y-2.7858
X4.274Y-3.3858
X4.2764Y-1.4961
X4.2764Y-2.0961
X4.2913Y-2.3222
X4.2913Y-2.5222
X4.4685Y-3.3734
X4.4685Y-3.5734
X4.5697Y-2.7559
X4.7618Y-2.7559
T3
X1.3752Y-5.748
X1.4157Y-5.2756
X1.4202Y-5.4921
X1.5157Y-5.2756
X1.5202Y-5.4921
X1.5752Y-5.748
X1.6339Y-3.7751
X1.6339Y-3.8751
X1.6437Y-2.4591
X1.6437Y-2.5591
X1.6634Y-1.1906
X1.6634Y-1.2906
X1.6823Y-0.9843
X1.7823Y-0.9843
X2.594Y-5.8169
X2.694Y-5.8169
X3.9331Y-2.5984
X4.0331Y-2.5984
X4.0408Y-4.0354
X4.1408Y-4.0354
X4.4866Y-1.1811
X4.5079Y-1.9079
X4.5079Y-2.0079
X4.5866Y-1.1811
X4.5866Y-2.2886
X4.5866Y-2.3886
X4.7441Y-2.2886
X4.7441Y-2.3886
T4
X4.3996Y-0.7972
X4.3996Y-0.9744
X4.6555Y-0.7972
X4.6555Y-0.9744
T5
X1.4173Y-5.0591
X1.5173Y-5.0591
X3.1283Y-0.7874
X3.2283Y-0.7874
X3.3283Y-0.7874
X3.4283Y-0.7874
X3.5283Y-0.7874
X3.6283Y-0.7874
M30
