%TF.GenerationSoftware,KiCad,Pcbnew,8.0.6*%
%TF.CreationDate,2024-11-15T08:20:11-05:00*%
%TF.ProjectId,6309-board-prototype-1.kicad_pro,36333039-2d62-46f6-9172-642d70726f74,rev?*%
%TF.SameCoordinates,Original*%
%TF.FileFunction,Legend,Top*%
%TF.FilePolarity,Positive*%
%FSLAX46Y46*%
G04 Gerber Fmt 4.6, Leading zero omitted, Abs format (unit mm)*
G04 Created by KiCad (PCBNEW 8.0.6) date 2024-11-15 08:20:11*
%MOMM*%
%LPD*%
G01*
G04 APERTURE LIST*
%ADD10C,0.150000*%
%ADD11C,0.200000*%
%ADD12C,0.120000*%
%ADD13C,0.152400*%
%ADD14C,0.254000*%
G04 APERTURE END LIST*
D10*
X34936233Y-120149819D02*
X35602899Y-120149819D01*
X35602899Y-120149819D02*
X35174328Y-121149819D01*
X36412423Y-120483152D02*
X36412423Y-121149819D01*
X36174328Y-120102200D02*
X35936233Y-120816485D01*
X35936233Y-120816485D02*
X36555280Y-120816485D01*
X36936233Y-121149819D02*
X36936233Y-120149819D01*
X36936233Y-120626009D02*
X37507661Y-120626009D01*
X37507661Y-121149819D02*
X37507661Y-120149819D01*
X38555280Y-121054580D02*
X38507661Y-121102200D01*
X38507661Y-121102200D02*
X38364804Y-121149819D01*
X38364804Y-121149819D02*
X38269566Y-121149819D01*
X38269566Y-121149819D02*
X38126709Y-121102200D01*
X38126709Y-121102200D02*
X38031471Y-121006961D01*
X38031471Y-121006961D02*
X37983852Y-120911723D01*
X37983852Y-120911723D02*
X37936233Y-120721247D01*
X37936233Y-120721247D02*
X37936233Y-120578390D01*
X37936233Y-120578390D02*
X37983852Y-120387914D01*
X37983852Y-120387914D02*
X38031471Y-120292676D01*
X38031471Y-120292676D02*
X38126709Y-120197438D01*
X38126709Y-120197438D02*
X38269566Y-120149819D01*
X38269566Y-120149819D02*
X38364804Y-120149819D01*
X38364804Y-120149819D02*
X38507661Y-120197438D01*
X38507661Y-120197438D02*
X38555280Y-120245057D01*
X38840995Y-120149819D02*
X39412423Y-120149819D01*
X39126709Y-121149819D02*
X39126709Y-120149819D01*
X39650519Y-120149819D02*
X40269566Y-120149819D01*
X40269566Y-120149819D02*
X39936233Y-120530771D01*
X39936233Y-120530771D02*
X40079090Y-120530771D01*
X40079090Y-120530771D02*
X40174328Y-120578390D01*
X40174328Y-120578390D02*
X40221947Y-120626009D01*
X40221947Y-120626009D02*
X40269566Y-120721247D01*
X40269566Y-120721247D02*
X40269566Y-120959342D01*
X40269566Y-120959342D02*
X40221947Y-121054580D01*
X40221947Y-121054580D02*
X40174328Y-121102200D01*
X40174328Y-121102200D02*
X40079090Y-121149819D01*
X40079090Y-121149819D02*
X39793376Y-121149819D01*
X39793376Y-121149819D02*
X39698138Y-121102200D01*
X39698138Y-121102200D02*
X39650519Y-121054580D01*
X40888614Y-120149819D02*
X40983852Y-120149819D01*
X40983852Y-120149819D02*
X41079090Y-120197438D01*
X41079090Y-120197438D02*
X41126709Y-120245057D01*
X41126709Y-120245057D02*
X41174328Y-120340295D01*
X41174328Y-120340295D02*
X41221947Y-120530771D01*
X41221947Y-120530771D02*
X41221947Y-120768866D01*
X41221947Y-120768866D02*
X41174328Y-120959342D01*
X41174328Y-120959342D02*
X41126709Y-121054580D01*
X41126709Y-121054580D02*
X41079090Y-121102200D01*
X41079090Y-121102200D02*
X40983852Y-121149819D01*
X40983852Y-121149819D02*
X40888614Y-121149819D01*
X40888614Y-121149819D02*
X40793376Y-121102200D01*
X40793376Y-121102200D02*
X40745757Y-121054580D01*
X40745757Y-121054580D02*
X40698138Y-120959342D01*
X40698138Y-120959342D02*
X40650519Y-120768866D01*
X40650519Y-120768866D02*
X40650519Y-120530771D01*
X40650519Y-120530771D02*
X40698138Y-120340295D01*
X40698138Y-120340295D02*
X40745757Y-120245057D01*
X40745757Y-120245057D02*
X40793376Y-120197438D01*
X40793376Y-120197438D02*
X40888614Y-120149819D01*
X35736233Y-54734819D02*
X36402899Y-54734819D01*
X36402899Y-54734819D02*
X35974328Y-55734819D01*
X37212423Y-55068152D02*
X37212423Y-55734819D01*
X36974328Y-54687200D02*
X36736233Y-55401485D01*
X36736233Y-55401485D02*
X37355280Y-55401485D01*
X37736233Y-55734819D02*
X37736233Y-54734819D01*
X37736233Y-55211009D02*
X38307661Y-55211009D01*
X38307661Y-55734819D02*
X38307661Y-54734819D01*
X39355280Y-55639580D02*
X39307661Y-55687200D01*
X39307661Y-55687200D02*
X39164804Y-55734819D01*
X39164804Y-55734819D02*
X39069566Y-55734819D01*
X39069566Y-55734819D02*
X38926709Y-55687200D01*
X38926709Y-55687200D02*
X38831471Y-55591961D01*
X38831471Y-55591961D02*
X38783852Y-55496723D01*
X38783852Y-55496723D02*
X38736233Y-55306247D01*
X38736233Y-55306247D02*
X38736233Y-55163390D01*
X38736233Y-55163390D02*
X38783852Y-54972914D01*
X38783852Y-54972914D02*
X38831471Y-54877676D01*
X38831471Y-54877676D02*
X38926709Y-54782438D01*
X38926709Y-54782438D02*
X39069566Y-54734819D01*
X39069566Y-54734819D02*
X39164804Y-54734819D01*
X39164804Y-54734819D02*
X39307661Y-54782438D01*
X39307661Y-54782438D02*
X39355280Y-54830057D01*
X39640995Y-54734819D02*
X40212423Y-54734819D01*
X39926709Y-55734819D02*
X39926709Y-54734819D01*
X40736233Y-54734819D02*
X40831471Y-54734819D01*
X40831471Y-54734819D02*
X40926709Y-54782438D01*
X40926709Y-54782438D02*
X40974328Y-54830057D01*
X40974328Y-54830057D02*
X41021947Y-54925295D01*
X41021947Y-54925295D02*
X41069566Y-55115771D01*
X41069566Y-55115771D02*
X41069566Y-55353866D01*
X41069566Y-55353866D02*
X41021947Y-55544342D01*
X41021947Y-55544342D02*
X40974328Y-55639580D01*
X40974328Y-55639580D02*
X40926709Y-55687200D01*
X40926709Y-55687200D02*
X40831471Y-55734819D01*
X40831471Y-55734819D02*
X40736233Y-55734819D01*
X40736233Y-55734819D02*
X40640995Y-55687200D01*
X40640995Y-55687200D02*
X40593376Y-55639580D01*
X40593376Y-55639580D02*
X40545757Y-55544342D01*
X40545757Y-55544342D02*
X40498138Y-55353866D01*
X40498138Y-55353866D02*
X40498138Y-55115771D01*
X40498138Y-55115771D02*
X40545757Y-54925295D01*
X40545757Y-54925295D02*
X40593376Y-54830057D01*
X40593376Y-54830057D02*
X40640995Y-54782438D01*
X40640995Y-54782438D02*
X40736233Y-54734819D01*
X41926709Y-55068152D02*
X41926709Y-55734819D01*
X41688614Y-54687200D02*
X41450519Y-55401485D01*
X41450519Y-55401485D02*
X42069566Y-55401485D01*
X110167719Y-27191666D02*
X110167719Y-27763094D01*
X110167719Y-27477380D02*
X109167719Y-27477380D01*
X109167719Y-27477380D02*
X109310576Y-27572618D01*
X109310576Y-27572618D02*
X109405814Y-27667856D01*
X109405814Y-27667856D02*
X109453433Y-27763094D01*
X109167719Y-26572618D02*
X109167719Y-26477380D01*
X109167719Y-26477380D02*
X109215338Y-26382142D01*
X109215338Y-26382142D02*
X109262957Y-26334523D01*
X109262957Y-26334523D02*
X109358195Y-26286904D01*
X109358195Y-26286904D02*
X109548671Y-26239285D01*
X109548671Y-26239285D02*
X109786766Y-26239285D01*
X109786766Y-26239285D02*
X109977242Y-26286904D01*
X109977242Y-26286904D02*
X110072480Y-26334523D01*
X110072480Y-26334523D02*
X110120100Y-26382142D01*
X110120100Y-26382142D02*
X110167719Y-26477380D01*
X110167719Y-26477380D02*
X110167719Y-26572618D01*
X110167719Y-26572618D02*
X110120100Y-26667856D01*
X110120100Y-26667856D02*
X110072480Y-26715475D01*
X110072480Y-26715475D02*
X109977242Y-26763094D01*
X109977242Y-26763094D02*
X109786766Y-26810713D01*
X109786766Y-26810713D02*
X109548671Y-26810713D01*
X109548671Y-26810713D02*
X109358195Y-26763094D01*
X109358195Y-26763094D02*
X109262957Y-26715475D01*
X109262957Y-26715475D02*
X109215338Y-26667856D01*
X109215338Y-26667856D02*
X109167719Y-26572618D01*
X109167719Y-25620237D02*
X109167719Y-25524999D01*
X109167719Y-25524999D02*
X109215338Y-25429761D01*
X109215338Y-25429761D02*
X109262957Y-25382142D01*
X109262957Y-25382142D02*
X109358195Y-25334523D01*
X109358195Y-25334523D02*
X109548671Y-25286904D01*
X109548671Y-25286904D02*
X109786766Y-25286904D01*
X109786766Y-25286904D02*
X109977242Y-25334523D01*
X109977242Y-25334523D02*
X110072480Y-25382142D01*
X110072480Y-25382142D02*
X110120100Y-25429761D01*
X110120100Y-25429761D02*
X110167719Y-25524999D01*
X110167719Y-25524999D02*
X110167719Y-25620237D01*
X110167719Y-25620237D02*
X110120100Y-25715475D01*
X110120100Y-25715475D02*
X110072480Y-25763094D01*
X110072480Y-25763094D02*
X109977242Y-25810713D01*
X109977242Y-25810713D02*
X109786766Y-25858332D01*
X109786766Y-25858332D02*
X109548671Y-25858332D01*
X109548671Y-25858332D02*
X109358195Y-25810713D01*
X109358195Y-25810713D02*
X109262957Y-25763094D01*
X109262957Y-25763094D02*
X109215338Y-25715475D01*
X109215338Y-25715475D02*
X109167719Y-25620237D01*
X110167719Y-24858332D02*
X109167719Y-24858332D01*
X110167719Y-24286904D02*
X109596290Y-24715475D01*
X109167719Y-24286904D02*
X109739147Y-24858332D01*
X60107143Y-147204819D02*
X60202381Y-147204819D01*
X60202381Y-147204819D02*
X60297619Y-147252438D01*
X60297619Y-147252438D02*
X60345238Y-147300057D01*
X60345238Y-147300057D02*
X60392857Y-147395295D01*
X60392857Y-147395295D02*
X60440476Y-147585771D01*
X60440476Y-147585771D02*
X60440476Y-147823866D01*
X60440476Y-147823866D02*
X60392857Y-148014342D01*
X60392857Y-148014342D02*
X60345238Y-148109580D01*
X60345238Y-148109580D02*
X60297619Y-148157200D01*
X60297619Y-148157200D02*
X60202381Y-148204819D01*
X60202381Y-148204819D02*
X60107143Y-148204819D01*
X60107143Y-148204819D02*
X60011905Y-148157200D01*
X60011905Y-148157200D02*
X59964286Y-148109580D01*
X59964286Y-148109580D02*
X59916667Y-148014342D01*
X59916667Y-148014342D02*
X59869048Y-147823866D01*
X59869048Y-147823866D02*
X59869048Y-147585771D01*
X59869048Y-147585771D02*
X59916667Y-147395295D01*
X59916667Y-147395295D02*
X59964286Y-147300057D01*
X59964286Y-147300057D02*
X60011905Y-147252438D01*
X60011905Y-147252438D02*
X60107143Y-147204819D01*
X60869048Y-148109580D02*
X60916667Y-148157200D01*
X60916667Y-148157200D02*
X60869048Y-148204819D01*
X60869048Y-148204819D02*
X60821429Y-148157200D01*
X60821429Y-148157200D02*
X60869048Y-148109580D01*
X60869048Y-148109580D02*
X60869048Y-148204819D01*
X61869047Y-148204819D02*
X61297619Y-148204819D01*
X61583333Y-148204819D02*
X61583333Y-147204819D01*
X61583333Y-147204819D02*
X61488095Y-147347676D01*
X61488095Y-147347676D02*
X61392857Y-147442914D01*
X61392857Y-147442914D02*
X61297619Y-147490533D01*
X62726190Y-147538152D02*
X62726190Y-148204819D01*
X62297619Y-147538152D02*
X62297619Y-148061961D01*
X62297619Y-148061961D02*
X62345238Y-148157200D01*
X62345238Y-148157200D02*
X62440476Y-148204819D01*
X62440476Y-148204819D02*
X62583333Y-148204819D01*
X62583333Y-148204819D02*
X62678571Y-148157200D01*
X62678571Y-148157200D02*
X62726190Y-148109580D01*
X63535714Y-147681009D02*
X63202381Y-147681009D01*
X63202381Y-148204819D02*
X63202381Y-147204819D01*
X63202381Y-147204819D02*
X63678571Y-147204819D01*
X56481919Y-41641666D02*
X56481919Y-42213094D01*
X56481919Y-41927380D02*
X55481919Y-41927380D01*
X55481919Y-41927380D02*
X55624776Y-42022618D01*
X55624776Y-42022618D02*
X55720014Y-42117856D01*
X55720014Y-42117856D02*
X55767633Y-42213094D01*
X55481919Y-41022618D02*
X55481919Y-40927380D01*
X55481919Y-40927380D02*
X55529538Y-40832142D01*
X55529538Y-40832142D02*
X55577157Y-40784523D01*
X55577157Y-40784523D02*
X55672395Y-40736904D01*
X55672395Y-40736904D02*
X55862871Y-40689285D01*
X55862871Y-40689285D02*
X56100966Y-40689285D01*
X56100966Y-40689285D02*
X56291442Y-40736904D01*
X56291442Y-40736904D02*
X56386680Y-40784523D01*
X56386680Y-40784523D02*
X56434300Y-40832142D01*
X56434300Y-40832142D02*
X56481919Y-40927380D01*
X56481919Y-40927380D02*
X56481919Y-41022618D01*
X56481919Y-41022618D02*
X56434300Y-41117856D01*
X56434300Y-41117856D02*
X56386680Y-41165475D01*
X56386680Y-41165475D02*
X56291442Y-41213094D01*
X56291442Y-41213094D02*
X56100966Y-41260713D01*
X56100966Y-41260713D02*
X55862871Y-41260713D01*
X55862871Y-41260713D02*
X55672395Y-41213094D01*
X55672395Y-41213094D02*
X55577157Y-41165475D01*
X55577157Y-41165475D02*
X55529538Y-41117856D01*
X55529538Y-41117856D02*
X55481919Y-41022618D01*
X55481919Y-40070237D02*
X55481919Y-39974999D01*
X55481919Y-39974999D02*
X55529538Y-39879761D01*
X55529538Y-39879761D02*
X55577157Y-39832142D01*
X55577157Y-39832142D02*
X55672395Y-39784523D01*
X55672395Y-39784523D02*
X55862871Y-39736904D01*
X55862871Y-39736904D02*
X56100966Y-39736904D01*
X56100966Y-39736904D02*
X56291442Y-39784523D01*
X56291442Y-39784523D02*
X56386680Y-39832142D01*
X56386680Y-39832142D02*
X56434300Y-39879761D01*
X56434300Y-39879761D02*
X56481919Y-39974999D01*
X56481919Y-39974999D02*
X56481919Y-40070237D01*
X56481919Y-40070237D02*
X56434300Y-40165475D01*
X56434300Y-40165475D02*
X56386680Y-40213094D01*
X56386680Y-40213094D02*
X56291442Y-40260713D01*
X56291442Y-40260713D02*
X56100966Y-40308332D01*
X56100966Y-40308332D02*
X55862871Y-40308332D01*
X55862871Y-40308332D02*
X55672395Y-40260713D01*
X55672395Y-40260713D02*
X55577157Y-40213094D01*
X55577157Y-40213094D02*
X55529538Y-40165475D01*
X55529538Y-40165475D02*
X55481919Y-40070237D01*
X56481919Y-39308332D02*
X55481919Y-39308332D01*
X56481919Y-38736904D02*
X55910490Y-39165475D01*
X55481919Y-38736904D02*
X56053347Y-39308332D01*
X42926233Y-21788152D02*
X42926233Y-22454819D01*
X42688138Y-21407200D02*
X42450043Y-22121485D01*
X42450043Y-22121485D02*
X43069090Y-22121485D01*
X43354805Y-21454819D02*
X44021471Y-21454819D01*
X44021471Y-21454819D02*
X43592900Y-22454819D01*
X44402424Y-21788152D02*
X44402424Y-22788152D01*
X44402424Y-21835771D02*
X44497662Y-21788152D01*
X44497662Y-21788152D02*
X44688138Y-21788152D01*
X44688138Y-21788152D02*
X44783376Y-21835771D01*
X44783376Y-21835771D02*
X44830995Y-21883390D01*
X44830995Y-21883390D02*
X44878614Y-21978628D01*
X44878614Y-21978628D02*
X44878614Y-22264342D01*
X44878614Y-22264342D02*
X44830995Y-22359580D01*
X44830995Y-22359580D02*
X44783376Y-22407200D01*
X44783376Y-22407200D02*
X44688138Y-22454819D01*
X44688138Y-22454819D02*
X44497662Y-22454819D01*
X44497662Y-22454819D02*
X44402424Y-22407200D01*
X45640519Y-21931009D02*
X45307186Y-21931009D01*
X45307186Y-22454819D02*
X45307186Y-21454819D01*
X45307186Y-21454819D02*
X45783376Y-21454819D01*
X58177719Y-98641666D02*
X58177719Y-99213094D01*
X58177719Y-98927380D02*
X57177719Y-98927380D01*
X57177719Y-98927380D02*
X57320576Y-99022618D01*
X57320576Y-99022618D02*
X57415814Y-99117856D01*
X57415814Y-99117856D02*
X57463433Y-99213094D01*
X57177719Y-98022618D02*
X57177719Y-97927380D01*
X57177719Y-97927380D02*
X57225338Y-97832142D01*
X57225338Y-97832142D02*
X57272957Y-97784523D01*
X57272957Y-97784523D02*
X57368195Y-97736904D01*
X57368195Y-97736904D02*
X57558671Y-97689285D01*
X57558671Y-97689285D02*
X57796766Y-97689285D01*
X57796766Y-97689285D02*
X57987242Y-97736904D01*
X57987242Y-97736904D02*
X58082480Y-97784523D01*
X58082480Y-97784523D02*
X58130100Y-97832142D01*
X58130100Y-97832142D02*
X58177719Y-97927380D01*
X58177719Y-97927380D02*
X58177719Y-98022618D01*
X58177719Y-98022618D02*
X58130100Y-98117856D01*
X58130100Y-98117856D02*
X58082480Y-98165475D01*
X58082480Y-98165475D02*
X57987242Y-98213094D01*
X57987242Y-98213094D02*
X57796766Y-98260713D01*
X57796766Y-98260713D02*
X57558671Y-98260713D01*
X57558671Y-98260713D02*
X57368195Y-98213094D01*
X57368195Y-98213094D02*
X57272957Y-98165475D01*
X57272957Y-98165475D02*
X57225338Y-98117856D01*
X57225338Y-98117856D02*
X57177719Y-98022618D01*
X57177719Y-97070237D02*
X57177719Y-96974999D01*
X57177719Y-96974999D02*
X57225338Y-96879761D01*
X57225338Y-96879761D02*
X57272957Y-96832142D01*
X57272957Y-96832142D02*
X57368195Y-96784523D01*
X57368195Y-96784523D02*
X57558671Y-96736904D01*
X57558671Y-96736904D02*
X57796766Y-96736904D01*
X57796766Y-96736904D02*
X57987242Y-96784523D01*
X57987242Y-96784523D02*
X58082480Y-96832142D01*
X58082480Y-96832142D02*
X58130100Y-96879761D01*
X58130100Y-96879761D02*
X58177719Y-96974999D01*
X58177719Y-96974999D02*
X58177719Y-97070237D01*
X58177719Y-97070237D02*
X58130100Y-97165475D01*
X58130100Y-97165475D02*
X58082480Y-97213094D01*
X58082480Y-97213094D02*
X57987242Y-97260713D01*
X57987242Y-97260713D02*
X57796766Y-97308332D01*
X57796766Y-97308332D02*
X57558671Y-97308332D01*
X57558671Y-97308332D02*
X57368195Y-97260713D01*
X57368195Y-97260713D02*
X57272957Y-97213094D01*
X57272957Y-97213094D02*
X57225338Y-97165475D01*
X57225338Y-97165475D02*
X57177719Y-97070237D01*
X58177719Y-96308332D02*
X57177719Y-96308332D01*
X58177719Y-95736904D02*
X57606290Y-96165475D01*
X57177719Y-95736904D02*
X57749147Y-96308332D01*
X44204819Y-98799956D02*
X44204819Y-98704718D01*
X44204819Y-98704718D02*
X44252438Y-98609480D01*
X44252438Y-98609480D02*
X44300057Y-98561861D01*
X44300057Y-98561861D02*
X44395295Y-98514242D01*
X44395295Y-98514242D02*
X44585771Y-98466623D01*
X44585771Y-98466623D02*
X44823866Y-98466623D01*
X44823866Y-98466623D02*
X45014342Y-98514242D01*
X45014342Y-98514242D02*
X45109580Y-98561861D01*
X45109580Y-98561861D02*
X45157200Y-98609480D01*
X45157200Y-98609480D02*
X45204819Y-98704718D01*
X45204819Y-98704718D02*
X45204819Y-98799956D01*
X45204819Y-98799956D02*
X45157200Y-98895194D01*
X45157200Y-98895194D02*
X45109580Y-98942813D01*
X45109580Y-98942813D02*
X45014342Y-98990432D01*
X45014342Y-98990432D02*
X44823866Y-99038051D01*
X44823866Y-99038051D02*
X44585771Y-99038051D01*
X44585771Y-99038051D02*
X44395295Y-98990432D01*
X44395295Y-98990432D02*
X44300057Y-98942813D01*
X44300057Y-98942813D02*
X44252438Y-98895194D01*
X44252438Y-98895194D02*
X44204819Y-98799956D01*
X45109580Y-98038051D02*
X45157200Y-97990432D01*
X45157200Y-97990432D02*
X45204819Y-98038051D01*
X45204819Y-98038051D02*
X45157200Y-98085670D01*
X45157200Y-98085670D02*
X45109580Y-98038051D01*
X45109580Y-98038051D02*
X45204819Y-98038051D01*
X45204819Y-97038052D02*
X45204819Y-97609480D01*
X45204819Y-97323766D02*
X44204819Y-97323766D01*
X44204819Y-97323766D02*
X44347676Y-97419004D01*
X44347676Y-97419004D02*
X44442914Y-97514242D01*
X44442914Y-97514242D02*
X44490533Y-97609480D01*
X44538152Y-96180909D02*
X45204819Y-96180909D01*
X44538152Y-96609480D02*
X45061961Y-96609480D01*
X45061961Y-96609480D02*
X45157200Y-96561861D01*
X45157200Y-96561861D02*
X45204819Y-96466623D01*
X45204819Y-96466623D02*
X45204819Y-96323766D01*
X45204819Y-96323766D02*
X45157200Y-96228528D01*
X45157200Y-96228528D02*
X45109580Y-96180909D01*
X44681009Y-95371385D02*
X44681009Y-95704718D01*
X45204819Y-95704718D02*
X44204819Y-95704718D01*
X44204819Y-95704718D02*
X44204819Y-95228528D01*
X41417719Y-129833332D02*
X40417719Y-129833332D01*
X40417719Y-129833332D02*
X40417719Y-129452380D01*
X40417719Y-129452380D02*
X40465338Y-129357142D01*
X40465338Y-129357142D02*
X40512957Y-129309523D01*
X40512957Y-129309523D02*
X40608195Y-129261904D01*
X40608195Y-129261904D02*
X40751052Y-129261904D01*
X40751052Y-129261904D02*
X40846290Y-129309523D01*
X40846290Y-129309523D02*
X40893909Y-129357142D01*
X40893909Y-129357142D02*
X40941528Y-129452380D01*
X40941528Y-129452380D02*
X40941528Y-129833332D01*
X40417719Y-128928570D02*
X41417719Y-128690475D01*
X41417719Y-128690475D02*
X40703433Y-128499999D01*
X40703433Y-128499999D02*
X41417719Y-128309523D01*
X41417719Y-128309523D02*
X40417719Y-128071428D01*
X41417719Y-127119047D02*
X40941528Y-127452380D01*
X41417719Y-127690475D02*
X40417719Y-127690475D01*
X40417719Y-127690475D02*
X40417719Y-127309523D01*
X40417719Y-127309523D02*
X40465338Y-127214285D01*
X40465338Y-127214285D02*
X40512957Y-127166666D01*
X40512957Y-127166666D02*
X40608195Y-127119047D01*
X40608195Y-127119047D02*
X40751052Y-127119047D01*
X40751052Y-127119047D02*
X40846290Y-127166666D01*
X40846290Y-127166666D02*
X40893909Y-127214285D01*
X40893909Y-127214285D02*
X40941528Y-127309523D01*
X40941528Y-127309523D02*
X40941528Y-127690475D01*
X102357143Y-104954819D02*
X102452381Y-104954819D01*
X102452381Y-104954819D02*
X102547619Y-105002438D01*
X102547619Y-105002438D02*
X102595238Y-105050057D01*
X102595238Y-105050057D02*
X102642857Y-105145295D01*
X102642857Y-105145295D02*
X102690476Y-105335771D01*
X102690476Y-105335771D02*
X102690476Y-105573866D01*
X102690476Y-105573866D02*
X102642857Y-105764342D01*
X102642857Y-105764342D02*
X102595238Y-105859580D01*
X102595238Y-105859580D02*
X102547619Y-105907200D01*
X102547619Y-105907200D02*
X102452381Y-105954819D01*
X102452381Y-105954819D02*
X102357143Y-105954819D01*
X102357143Y-105954819D02*
X102261905Y-105907200D01*
X102261905Y-105907200D02*
X102214286Y-105859580D01*
X102214286Y-105859580D02*
X102166667Y-105764342D01*
X102166667Y-105764342D02*
X102119048Y-105573866D01*
X102119048Y-105573866D02*
X102119048Y-105335771D01*
X102119048Y-105335771D02*
X102166667Y-105145295D01*
X102166667Y-105145295D02*
X102214286Y-105050057D01*
X102214286Y-105050057D02*
X102261905Y-105002438D01*
X102261905Y-105002438D02*
X102357143Y-104954819D01*
X103119048Y-105859580D02*
X103166667Y-105907200D01*
X103166667Y-105907200D02*
X103119048Y-105954819D01*
X103119048Y-105954819D02*
X103071429Y-105907200D01*
X103071429Y-105907200D02*
X103119048Y-105859580D01*
X103119048Y-105859580D02*
X103119048Y-105954819D01*
X104119047Y-105954819D02*
X103547619Y-105954819D01*
X103833333Y-105954819D02*
X103833333Y-104954819D01*
X103833333Y-104954819D02*
X103738095Y-105097676D01*
X103738095Y-105097676D02*
X103642857Y-105192914D01*
X103642857Y-105192914D02*
X103547619Y-105240533D01*
X104976190Y-105288152D02*
X104976190Y-105954819D01*
X104547619Y-105288152D02*
X104547619Y-105811961D01*
X104547619Y-105811961D02*
X104595238Y-105907200D01*
X104595238Y-105907200D02*
X104690476Y-105954819D01*
X104690476Y-105954819D02*
X104833333Y-105954819D01*
X104833333Y-105954819D02*
X104928571Y-105907200D01*
X104928571Y-105907200D02*
X104976190Y-105859580D01*
X105785714Y-105431009D02*
X105452381Y-105431009D01*
X105452381Y-105954819D02*
X105452381Y-104954819D01*
X105452381Y-104954819D02*
X105928571Y-104954819D01*
X118857143Y-61800057D02*
X118904762Y-61752438D01*
X118904762Y-61752438D02*
X119000000Y-61704819D01*
X119000000Y-61704819D02*
X119238095Y-61704819D01*
X119238095Y-61704819D02*
X119333333Y-61752438D01*
X119333333Y-61752438D02*
X119380952Y-61800057D01*
X119380952Y-61800057D02*
X119428571Y-61895295D01*
X119428571Y-61895295D02*
X119428571Y-61990533D01*
X119428571Y-61990533D02*
X119380952Y-62133390D01*
X119380952Y-62133390D02*
X118809524Y-62704819D01*
X118809524Y-62704819D02*
X119428571Y-62704819D01*
X120285714Y-62038152D02*
X120285714Y-62704819D01*
X120047619Y-61657200D02*
X119809524Y-62371485D01*
X119809524Y-62371485D02*
X120428571Y-62371485D01*
X120809524Y-62038152D02*
X120809524Y-63038152D01*
X120809524Y-62085771D02*
X120904762Y-62038152D01*
X120904762Y-62038152D02*
X121095238Y-62038152D01*
X121095238Y-62038152D02*
X121190476Y-62085771D01*
X121190476Y-62085771D02*
X121238095Y-62133390D01*
X121238095Y-62133390D02*
X121285714Y-62228628D01*
X121285714Y-62228628D02*
X121285714Y-62514342D01*
X121285714Y-62514342D02*
X121238095Y-62609580D01*
X121238095Y-62609580D02*
X121190476Y-62657200D01*
X121190476Y-62657200D02*
X121095238Y-62704819D01*
X121095238Y-62704819D02*
X120904762Y-62704819D01*
X120904762Y-62704819D02*
X120809524Y-62657200D01*
X122047619Y-62181009D02*
X121714286Y-62181009D01*
X121714286Y-62704819D02*
X121714286Y-61704819D01*
X121714286Y-61704819D02*
X122190476Y-61704819D01*
X41607143Y-138954819D02*
X41702381Y-138954819D01*
X41702381Y-138954819D02*
X41797619Y-139002438D01*
X41797619Y-139002438D02*
X41845238Y-139050057D01*
X41845238Y-139050057D02*
X41892857Y-139145295D01*
X41892857Y-139145295D02*
X41940476Y-139335771D01*
X41940476Y-139335771D02*
X41940476Y-139573866D01*
X41940476Y-139573866D02*
X41892857Y-139764342D01*
X41892857Y-139764342D02*
X41845238Y-139859580D01*
X41845238Y-139859580D02*
X41797619Y-139907200D01*
X41797619Y-139907200D02*
X41702381Y-139954819D01*
X41702381Y-139954819D02*
X41607143Y-139954819D01*
X41607143Y-139954819D02*
X41511905Y-139907200D01*
X41511905Y-139907200D02*
X41464286Y-139859580D01*
X41464286Y-139859580D02*
X41416667Y-139764342D01*
X41416667Y-139764342D02*
X41369048Y-139573866D01*
X41369048Y-139573866D02*
X41369048Y-139335771D01*
X41369048Y-139335771D02*
X41416667Y-139145295D01*
X41416667Y-139145295D02*
X41464286Y-139050057D01*
X41464286Y-139050057D02*
X41511905Y-139002438D01*
X41511905Y-139002438D02*
X41607143Y-138954819D01*
X42369048Y-139859580D02*
X42416667Y-139907200D01*
X42416667Y-139907200D02*
X42369048Y-139954819D01*
X42369048Y-139954819D02*
X42321429Y-139907200D01*
X42321429Y-139907200D02*
X42369048Y-139859580D01*
X42369048Y-139859580D02*
X42369048Y-139954819D01*
X43369047Y-139954819D02*
X42797619Y-139954819D01*
X43083333Y-139954819D02*
X43083333Y-138954819D01*
X43083333Y-138954819D02*
X42988095Y-139097676D01*
X42988095Y-139097676D02*
X42892857Y-139192914D01*
X42892857Y-139192914D02*
X42797619Y-139240533D01*
X44226190Y-139288152D02*
X44226190Y-139954819D01*
X43797619Y-139288152D02*
X43797619Y-139811961D01*
X43797619Y-139811961D02*
X43845238Y-139907200D01*
X43845238Y-139907200D02*
X43940476Y-139954819D01*
X43940476Y-139954819D02*
X44083333Y-139954819D01*
X44083333Y-139954819D02*
X44178571Y-139907200D01*
X44178571Y-139907200D02*
X44226190Y-139859580D01*
X45035714Y-139431009D02*
X44702381Y-139431009D01*
X44702381Y-139954819D02*
X44702381Y-138954819D01*
X44702381Y-138954819D02*
X45178571Y-138954819D01*
X116912423Y-73979819D02*
X116340995Y-73979819D01*
X116626709Y-73979819D02*
X116626709Y-72979819D01*
X116626709Y-72979819D02*
X116531471Y-73122676D01*
X116531471Y-73122676D02*
X116436233Y-73217914D01*
X116436233Y-73217914D02*
X116340995Y-73265533D01*
X117293376Y-73075057D02*
X117340995Y-73027438D01*
X117340995Y-73027438D02*
X117436233Y-72979819D01*
X117436233Y-72979819D02*
X117674328Y-72979819D01*
X117674328Y-72979819D02*
X117769566Y-73027438D01*
X117769566Y-73027438D02*
X117817185Y-73075057D01*
X117817185Y-73075057D02*
X117864804Y-73170295D01*
X117864804Y-73170295D02*
X117864804Y-73265533D01*
X117864804Y-73265533D02*
X117817185Y-73408390D01*
X117817185Y-73408390D02*
X117245757Y-73979819D01*
X117245757Y-73979819D02*
X117864804Y-73979819D01*
X118293376Y-73979819D02*
X118293376Y-72979819D01*
X118293376Y-72979819D02*
X118626709Y-73694104D01*
X118626709Y-73694104D02*
X118960042Y-72979819D01*
X118960042Y-72979819D02*
X118960042Y-73979819D01*
X119436233Y-73979819D02*
X119436233Y-72979819D01*
X119436233Y-73456009D02*
X120007661Y-73456009D01*
X120007661Y-73979819D02*
X120007661Y-72979819D01*
X120388614Y-73313152D02*
X120912423Y-73313152D01*
X120912423Y-73313152D02*
X120388614Y-73979819D01*
X120388614Y-73979819D02*
X120912423Y-73979819D01*
X114857143Y-61800057D02*
X114904762Y-61752438D01*
X114904762Y-61752438D02*
X115000000Y-61704819D01*
X115000000Y-61704819D02*
X115238095Y-61704819D01*
X115238095Y-61704819D02*
X115333333Y-61752438D01*
X115333333Y-61752438D02*
X115380952Y-61800057D01*
X115380952Y-61800057D02*
X115428571Y-61895295D01*
X115428571Y-61895295D02*
X115428571Y-61990533D01*
X115428571Y-61990533D02*
X115380952Y-62133390D01*
X115380952Y-62133390D02*
X114809524Y-62704819D01*
X114809524Y-62704819D02*
X115428571Y-62704819D01*
X116285714Y-62038152D02*
X116285714Y-62704819D01*
X116047619Y-61657200D02*
X115809524Y-62371485D01*
X115809524Y-62371485D02*
X116428571Y-62371485D01*
X116809524Y-62038152D02*
X116809524Y-63038152D01*
X116809524Y-62085771D02*
X116904762Y-62038152D01*
X116904762Y-62038152D02*
X117095238Y-62038152D01*
X117095238Y-62038152D02*
X117190476Y-62085771D01*
X117190476Y-62085771D02*
X117238095Y-62133390D01*
X117238095Y-62133390D02*
X117285714Y-62228628D01*
X117285714Y-62228628D02*
X117285714Y-62514342D01*
X117285714Y-62514342D02*
X117238095Y-62609580D01*
X117238095Y-62609580D02*
X117190476Y-62657200D01*
X117190476Y-62657200D02*
X117095238Y-62704819D01*
X117095238Y-62704819D02*
X116904762Y-62704819D01*
X116904762Y-62704819D02*
X116809524Y-62657200D01*
X118047619Y-62181009D02*
X117714286Y-62181009D01*
X117714286Y-62704819D02*
X117714286Y-61704819D01*
X117714286Y-61704819D02*
X118190476Y-61704819D01*
X111331919Y-47239047D02*
X111331919Y-47810475D01*
X111331919Y-47524761D02*
X110331919Y-47524761D01*
X110331919Y-47524761D02*
X110474776Y-47619999D01*
X110474776Y-47619999D02*
X110570014Y-47715237D01*
X110570014Y-47715237D02*
X110617633Y-47810475D01*
X110331919Y-46381904D02*
X110331919Y-46572380D01*
X110331919Y-46572380D02*
X110379538Y-46667618D01*
X110379538Y-46667618D02*
X110427157Y-46715237D01*
X110427157Y-46715237D02*
X110570014Y-46810475D01*
X110570014Y-46810475D02*
X110760490Y-46858094D01*
X110760490Y-46858094D02*
X111141442Y-46858094D01*
X111141442Y-46858094D02*
X111236680Y-46810475D01*
X111236680Y-46810475D02*
X111284300Y-46762856D01*
X111284300Y-46762856D02*
X111331919Y-46667618D01*
X111331919Y-46667618D02*
X111331919Y-46477142D01*
X111331919Y-46477142D02*
X111284300Y-46381904D01*
X111284300Y-46381904D02*
X111236680Y-46334285D01*
X111236680Y-46334285D02*
X111141442Y-46286666D01*
X111141442Y-46286666D02*
X110903347Y-46286666D01*
X110903347Y-46286666D02*
X110808109Y-46334285D01*
X110808109Y-46334285D02*
X110760490Y-46381904D01*
X110760490Y-46381904D02*
X110712871Y-46477142D01*
X110712871Y-46477142D02*
X110712871Y-46667618D01*
X110712871Y-46667618D02*
X110760490Y-46762856D01*
X110760490Y-46762856D02*
X110808109Y-46810475D01*
X110808109Y-46810475D02*
X110903347Y-46858094D01*
X110331919Y-45381904D02*
X110331919Y-45858094D01*
X110331919Y-45858094D02*
X110808109Y-45905713D01*
X110808109Y-45905713D02*
X110760490Y-45858094D01*
X110760490Y-45858094D02*
X110712871Y-45762856D01*
X110712871Y-45762856D02*
X110712871Y-45524761D01*
X110712871Y-45524761D02*
X110760490Y-45429523D01*
X110760490Y-45429523D02*
X110808109Y-45381904D01*
X110808109Y-45381904D02*
X110903347Y-45334285D01*
X110903347Y-45334285D02*
X111141442Y-45334285D01*
X111141442Y-45334285D02*
X111236680Y-45381904D01*
X111236680Y-45381904D02*
X111284300Y-45429523D01*
X111284300Y-45429523D02*
X111331919Y-45524761D01*
X111331919Y-45524761D02*
X111331919Y-45762856D01*
X111331919Y-45762856D02*
X111284300Y-45858094D01*
X111284300Y-45858094D02*
X111236680Y-45905713D01*
X110331919Y-44429523D02*
X110331919Y-44905713D01*
X110331919Y-44905713D02*
X110808109Y-44953332D01*
X110808109Y-44953332D02*
X110760490Y-44905713D01*
X110760490Y-44905713D02*
X110712871Y-44810475D01*
X110712871Y-44810475D02*
X110712871Y-44572380D01*
X110712871Y-44572380D02*
X110760490Y-44477142D01*
X110760490Y-44477142D02*
X110808109Y-44429523D01*
X110808109Y-44429523D02*
X110903347Y-44381904D01*
X110903347Y-44381904D02*
X111141442Y-44381904D01*
X111141442Y-44381904D02*
X111236680Y-44429523D01*
X111236680Y-44429523D02*
X111284300Y-44477142D01*
X111284300Y-44477142D02*
X111331919Y-44572380D01*
X111331919Y-44572380D02*
X111331919Y-44810475D01*
X111331919Y-44810475D02*
X111284300Y-44905713D01*
X111284300Y-44905713D02*
X111236680Y-44953332D01*
X110331919Y-43762856D02*
X110331919Y-43667618D01*
X110331919Y-43667618D02*
X110379538Y-43572380D01*
X110379538Y-43572380D02*
X110427157Y-43524761D01*
X110427157Y-43524761D02*
X110522395Y-43477142D01*
X110522395Y-43477142D02*
X110712871Y-43429523D01*
X110712871Y-43429523D02*
X110950966Y-43429523D01*
X110950966Y-43429523D02*
X111141442Y-43477142D01*
X111141442Y-43477142D02*
X111236680Y-43524761D01*
X111236680Y-43524761D02*
X111284300Y-43572380D01*
X111284300Y-43572380D02*
X111331919Y-43667618D01*
X111331919Y-43667618D02*
X111331919Y-43762856D01*
X111331919Y-43762856D02*
X111284300Y-43858094D01*
X111284300Y-43858094D02*
X111236680Y-43905713D01*
X111236680Y-43905713D02*
X111141442Y-43953332D01*
X111141442Y-43953332D02*
X110950966Y-44000951D01*
X110950966Y-44000951D02*
X110712871Y-44000951D01*
X110712871Y-44000951D02*
X110522395Y-43953332D01*
X110522395Y-43953332D02*
X110427157Y-43905713D01*
X110427157Y-43905713D02*
X110379538Y-43858094D01*
X110379538Y-43858094D02*
X110331919Y-43762856D01*
X111677719Y-89391666D02*
X111677719Y-89963094D01*
X111677719Y-89677380D02*
X110677719Y-89677380D01*
X110677719Y-89677380D02*
X110820576Y-89772618D01*
X110820576Y-89772618D02*
X110915814Y-89867856D01*
X110915814Y-89867856D02*
X110963433Y-89963094D01*
X110677719Y-88772618D02*
X110677719Y-88677380D01*
X110677719Y-88677380D02*
X110725338Y-88582142D01*
X110725338Y-88582142D02*
X110772957Y-88534523D01*
X110772957Y-88534523D02*
X110868195Y-88486904D01*
X110868195Y-88486904D02*
X111058671Y-88439285D01*
X111058671Y-88439285D02*
X111296766Y-88439285D01*
X111296766Y-88439285D02*
X111487242Y-88486904D01*
X111487242Y-88486904D02*
X111582480Y-88534523D01*
X111582480Y-88534523D02*
X111630100Y-88582142D01*
X111630100Y-88582142D02*
X111677719Y-88677380D01*
X111677719Y-88677380D02*
X111677719Y-88772618D01*
X111677719Y-88772618D02*
X111630100Y-88867856D01*
X111630100Y-88867856D02*
X111582480Y-88915475D01*
X111582480Y-88915475D02*
X111487242Y-88963094D01*
X111487242Y-88963094D02*
X111296766Y-89010713D01*
X111296766Y-89010713D02*
X111058671Y-89010713D01*
X111058671Y-89010713D02*
X110868195Y-88963094D01*
X110868195Y-88963094D02*
X110772957Y-88915475D01*
X110772957Y-88915475D02*
X110725338Y-88867856D01*
X110725338Y-88867856D02*
X110677719Y-88772618D01*
X110677719Y-87820237D02*
X110677719Y-87724999D01*
X110677719Y-87724999D02*
X110725338Y-87629761D01*
X110725338Y-87629761D02*
X110772957Y-87582142D01*
X110772957Y-87582142D02*
X110868195Y-87534523D01*
X110868195Y-87534523D02*
X111058671Y-87486904D01*
X111058671Y-87486904D02*
X111296766Y-87486904D01*
X111296766Y-87486904D02*
X111487242Y-87534523D01*
X111487242Y-87534523D02*
X111582480Y-87582142D01*
X111582480Y-87582142D02*
X111630100Y-87629761D01*
X111630100Y-87629761D02*
X111677719Y-87724999D01*
X111677719Y-87724999D02*
X111677719Y-87820237D01*
X111677719Y-87820237D02*
X111630100Y-87915475D01*
X111630100Y-87915475D02*
X111582480Y-87963094D01*
X111582480Y-87963094D02*
X111487242Y-88010713D01*
X111487242Y-88010713D02*
X111296766Y-88058332D01*
X111296766Y-88058332D02*
X111058671Y-88058332D01*
X111058671Y-88058332D02*
X110868195Y-88010713D01*
X110868195Y-88010713D02*
X110772957Y-87963094D01*
X110772957Y-87963094D02*
X110725338Y-87915475D01*
X110725338Y-87915475D02*
X110677719Y-87820237D01*
X111677719Y-87058332D02*
X110677719Y-87058332D01*
X111677719Y-86486904D02*
X111106290Y-86915475D01*
X110677719Y-86486904D02*
X111249147Y-87058332D01*
X44204819Y-65372856D02*
X44204819Y-65277618D01*
X44204819Y-65277618D02*
X44252438Y-65182380D01*
X44252438Y-65182380D02*
X44300057Y-65134761D01*
X44300057Y-65134761D02*
X44395295Y-65087142D01*
X44395295Y-65087142D02*
X44585771Y-65039523D01*
X44585771Y-65039523D02*
X44823866Y-65039523D01*
X44823866Y-65039523D02*
X45014342Y-65087142D01*
X45014342Y-65087142D02*
X45109580Y-65134761D01*
X45109580Y-65134761D02*
X45157200Y-65182380D01*
X45157200Y-65182380D02*
X45204819Y-65277618D01*
X45204819Y-65277618D02*
X45204819Y-65372856D01*
X45204819Y-65372856D02*
X45157200Y-65468094D01*
X45157200Y-65468094D02*
X45109580Y-65515713D01*
X45109580Y-65515713D02*
X45014342Y-65563332D01*
X45014342Y-65563332D02*
X44823866Y-65610951D01*
X44823866Y-65610951D02*
X44585771Y-65610951D01*
X44585771Y-65610951D02*
X44395295Y-65563332D01*
X44395295Y-65563332D02*
X44300057Y-65515713D01*
X44300057Y-65515713D02*
X44252438Y-65468094D01*
X44252438Y-65468094D02*
X44204819Y-65372856D01*
X45109580Y-64610951D02*
X45157200Y-64563332D01*
X45157200Y-64563332D02*
X45204819Y-64610951D01*
X45204819Y-64610951D02*
X45157200Y-64658570D01*
X45157200Y-64658570D02*
X45109580Y-64610951D01*
X45109580Y-64610951D02*
X45204819Y-64610951D01*
X45204819Y-63610952D02*
X45204819Y-64182380D01*
X45204819Y-63896666D02*
X44204819Y-63896666D01*
X44204819Y-63896666D02*
X44347676Y-63991904D01*
X44347676Y-63991904D02*
X44442914Y-64087142D01*
X44442914Y-64087142D02*
X44490533Y-64182380D01*
X44538152Y-62753809D02*
X45204819Y-62753809D01*
X44538152Y-63182380D02*
X45061961Y-63182380D01*
X45061961Y-63182380D02*
X45157200Y-63134761D01*
X45157200Y-63134761D02*
X45204819Y-63039523D01*
X45204819Y-63039523D02*
X45204819Y-62896666D01*
X45204819Y-62896666D02*
X45157200Y-62801428D01*
X45157200Y-62801428D02*
X45109580Y-62753809D01*
X44681009Y-61944285D02*
X44681009Y-62277618D01*
X45204819Y-62277618D02*
X44204819Y-62277618D01*
X44204819Y-62277618D02*
X44204819Y-61801428D01*
X104607143Y-65454819D02*
X104702381Y-65454819D01*
X104702381Y-65454819D02*
X104797619Y-65502438D01*
X104797619Y-65502438D02*
X104845238Y-65550057D01*
X104845238Y-65550057D02*
X104892857Y-65645295D01*
X104892857Y-65645295D02*
X104940476Y-65835771D01*
X104940476Y-65835771D02*
X104940476Y-66073866D01*
X104940476Y-66073866D02*
X104892857Y-66264342D01*
X104892857Y-66264342D02*
X104845238Y-66359580D01*
X104845238Y-66359580D02*
X104797619Y-66407200D01*
X104797619Y-66407200D02*
X104702381Y-66454819D01*
X104702381Y-66454819D02*
X104607143Y-66454819D01*
X104607143Y-66454819D02*
X104511905Y-66407200D01*
X104511905Y-66407200D02*
X104464286Y-66359580D01*
X104464286Y-66359580D02*
X104416667Y-66264342D01*
X104416667Y-66264342D02*
X104369048Y-66073866D01*
X104369048Y-66073866D02*
X104369048Y-65835771D01*
X104369048Y-65835771D02*
X104416667Y-65645295D01*
X104416667Y-65645295D02*
X104464286Y-65550057D01*
X104464286Y-65550057D02*
X104511905Y-65502438D01*
X104511905Y-65502438D02*
X104607143Y-65454819D01*
X105369048Y-66359580D02*
X105416667Y-66407200D01*
X105416667Y-66407200D02*
X105369048Y-66454819D01*
X105369048Y-66454819D02*
X105321429Y-66407200D01*
X105321429Y-66407200D02*
X105369048Y-66359580D01*
X105369048Y-66359580D02*
X105369048Y-66454819D01*
X106369047Y-66454819D02*
X105797619Y-66454819D01*
X106083333Y-66454819D02*
X106083333Y-65454819D01*
X106083333Y-65454819D02*
X105988095Y-65597676D01*
X105988095Y-65597676D02*
X105892857Y-65692914D01*
X105892857Y-65692914D02*
X105797619Y-65740533D01*
X107226190Y-65788152D02*
X107226190Y-66454819D01*
X106797619Y-65788152D02*
X106797619Y-66311961D01*
X106797619Y-66311961D02*
X106845238Y-66407200D01*
X106845238Y-66407200D02*
X106940476Y-66454819D01*
X106940476Y-66454819D02*
X107083333Y-66454819D01*
X107083333Y-66454819D02*
X107178571Y-66407200D01*
X107178571Y-66407200D02*
X107226190Y-66359580D01*
X108035714Y-65931009D02*
X107702381Y-65931009D01*
X107702381Y-66454819D02*
X107702381Y-65454819D01*
X107702381Y-65454819D02*
X108178571Y-65454819D01*
X96258614Y-143904819D02*
X96068138Y-143904819D01*
X96068138Y-143904819D02*
X95972900Y-143952438D01*
X95972900Y-143952438D02*
X95925281Y-144000057D01*
X95925281Y-144000057D02*
X95830043Y-144142914D01*
X95830043Y-144142914D02*
X95782424Y-144333390D01*
X95782424Y-144333390D02*
X95782424Y-144714342D01*
X95782424Y-144714342D02*
X95830043Y-144809580D01*
X95830043Y-144809580D02*
X95877662Y-144857200D01*
X95877662Y-144857200D02*
X95972900Y-144904819D01*
X95972900Y-144904819D02*
X96163376Y-144904819D01*
X96163376Y-144904819D02*
X96258614Y-144857200D01*
X96258614Y-144857200D02*
X96306233Y-144809580D01*
X96306233Y-144809580D02*
X96353852Y-144714342D01*
X96353852Y-144714342D02*
X96353852Y-144476247D01*
X96353852Y-144476247D02*
X96306233Y-144381009D01*
X96306233Y-144381009D02*
X96258614Y-144333390D01*
X96258614Y-144333390D02*
X96163376Y-144285771D01*
X96163376Y-144285771D02*
X95972900Y-144285771D01*
X95972900Y-144285771D02*
X95877662Y-144333390D01*
X95877662Y-144333390D02*
X95830043Y-144381009D01*
X95830043Y-144381009D02*
X95782424Y-144476247D01*
X96734805Y-144000057D02*
X96782424Y-143952438D01*
X96782424Y-143952438D02*
X96877662Y-143904819D01*
X96877662Y-143904819D02*
X97115757Y-143904819D01*
X97115757Y-143904819D02*
X97210995Y-143952438D01*
X97210995Y-143952438D02*
X97258614Y-144000057D01*
X97258614Y-144000057D02*
X97306233Y-144095295D01*
X97306233Y-144095295D02*
X97306233Y-144190533D01*
X97306233Y-144190533D02*
X97258614Y-144333390D01*
X97258614Y-144333390D02*
X96687186Y-144904819D01*
X96687186Y-144904819D02*
X97306233Y-144904819D01*
X97687186Y-144000057D02*
X97734805Y-143952438D01*
X97734805Y-143952438D02*
X97830043Y-143904819D01*
X97830043Y-143904819D02*
X98068138Y-143904819D01*
X98068138Y-143904819D02*
X98163376Y-143952438D01*
X98163376Y-143952438D02*
X98210995Y-144000057D01*
X98210995Y-144000057D02*
X98258614Y-144095295D01*
X98258614Y-144095295D02*
X98258614Y-144190533D01*
X98258614Y-144190533D02*
X98210995Y-144333390D01*
X98210995Y-144333390D02*
X97639567Y-144904819D01*
X97639567Y-144904819D02*
X98258614Y-144904819D01*
X99163376Y-143904819D02*
X98687186Y-143904819D01*
X98687186Y-143904819D02*
X98639567Y-144381009D01*
X98639567Y-144381009D02*
X98687186Y-144333390D01*
X98687186Y-144333390D02*
X98782424Y-144285771D01*
X98782424Y-144285771D02*
X99020519Y-144285771D01*
X99020519Y-144285771D02*
X99115757Y-144333390D01*
X99115757Y-144333390D02*
X99163376Y-144381009D01*
X99163376Y-144381009D02*
X99210995Y-144476247D01*
X99210995Y-144476247D02*
X99210995Y-144714342D01*
X99210995Y-144714342D02*
X99163376Y-144809580D01*
X99163376Y-144809580D02*
X99115757Y-144857200D01*
X99115757Y-144857200D02*
X99020519Y-144904819D01*
X99020519Y-144904819D02*
X98782424Y-144904819D01*
X98782424Y-144904819D02*
X98687186Y-144857200D01*
X98687186Y-144857200D02*
X98639567Y-144809580D01*
X100068138Y-143904819D02*
X99877662Y-143904819D01*
X99877662Y-143904819D02*
X99782424Y-143952438D01*
X99782424Y-143952438D02*
X99734805Y-144000057D01*
X99734805Y-144000057D02*
X99639567Y-144142914D01*
X99639567Y-144142914D02*
X99591948Y-144333390D01*
X99591948Y-144333390D02*
X99591948Y-144714342D01*
X99591948Y-144714342D02*
X99639567Y-144809580D01*
X99639567Y-144809580D02*
X99687186Y-144857200D01*
X99687186Y-144857200D02*
X99782424Y-144904819D01*
X99782424Y-144904819D02*
X99972900Y-144904819D01*
X99972900Y-144904819D02*
X100068138Y-144857200D01*
X100068138Y-144857200D02*
X100115757Y-144809580D01*
X100115757Y-144809580D02*
X100163376Y-144714342D01*
X100163376Y-144714342D02*
X100163376Y-144476247D01*
X100163376Y-144476247D02*
X100115757Y-144381009D01*
X100115757Y-144381009D02*
X100068138Y-144333390D01*
X100068138Y-144333390D02*
X99972900Y-144285771D01*
X99972900Y-144285771D02*
X99782424Y-144285771D01*
X99782424Y-144285771D02*
X99687186Y-144333390D01*
X99687186Y-144333390D02*
X99639567Y-144381009D01*
X99639567Y-144381009D02*
X99591948Y-144476247D01*
X78417719Y-29941666D02*
X78417719Y-30513094D01*
X78417719Y-30227380D02*
X77417719Y-30227380D01*
X77417719Y-30227380D02*
X77560576Y-30322618D01*
X77560576Y-30322618D02*
X77655814Y-30417856D01*
X77655814Y-30417856D02*
X77703433Y-30513094D01*
X77417719Y-29322618D02*
X77417719Y-29227380D01*
X77417719Y-29227380D02*
X77465338Y-29132142D01*
X77465338Y-29132142D02*
X77512957Y-29084523D01*
X77512957Y-29084523D02*
X77608195Y-29036904D01*
X77608195Y-29036904D02*
X77798671Y-28989285D01*
X77798671Y-28989285D02*
X78036766Y-28989285D01*
X78036766Y-28989285D02*
X78227242Y-29036904D01*
X78227242Y-29036904D02*
X78322480Y-29084523D01*
X78322480Y-29084523D02*
X78370100Y-29132142D01*
X78370100Y-29132142D02*
X78417719Y-29227380D01*
X78417719Y-29227380D02*
X78417719Y-29322618D01*
X78417719Y-29322618D02*
X78370100Y-29417856D01*
X78370100Y-29417856D02*
X78322480Y-29465475D01*
X78322480Y-29465475D02*
X78227242Y-29513094D01*
X78227242Y-29513094D02*
X78036766Y-29560713D01*
X78036766Y-29560713D02*
X77798671Y-29560713D01*
X77798671Y-29560713D02*
X77608195Y-29513094D01*
X77608195Y-29513094D02*
X77512957Y-29465475D01*
X77512957Y-29465475D02*
X77465338Y-29417856D01*
X77465338Y-29417856D02*
X77417719Y-29322618D01*
X77417719Y-28370237D02*
X77417719Y-28274999D01*
X77417719Y-28274999D02*
X77465338Y-28179761D01*
X77465338Y-28179761D02*
X77512957Y-28132142D01*
X77512957Y-28132142D02*
X77608195Y-28084523D01*
X77608195Y-28084523D02*
X77798671Y-28036904D01*
X77798671Y-28036904D02*
X78036766Y-28036904D01*
X78036766Y-28036904D02*
X78227242Y-28084523D01*
X78227242Y-28084523D02*
X78322480Y-28132142D01*
X78322480Y-28132142D02*
X78370100Y-28179761D01*
X78370100Y-28179761D02*
X78417719Y-28274999D01*
X78417719Y-28274999D02*
X78417719Y-28370237D01*
X78417719Y-28370237D02*
X78370100Y-28465475D01*
X78370100Y-28465475D02*
X78322480Y-28513094D01*
X78322480Y-28513094D02*
X78227242Y-28560713D01*
X78227242Y-28560713D02*
X78036766Y-28608332D01*
X78036766Y-28608332D02*
X77798671Y-28608332D01*
X77798671Y-28608332D02*
X77608195Y-28560713D01*
X77608195Y-28560713D02*
X77512957Y-28513094D01*
X77512957Y-28513094D02*
X77465338Y-28465475D01*
X77465338Y-28465475D02*
X77417719Y-28370237D01*
X78417719Y-27608332D02*
X77417719Y-27608332D01*
X78417719Y-27036904D02*
X77846290Y-27465475D01*
X77417719Y-27036904D02*
X77989147Y-27608332D01*
X116954819Y-51142856D02*
X116954819Y-51047618D01*
X116954819Y-51047618D02*
X117002438Y-50952380D01*
X117002438Y-50952380D02*
X117050057Y-50904761D01*
X117050057Y-50904761D02*
X117145295Y-50857142D01*
X117145295Y-50857142D02*
X117335771Y-50809523D01*
X117335771Y-50809523D02*
X117573866Y-50809523D01*
X117573866Y-50809523D02*
X117764342Y-50857142D01*
X117764342Y-50857142D02*
X117859580Y-50904761D01*
X117859580Y-50904761D02*
X117907200Y-50952380D01*
X117907200Y-50952380D02*
X117954819Y-51047618D01*
X117954819Y-51047618D02*
X117954819Y-51142856D01*
X117954819Y-51142856D02*
X117907200Y-51238094D01*
X117907200Y-51238094D02*
X117859580Y-51285713D01*
X117859580Y-51285713D02*
X117764342Y-51333332D01*
X117764342Y-51333332D02*
X117573866Y-51380951D01*
X117573866Y-51380951D02*
X117335771Y-51380951D01*
X117335771Y-51380951D02*
X117145295Y-51333332D01*
X117145295Y-51333332D02*
X117050057Y-51285713D01*
X117050057Y-51285713D02*
X117002438Y-51238094D01*
X117002438Y-51238094D02*
X116954819Y-51142856D01*
X117859580Y-50380951D02*
X117907200Y-50333332D01*
X117907200Y-50333332D02*
X117954819Y-50380951D01*
X117954819Y-50380951D02*
X117907200Y-50428570D01*
X117907200Y-50428570D02*
X117859580Y-50380951D01*
X117859580Y-50380951D02*
X117954819Y-50380951D01*
X117954819Y-49380952D02*
X117954819Y-49952380D01*
X117954819Y-49666666D02*
X116954819Y-49666666D01*
X116954819Y-49666666D02*
X117097676Y-49761904D01*
X117097676Y-49761904D02*
X117192914Y-49857142D01*
X117192914Y-49857142D02*
X117240533Y-49952380D01*
X117288152Y-48523809D02*
X117954819Y-48523809D01*
X117288152Y-48952380D02*
X117811961Y-48952380D01*
X117811961Y-48952380D02*
X117907200Y-48904761D01*
X117907200Y-48904761D02*
X117954819Y-48809523D01*
X117954819Y-48809523D02*
X117954819Y-48666666D01*
X117954819Y-48666666D02*
X117907200Y-48571428D01*
X117907200Y-48571428D02*
X117859580Y-48523809D01*
X117431009Y-47714285D02*
X117431009Y-48047618D01*
X117954819Y-48047618D02*
X116954819Y-48047618D01*
X116954819Y-48047618D02*
X116954819Y-47571428D01*
X47954819Y-26071428D02*
X47954819Y-26642856D01*
X47954819Y-26357142D02*
X46954819Y-26357142D01*
X46954819Y-26357142D02*
X47097676Y-26452380D01*
X47097676Y-26452380D02*
X47192914Y-26547618D01*
X47192914Y-26547618D02*
X47240533Y-26642856D01*
X47383390Y-25499999D02*
X47335771Y-25595237D01*
X47335771Y-25595237D02*
X47288152Y-25642856D01*
X47288152Y-25642856D02*
X47192914Y-25690475D01*
X47192914Y-25690475D02*
X47145295Y-25690475D01*
X47145295Y-25690475D02*
X47050057Y-25642856D01*
X47050057Y-25642856D02*
X47002438Y-25595237D01*
X47002438Y-25595237D02*
X46954819Y-25499999D01*
X46954819Y-25499999D02*
X46954819Y-25309523D01*
X46954819Y-25309523D02*
X47002438Y-25214285D01*
X47002438Y-25214285D02*
X47050057Y-25166666D01*
X47050057Y-25166666D02*
X47145295Y-25119047D01*
X47145295Y-25119047D02*
X47192914Y-25119047D01*
X47192914Y-25119047D02*
X47288152Y-25166666D01*
X47288152Y-25166666D02*
X47335771Y-25214285D01*
X47335771Y-25214285D02*
X47383390Y-25309523D01*
X47383390Y-25309523D02*
X47383390Y-25499999D01*
X47383390Y-25499999D02*
X47431009Y-25595237D01*
X47431009Y-25595237D02*
X47478628Y-25642856D01*
X47478628Y-25642856D02*
X47573866Y-25690475D01*
X47573866Y-25690475D02*
X47764342Y-25690475D01*
X47764342Y-25690475D02*
X47859580Y-25642856D01*
X47859580Y-25642856D02*
X47907200Y-25595237D01*
X47907200Y-25595237D02*
X47954819Y-25499999D01*
X47954819Y-25499999D02*
X47954819Y-25309523D01*
X47954819Y-25309523D02*
X47907200Y-25214285D01*
X47907200Y-25214285D02*
X47859580Y-25166666D01*
X47859580Y-25166666D02*
X47764342Y-25119047D01*
X47764342Y-25119047D02*
X47573866Y-25119047D01*
X47573866Y-25119047D02*
X47478628Y-25166666D01*
X47478628Y-25166666D02*
X47431009Y-25214285D01*
X47431009Y-25214285D02*
X47383390Y-25309523D01*
X47288152Y-24690475D02*
X48288152Y-24690475D01*
X47335771Y-24690475D02*
X47288152Y-24595237D01*
X47288152Y-24595237D02*
X47288152Y-24404761D01*
X47288152Y-24404761D02*
X47335771Y-24309523D01*
X47335771Y-24309523D02*
X47383390Y-24261904D01*
X47383390Y-24261904D02*
X47478628Y-24214285D01*
X47478628Y-24214285D02*
X47764342Y-24214285D01*
X47764342Y-24214285D02*
X47859580Y-24261904D01*
X47859580Y-24261904D02*
X47907200Y-24309523D01*
X47907200Y-24309523D02*
X47954819Y-24404761D01*
X47954819Y-24404761D02*
X47954819Y-24595237D01*
X47954819Y-24595237D02*
X47907200Y-24690475D01*
X47431009Y-23452380D02*
X47431009Y-23785713D01*
X47954819Y-23785713D02*
X46954819Y-23785713D01*
X46954819Y-23785713D02*
X46954819Y-23309523D01*
X44704819Y-33142856D02*
X44704819Y-33047618D01*
X44704819Y-33047618D02*
X44752438Y-32952380D01*
X44752438Y-32952380D02*
X44800057Y-32904761D01*
X44800057Y-32904761D02*
X44895295Y-32857142D01*
X44895295Y-32857142D02*
X45085771Y-32809523D01*
X45085771Y-32809523D02*
X45323866Y-32809523D01*
X45323866Y-32809523D02*
X45514342Y-32857142D01*
X45514342Y-32857142D02*
X45609580Y-32904761D01*
X45609580Y-32904761D02*
X45657200Y-32952380D01*
X45657200Y-32952380D02*
X45704819Y-33047618D01*
X45704819Y-33047618D02*
X45704819Y-33142856D01*
X45704819Y-33142856D02*
X45657200Y-33238094D01*
X45657200Y-33238094D02*
X45609580Y-33285713D01*
X45609580Y-33285713D02*
X45514342Y-33333332D01*
X45514342Y-33333332D02*
X45323866Y-33380951D01*
X45323866Y-33380951D02*
X45085771Y-33380951D01*
X45085771Y-33380951D02*
X44895295Y-33333332D01*
X44895295Y-33333332D02*
X44800057Y-33285713D01*
X44800057Y-33285713D02*
X44752438Y-33238094D01*
X44752438Y-33238094D02*
X44704819Y-33142856D01*
X45609580Y-32380951D02*
X45657200Y-32333332D01*
X45657200Y-32333332D02*
X45704819Y-32380951D01*
X45704819Y-32380951D02*
X45657200Y-32428570D01*
X45657200Y-32428570D02*
X45609580Y-32380951D01*
X45609580Y-32380951D02*
X45704819Y-32380951D01*
X45704819Y-31380952D02*
X45704819Y-31952380D01*
X45704819Y-31666666D02*
X44704819Y-31666666D01*
X44704819Y-31666666D02*
X44847676Y-31761904D01*
X44847676Y-31761904D02*
X44942914Y-31857142D01*
X44942914Y-31857142D02*
X44990533Y-31952380D01*
X45038152Y-30523809D02*
X45704819Y-30523809D01*
X45038152Y-30952380D02*
X45561961Y-30952380D01*
X45561961Y-30952380D02*
X45657200Y-30904761D01*
X45657200Y-30904761D02*
X45704819Y-30809523D01*
X45704819Y-30809523D02*
X45704819Y-30666666D01*
X45704819Y-30666666D02*
X45657200Y-30571428D01*
X45657200Y-30571428D02*
X45609580Y-30523809D01*
X45181009Y-29714285D02*
X45181009Y-30047618D01*
X45704819Y-30047618D02*
X44704819Y-30047618D01*
X44704819Y-30047618D02*
X44704819Y-29571428D01*
X43154761Y-146454819D02*
X42583333Y-146454819D01*
X42869047Y-146454819D02*
X42869047Y-145454819D01*
X42869047Y-145454819D02*
X42773809Y-145597676D01*
X42773809Y-145597676D02*
X42678571Y-145692914D01*
X42678571Y-145692914D02*
X42583333Y-145740533D01*
X44011904Y-145788152D02*
X44011904Y-146454819D01*
X43583333Y-145788152D02*
X43583333Y-146311961D01*
X43583333Y-146311961D02*
X43630952Y-146407200D01*
X43630952Y-146407200D02*
X43726190Y-146454819D01*
X43726190Y-146454819D02*
X43869047Y-146454819D01*
X43869047Y-146454819D02*
X43964285Y-146407200D01*
X43964285Y-146407200D02*
X44011904Y-146359580D01*
X44821428Y-145931009D02*
X44488095Y-145931009D01*
X44488095Y-146454819D02*
X44488095Y-145454819D01*
X44488095Y-145454819D02*
X44964285Y-145454819D01*
X35336233Y-87824819D02*
X36002899Y-87824819D01*
X36002899Y-87824819D02*
X35574328Y-88824819D01*
X36812423Y-88158152D02*
X36812423Y-88824819D01*
X36574328Y-87777200D02*
X36336233Y-88491485D01*
X36336233Y-88491485D02*
X36955280Y-88491485D01*
X37336233Y-88824819D02*
X37336233Y-87824819D01*
X37336233Y-88301009D02*
X37907661Y-88301009D01*
X37907661Y-88824819D02*
X37907661Y-87824819D01*
X38955280Y-88729580D02*
X38907661Y-88777200D01*
X38907661Y-88777200D02*
X38764804Y-88824819D01*
X38764804Y-88824819D02*
X38669566Y-88824819D01*
X38669566Y-88824819D02*
X38526709Y-88777200D01*
X38526709Y-88777200D02*
X38431471Y-88681961D01*
X38431471Y-88681961D02*
X38383852Y-88586723D01*
X38383852Y-88586723D02*
X38336233Y-88396247D01*
X38336233Y-88396247D02*
X38336233Y-88253390D01*
X38336233Y-88253390D02*
X38383852Y-88062914D01*
X38383852Y-88062914D02*
X38431471Y-87967676D01*
X38431471Y-87967676D02*
X38526709Y-87872438D01*
X38526709Y-87872438D02*
X38669566Y-87824819D01*
X38669566Y-87824819D02*
X38764804Y-87824819D01*
X38764804Y-87824819D02*
X38907661Y-87872438D01*
X38907661Y-87872438D02*
X38955280Y-87920057D01*
X39240995Y-87824819D02*
X39812423Y-87824819D01*
X39526709Y-88824819D02*
X39526709Y-87824819D01*
X40050519Y-87824819D02*
X40669566Y-87824819D01*
X40669566Y-87824819D02*
X40336233Y-88205771D01*
X40336233Y-88205771D02*
X40479090Y-88205771D01*
X40479090Y-88205771D02*
X40574328Y-88253390D01*
X40574328Y-88253390D02*
X40621947Y-88301009D01*
X40621947Y-88301009D02*
X40669566Y-88396247D01*
X40669566Y-88396247D02*
X40669566Y-88634342D01*
X40669566Y-88634342D02*
X40621947Y-88729580D01*
X40621947Y-88729580D02*
X40574328Y-88777200D01*
X40574328Y-88777200D02*
X40479090Y-88824819D01*
X40479090Y-88824819D02*
X40193376Y-88824819D01*
X40193376Y-88824819D02*
X40098138Y-88777200D01*
X40098138Y-88777200D02*
X40050519Y-88729580D01*
X41050519Y-87920057D02*
X41098138Y-87872438D01*
X41098138Y-87872438D02*
X41193376Y-87824819D01*
X41193376Y-87824819D02*
X41431471Y-87824819D01*
X41431471Y-87824819D02*
X41526709Y-87872438D01*
X41526709Y-87872438D02*
X41574328Y-87920057D01*
X41574328Y-87920057D02*
X41621947Y-88015295D01*
X41621947Y-88015295D02*
X41621947Y-88110533D01*
X41621947Y-88110533D02*
X41574328Y-88253390D01*
X41574328Y-88253390D02*
X41002900Y-88824819D01*
X41002900Y-88824819D02*
X41621947Y-88824819D01*
X62864804Y-23979819D02*
X62293376Y-23979819D01*
X62579090Y-23979819D02*
X62579090Y-22979819D01*
X62579090Y-22979819D02*
X62483852Y-23122676D01*
X62483852Y-23122676D02*
X62388614Y-23217914D01*
X62388614Y-23217914D02*
X62293376Y-23265533D01*
X63293376Y-23884580D02*
X63340995Y-23932200D01*
X63340995Y-23932200D02*
X63293376Y-23979819D01*
X63293376Y-23979819D02*
X63245757Y-23932200D01*
X63245757Y-23932200D02*
X63293376Y-23884580D01*
X63293376Y-23884580D02*
X63293376Y-23979819D01*
X63912423Y-23408390D02*
X63817185Y-23360771D01*
X63817185Y-23360771D02*
X63769566Y-23313152D01*
X63769566Y-23313152D02*
X63721947Y-23217914D01*
X63721947Y-23217914D02*
X63721947Y-23170295D01*
X63721947Y-23170295D02*
X63769566Y-23075057D01*
X63769566Y-23075057D02*
X63817185Y-23027438D01*
X63817185Y-23027438D02*
X63912423Y-22979819D01*
X63912423Y-22979819D02*
X64102899Y-22979819D01*
X64102899Y-22979819D02*
X64198137Y-23027438D01*
X64198137Y-23027438D02*
X64245756Y-23075057D01*
X64245756Y-23075057D02*
X64293375Y-23170295D01*
X64293375Y-23170295D02*
X64293375Y-23217914D01*
X64293375Y-23217914D02*
X64245756Y-23313152D01*
X64245756Y-23313152D02*
X64198137Y-23360771D01*
X64198137Y-23360771D02*
X64102899Y-23408390D01*
X64102899Y-23408390D02*
X63912423Y-23408390D01*
X63912423Y-23408390D02*
X63817185Y-23456009D01*
X63817185Y-23456009D02*
X63769566Y-23503628D01*
X63769566Y-23503628D02*
X63721947Y-23598866D01*
X63721947Y-23598866D02*
X63721947Y-23789342D01*
X63721947Y-23789342D02*
X63769566Y-23884580D01*
X63769566Y-23884580D02*
X63817185Y-23932200D01*
X63817185Y-23932200D02*
X63912423Y-23979819D01*
X63912423Y-23979819D02*
X64102899Y-23979819D01*
X64102899Y-23979819D02*
X64198137Y-23932200D01*
X64198137Y-23932200D02*
X64245756Y-23884580D01*
X64245756Y-23884580D02*
X64293375Y-23789342D01*
X64293375Y-23789342D02*
X64293375Y-23598866D01*
X64293375Y-23598866D02*
X64245756Y-23503628D01*
X64245756Y-23503628D02*
X64198137Y-23456009D01*
X64198137Y-23456009D02*
X64102899Y-23408390D01*
X65150518Y-23313152D02*
X65150518Y-23979819D01*
X64912423Y-22932200D02*
X64674328Y-23646485D01*
X64674328Y-23646485D02*
X65293375Y-23646485D01*
X65579090Y-22979819D02*
X66198137Y-22979819D01*
X66198137Y-22979819D02*
X65864804Y-23360771D01*
X65864804Y-23360771D02*
X66007661Y-23360771D01*
X66007661Y-23360771D02*
X66102899Y-23408390D01*
X66102899Y-23408390D02*
X66150518Y-23456009D01*
X66150518Y-23456009D02*
X66198137Y-23551247D01*
X66198137Y-23551247D02*
X66198137Y-23789342D01*
X66198137Y-23789342D02*
X66150518Y-23884580D01*
X66150518Y-23884580D02*
X66102899Y-23932200D01*
X66102899Y-23932200D02*
X66007661Y-23979819D01*
X66007661Y-23979819D02*
X65721947Y-23979819D01*
X65721947Y-23979819D02*
X65626709Y-23932200D01*
X65626709Y-23932200D02*
X65579090Y-23884580D01*
X66579090Y-23075057D02*
X66626709Y-23027438D01*
X66626709Y-23027438D02*
X66721947Y-22979819D01*
X66721947Y-22979819D02*
X66960042Y-22979819D01*
X66960042Y-22979819D02*
X67055280Y-23027438D01*
X67055280Y-23027438D02*
X67102899Y-23075057D01*
X67102899Y-23075057D02*
X67150518Y-23170295D01*
X67150518Y-23170295D02*
X67150518Y-23265533D01*
X67150518Y-23265533D02*
X67102899Y-23408390D01*
X67102899Y-23408390D02*
X66531471Y-23979819D01*
X66531471Y-23979819D02*
X67150518Y-23979819D01*
X68340995Y-23979819D02*
X68340995Y-22979819D01*
X68340995Y-22979819D02*
X68674328Y-23694104D01*
X68674328Y-23694104D02*
X69007661Y-22979819D01*
X69007661Y-22979819D02*
X69007661Y-23979819D01*
X69483852Y-23979819D02*
X69483852Y-22979819D01*
X69483852Y-23456009D02*
X70055280Y-23456009D01*
X70055280Y-23979819D02*
X70055280Y-22979819D01*
X70436233Y-23313152D02*
X70960042Y-23313152D01*
X70960042Y-23313152D02*
X70436233Y-23979819D01*
X70436233Y-23979819D02*
X70960042Y-23979819D01*
X57917719Y-22560714D02*
X57917719Y-23132142D01*
X57917719Y-22846428D02*
X56917719Y-22846428D01*
X56917719Y-22846428D02*
X57060576Y-22941666D01*
X57060576Y-22941666D02*
X57155814Y-23036904D01*
X57155814Y-23036904D02*
X57203433Y-23132142D01*
X57917719Y-22132142D02*
X56917719Y-22132142D01*
X56917719Y-22132142D02*
X57632004Y-21798809D01*
X57632004Y-21798809D02*
X56917719Y-21465476D01*
X56917719Y-21465476D02*
X57917719Y-21465476D01*
X113680043Y-32454819D02*
X113775281Y-32454819D01*
X113775281Y-32454819D02*
X113870519Y-32502438D01*
X113870519Y-32502438D02*
X113918138Y-32550057D01*
X113918138Y-32550057D02*
X113965757Y-32645295D01*
X113965757Y-32645295D02*
X114013376Y-32835771D01*
X114013376Y-32835771D02*
X114013376Y-33073866D01*
X114013376Y-33073866D02*
X113965757Y-33264342D01*
X113965757Y-33264342D02*
X113918138Y-33359580D01*
X113918138Y-33359580D02*
X113870519Y-33407200D01*
X113870519Y-33407200D02*
X113775281Y-33454819D01*
X113775281Y-33454819D02*
X113680043Y-33454819D01*
X113680043Y-33454819D02*
X113584805Y-33407200D01*
X113584805Y-33407200D02*
X113537186Y-33359580D01*
X113537186Y-33359580D02*
X113489567Y-33264342D01*
X113489567Y-33264342D02*
X113441948Y-33073866D01*
X113441948Y-33073866D02*
X113441948Y-32835771D01*
X113441948Y-32835771D02*
X113489567Y-32645295D01*
X113489567Y-32645295D02*
X113537186Y-32550057D01*
X113537186Y-32550057D02*
X113584805Y-32502438D01*
X113584805Y-32502438D02*
X113680043Y-32454819D01*
X114441948Y-33359580D02*
X114489567Y-33407200D01*
X114489567Y-33407200D02*
X114441948Y-33454819D01*
X114441948Y-33454819D02*
X114394329Y-33407200D01*
X114394329Y-33407200D02*
X114441948Y-33359580D01*
X114441948Y-33359580D02*
X114441948Y-33454819D01*
X115441947Y-33454819D02*
X114870519Y-33454819D01*
X115156233Y-33454819D02*
X115156233Y-32454819D01*
X115156233Y-32454819D02*
X115060995Y-32597676D01*
X115060995Y-32597676D02*
X114965757Y-32692914D01*
X114965757Y-32692914D02*
X114870519Y-32740533D01*
X116299090Y-32788152D02*
X116299090Y-33454819D01*
X115870519Y-32788152D02*
X115870519Y-33311961D01*
X115870519Y-33311961D02*
X115918138Y-33407200D01*
X115918138Y-33407200D02*
X116013376Y-33454819D01*
X116013376Y-33454819D02*
X116156233Y-33454819D01*
X116156233Y-33454819D02*
X116251471Y-33407200D01*
X116251471Y-33407200D02*
X116299090Y-33359580D01*
X117108614Y-32931009D02*
X116775281Y-32931009D01*
X116775281Y-33454819D02*
X116775281Y-32454819D01*
X116775281Y-32454819D02*
X117251471Y-32454819D01*
X111917719Y-62691666D02*
X111917719Y-63263094D01*
X111917719Y-62977380D02*
X110917719Y-62977380D01*
X110917719Y-62977380D02*
X111060576Y-63072618D01*
X111060576Y-63072618D02*
X111155814Y-63167856D01*
X111155814Y-63167856D02*
X111203433Y-63263094D01*
X110917719Y-62072618D02*
X110917719Y-61977380D01*
X110917719Y-61977380D02*
X110965338Y-61882142D01*
X110965338Y-61882142D02*
X111012957Y-61834523D01*
X111012957Y-61834523D02*
X111108195Y-61786904D01*
X111108195Y-61786904D02*
X111298671Y-61739285D01*
X111298671Y-61739285D02*
X111536766Y-61739285D01*
X111536766Y-61739285D02*
X111727242Y-61786904D01*
X111727242Y-61786904D02*
X111822480Y-61834523D01*
X111822480Y-61834523D02*
X111870100Y-61882142D01*
X111870100Y-61882142D02*
X111917719Y-61977380D01*
X111917719Y-61977380D02*
X111917719Y-62072618D01*
X111917719Y-62072618D02*
X111870100Y-62167856D01*
X111870100Y-62167856D02*
X111822480Y-62215475D01*
X111822480Y-62215475D02*
X111727242Y-62263094D01*
X111727242Y-62263094D02*
X111536766Y-62310713D01*
X111536766Y-62310713D02*
X111298671Y-62310713D01*
X111298671Y-62310713D02*
X111108195Y-62263094D01*
X111108195Y-62263094D02*
X111012957Y-62215475D01*
X111012957Y-62215475D02*
X110965338Y-62167856D01*
X110965338Y-62167856D02*
X110917719Y-62072618D01*
X110917719Y-61120237D02*
X110917719Y-61024999D01*
X110917719Y-61024999D02*
X110965338Y-60929761D01*
X110965338Y-60929761D02*
X111012957Y-60882142D01*
X111012957Y-60882142D02*
X111108195Y-60834523D01*
X111108195Y-60834523D02*
X111298671Y-60786904D01*
X111298671Y-60786904D02*
X111536766Y-60786904D01*
X111536766Y-60786904D02*
X111727242Y-60834523D01*
X111727242Y-60834523D02*
X111822480Y-60882142D01*
X111822480Y-60882142D02*
X111870100Y-60929761D01*
X111870100Y-60929761D02*
X111917719Y-61024999D01*
X111917719Y-61024999D02*
X111917719Y-61120237D01*
X111917719Y-61120237D02*
X111870100Y-61215475D01*
X111870100Y-61215475D02*
X111822480Y-61263094D01*
X111822480Y-61263094D02*
X111727242Y-61310713D01*
X111727242Y-61310713D02*
X111536766Y-61358332D01*
X111536766Y-61358332D02*
X111298671Y-61358332D01*
X111298671Y-61358332D02*
X111108195Y-61310713D01*
X111108195Y-61310713D02*
X111012957Y-61263094D01*
X111012957Y-61263094D02*
X110965338Y-61215475D01*
X110965338Y-61215475D02*
X110917719Y-61120237D01*
X111917719Y-60358332D02*
X110917719Y-60358332D01*
X111917719Y-59786904D02*
X111346290Y-60215475D01*
X110917719Y-59786904D02*
X111489147Y-60358332D01*
X64090043Y-143944819D02*
X64709090Y-143944819D01*
X64709090Y-143944819D02*
X64375757Y-144325771D01*
X64375757Y-144325771D02*
X64518614Y-144325771D01*
X64518614Y-144325771D02*
X64613852Y-144373390D01*
X64613852Y-144373390D02*
X64661471Y-144421009D01*
X64661471Y-144421009D02*
X64709090Y-144516247D01*
X64709090Y-144516247D02*
X64709090Y-144754342D01*
X64709090Y-144754342D02*
X64661471Y-144849580D01*
X64661471Y-144849580D02*
X64613852Y-144897200D01*
X64613852Y-144897200D02*
X64518614Y-144944819D01*
X64518614Y-144944819D02*
X64232900Y-144944819D01*
X64232900Y-144944819D02*
X64137662Y-144897200D01*
X64137662Y-144897200D02*
X64090043Y-144849580D01*
X65185281Y-144944819D02*
X65375757Y-144944819D01*
X65375757Y-144944819D02*
X65470995Y-144897200D01*
X65470995Y-144897200D02*
X65518614Y-144849580D01*
X65518614Y-144849580D02*
X65613852Y-144706723D01*
X65613852Y-144706723D02*
X65661471Y-144516247D01*
X65661471Y-144516247D02*
X65661471Y-144135295D01*
X65661471Y-144135295D02*
X65613852Y-144040057D01*
X65613852Y-144040057D02*
X65566233Y-143992438D01*
X65566233Y-143992438D02*
X65470995Y-143944819D01*
X65470995Y-143944819D02*
X65280519Y-143944819D01*
X65280519Y-143944819D02*
X65185281Y-143992438D01*
X65185281Y-143992438D02*
X65137662Y-144040057D01*
X65137662Y-144040057D02*
X65090043Y-144135295D01*
X65090043Y-144135295D02*
X65090043Y-144373390D01*
X65090043Y-144373390D02*
X65137662Y-144468628D01*
X65137662Y-144468628D02*
X65185281Y-144516247D01*
X65185281Y-144516247D02*
X65280519Y-144563866D01*
X65280519Y-144563866D02*
X65470995Y-144563866D01*
X65470995Y-144563866D02*
X65566233Y-144516247D01*
X65566233Y-144516247D02*
X65613852Y-144468628D01*
X65613852Y-144468628D02*
X65661471Y-144373390D01*
X66423376Y-144421009D02*
X66090043Y-144421009D01*
X66090043Y-144944819D02*
X66090043Y-143944819D01*
X66090043Y-143944819D02*
X66566233Y-143944819D01*
X66899567Y-144897200D02*
X67042424Y-144944819D01*
X67042424Y-144944819D02*
X67280519Y-144944819D01*
X67280519Y-144944819D02*
X67375757Y-144897200D01*
X67375757Y-144897200D02*
X67423376Y-144849580D01*
X67423376Y-144849580D02*
X67470995Y-144754342D01*
X67470995Y-144754342D02*
X67470995Y-144659104D01*
X67470995Y-144659104D02*
X67423376Y-144563866D01*
X67423376Y-144563866D02*
X67375757Y-144516247D01*
X67375757Y-144516247D02*
X67280519Y-144468628D01*
X67280519Y-144468628D02*
X67090043Y-144421009D01*
X67090043Y-144421009D02*
X66994805Y-144373390D01*
X66994805Y-144373390D02*
X66947186Y-144325771D01*
X66947186Y-144325771D02*
X66899567Y-144230533D01*
X66899567Y-144230533D02*
X66899567Y-144135295D01*
X66899567Y-144135295D02*
X66947186Y-144040057D01*
X66947186Y-144040057D02*
X66994805Y-143992438D01*
X66994805Y-143992438D02*
X67090043Y-143944819D01*
X67090043Y-143944819D02*
X67328138Y-143944819D01*
X67328138Y-143944819D02*
X67470995Y-143992438D01*
X68090043Y-143944819D02*
X68185281Y-143944819D01*
X68185281Y-143944819D02*
X68280519Y-143992438D01*
X68280519Y-143992438D02*
X68328138Y-144040057D01*
X68328138Y-144040057D02*
X68375757Y-144135295D01*
X68375757Y-144135295D02*
X68423376Y-144325771D01*
X68423376Y-144325771D02*
X68423376Y-144563866D01*
X68423376Y-144563866D02*
X68375757Y-144754342D01*
X68375757Y-144754342D02*
X68328138Y-144849580D01*
X68328138Y-144849580D02*
X68280519Y-144897200D01*
X68280519Y-144897200D02*
X68185281Y-144944819D01*
X68185281Y-144944819D02*
X68090043Y-144944819D01*
X68090043Y-144944819D02*
X67994805Y-144897200D01*
X67994805Y-144897200D02*
X67947186Y-144849580D01*
X67947186Y-144849580D02*
X67899567Y-144754342D01*
X67899567Y-144754342D02*
X67851948Y-144563866D01*
X67851948Y-144563866D02*
X67851948Y-144325771D01*
X67851948Y-144325771D02*
X67899567Y-144135295D01*
X67899567Y-144135295D02*
X67947186Y-144040057D01*
X67947186Y-144040057D02*
X67994805Y-143992438D01*
X67994805Y-143992438D02*
X68090043Y-143944819D01*
X69375757Y-144944819D02*
X68804329Y-144944819D01*
X69090043Y-144944819D02*
X69090043Y-143944819D01*
X69090043Y-143944819D02*
X68994805Y-144087676D01*
X68994805Y-144087676D02*
X68899567Y-144182914D01*
X68899567Y-144182914D02*
X68804329Y-144230533D01*
X69994805Y-143944819D02*
X70090043Y-143944819D01*
X70090043Y-143944819D02*
X70185281Y-143992438D01*
X70185281Y-143992438D02*
X70232900Y-144040057D01*
X70232900Y-144040057D02*
X70280519Y-144135295D01*
X70280519Y-144135295D02*
X70328138Y-144325771D01*
X70328138Y-144325771D02*
X70328138Y-144563866D01*
X70328138Y-144563866D02*
X70280519Y-144754342D01*
X70280519Y-144754342D02*
X70232900Y-144849580D01*
X70232900Y-144849580D02*
X70185281Y-144897200D01*
X70185281Y-144897200D02*
X70090043Y-144944819D01*
X70090043Y-144944819D02*
X69994805Y-144944819D01*
X69994805Y-144944819D02*
X69899567Y-144897200D01*
X69899567Y-144897200D02*
X69851948Y-144849580D01*
X69851948Y-144849580D02*
X69804329Y-144754342D01*
X69804329Y-144754342D02*
X69756710Y-144563866D01*
X69756710Y-144563866D02*
X69756710Y-144325771D01*
X69756710Y-144325771D02*
X69804329Y-144135295D01*
X69804329Y-144135295D02*
X69851948Y-144040057D01*
X69851948Y-144040057D02*
X69899567Y-143992438D01*
X69899567Y-143992438D02*
X69994805Y-143944819D01*
X40880952Y-133454819D02*
X40976190Y-133454819D01*
X40976190Y-133454819D02*
X41071428Y-133502438D01*
X41071428Y-133502438D02*
X41119047Y-133550057D01*
X41119047Y-133550057D02*
X41166666Y-133645295D01*
X41166666Y-133645295D02*
X41214285Y-133835771D01*
X41214285Y-133835771D02*
X41214285Y-134073866D01*
X41214285Y-134073866D02*
X41166666Y-134264342D01*
X41166666Y-134264342D02*
X41119047Y-134359580D01*
X41119047Y-134359580D02*
X41071428Y-134407200D01*
X41071428Y-134407200D02*
X40976190Y-134454819D01*
X40976190Y-134454819D02*
X40880952Y-134454819D01*
X40880952Y-134454819D02*
X40785714Y-134407200D01*
X40785714Y-134407200D02*
X40738095Y-134359580D01*
X40738095Y-134359580D02*
X40690476Y-134264342D01*
X40690476Y-134264342D02*
X40642857Y-134073866D01*
X40642857Y-134073866D02*
X40642857Y-133835771D01*
X40642857Y-133835771D02*
X40690476Y-133645295D01*
X40690476Y-133645295D02*
X40738095Y-133550057D01*
X40738095Y-133550057D02*
X40785714Y-133502438D01*
X40785714Y-133502438D02*
X40880952Y-133454819D01*
X41642857Y-134359580D02*
X41690476Y-134407200D01*
X41690476Y-134407200D02*
X41642857Y-134454819D01*
X41642857Y-134454819D02*
X41595238Y-134407200D01*
X41595238Y-134407200D02*
X41642857Y-134359580D01*
X41642857Y-134359580D02*
X41642857Y-134454819D01*
X42309523Y-133454819D02*
X42404761Y-133454819D01*
X42404761Y-133454819D02*
X42499999Y-133502438D01*
X42499999Y-133502438D02*
X42547618Y-133550057D01*
X42547618Y-133550057D02*
X42595237Y-133645295D01*
X42595237Y-133645295D02*
X42642856Y-133835771D01*
X42642856Y-133835771D02*
X42642856Y-134073866D01*
X42642856Y-134073866D02*
X42595237Y-134264342D01*
X42595237Y-134264342D02*
X42547618Y-134359580D01*
X42547618Y-134359580D02*
X42499999Y-134407200D01*
X42499999Y-134407200D02*
X42404761Y-134454819D01*
X42404761Y-134454819D02*
X42309523Y-134454819D01*
X42309523Y-134454819D02*
X42214285Y-134407200D01*
X42214285Y-134407200D02*
X42166666Y-134359580D01*
X42166666Y-134359580D02*
X42119047Y-134264342D01*
X42119047Y-134264342D02*
X42071428Y-134073866D01*
X42071428Y-134073866D02*
X42071428Y-133835771D01*
X42071428Y-133835771D02*
X42119047Y-133645295D01*
X42119047Y-133645295D02*
X42166666Y-133550057D01*
X42166666Y-133550057D02*
X42214285Y-133502438D01*
X42214285Y-133502438D02*
X42309523Y-133454819D01*
X43595237Y-134454819D02*
X43023809Y-134454819D01*
X43309523Y-134454819D02*
X43309523Y-133454819D01*
X43309523Y-133454819D02*
X43214285Y-133597676D01*
X43214285Y-133597676D02*
X43119047Y-133692914D01*
X43119047Y-133692914D02*
X43023809Y-133740533D01*
X44452380Y-133788152D02*
X44452380Y-134454819D01*
X44023809Y-133788152D02*
X44023809Y-134311961D01*
X44023809Y-134311961D02*
X44071428Y-134407200D01*
X44071428Y-134407200D02*
X44166666Y-134454819D01*
X44166666Y-134454819D02*
X44309523Y-134454819D01*
X44309523Y-134454819D02*
X44404761Y-134407200D01*
X44404761Y-134407200D02*
X44452380Y-134359580D01*
X45261904Y-133931009D02*
X44928571Y-133931009D01*
X44928571Y-134454819D02*
X44928571Y-133454819D01*
X44928571Y-133454819D02*
X45404761Y-133454819D01*
X94208109Y-20976190D02*
X94208109Y-21309523D01*
X94731919Y-21309523D02*
X93731919Y-21309523D01*
X93731919Y-21309523D02*
X93731919Y-20833333D01*
X93731919Y-20595237D02*
X93731919Y-20023809D01*
X94731919Y-20309523D02*
X93731919Y-20309523D01*
X94731919Y-19690475D02*
X93731919Y-19690475D01*
X93731919Y-19690475D02*
X93731919Y-19452380D01*
X93731919Y-19452380D02*
X93779538Y-19309523D01*
X93779538Y-19309523D02*
X93874776Y-19214285D01*
X93874776Y-19214285D02*
X93970014Y-19166666D01*
X93970014Y-19166666D02*
X94160490Y-19119047D01*
X94160490Y-19119047D02*
X94303347Y-19119047D01*
X94303347Y-19119047D02*
X94493823Y-19166666D01*
X94493823Y-19166666D02*
X94589061Y-19214285D01*
X94589061Y-19214285D02*
X94684300Y-19309523D01*
X94684300Y-19309523D02*
X94731919Y-19452380D01*
X94731919Y-19452380D02*
X94731919Y-19690475D01*
X94731919Y-18690475D02*
X93731919Y-18690475D01*
X66731919Y-30558333D02*
X66731919Y-31129761D01*
X66731919Y-30844047D02*
X65731919Y-30844047D01*
X65731919Y-30844047D02*
X65874776Y-30939285D01*
X65874776Y-30939285D02*
X65970014Y-31034523D01*
X65970014Y-31034523D02*
X66017633Y-31129761D01*
X66636680Y-30129761D02*
X66684300Y-30082142D01*
X66684300Y-30082142D02*
X66731919Y-30129761D01*
X66731919Y-30129761D02*
X66684300Y-30177380D01*
X66684300Y-30177380D02*
X66636680Y-30129761D01*
X66636680Y-30129761D02*
X66731919Y-30129761D01*
X65731919Y-29177381D02*
X65731919Y-29653571D01*
X65731919Y-29653571D02*
X66208109Y-29701190D01*
X66208109Y-29701190D02*
X66160490Y-29653571D01*
X66160490Y-29653571D02*
X66112871Y-29558333D01*
X66112871Y-29558333D02*
X66112871Y-29320238D01*
X66112871Y-29320238D02*
X66160490Y-29225000D01*
X66160490Y-29225000D02*
X66208109Y-29177381D01*
X66208109Y-29177381D02*
X66303347Y-29129762D01*
X66303347Y-29129762D02*
X66541442Y-29129762D01*
X66541442Y-29129762D02*
X66636680Y-29177381D01*
X66636680Y-29177381D02*
X66684300Y-29225000D01*
X66684300Y-29225000D02*
X66731919Y-29320238D01*
X66731919Y-29320238D02*
X66731919Y-29558333D01*
X66731919Y-29558333D02*
X66684300Y-29653571D01*
X66684300Y-29653571D02*
X66636680Y-29701190D01*
X66731919Y-28701190D02*
X65731919Y-28701190D01*
X66350966Y-28605952D02*
X66731919Y-28320238D01*
X66065252Y-28320238D02*
X66446204Y-28701190D01*
X110391919Y-80118095D02*
X110391919Y-80308571D01*
X110391919Y-80308571D02*
X110439538Y-80403809D01*
X110439538Y-80403809D02*
X110487157Y-80451428D01*
X110487157Y-80451428D02*
X110630014Y-80546666D01*
X110630014Y-80546666D02*
X110820490Y-80594285D01*
X110820490Y-80594285D02*
X111201442Y-80594285D01*
X111201442Y-80594285D02*
X111296680Y-80546666D01*
X111296680Y-80546666D02*
X111344300Y-80499047D01*
X111344300Y-80499047D02*
X111391919Y-80403809D01*
X111391919Y-80403809D02*
X111391919Y-80213333D01*
X111391919Y-80213333D02*
X111344300Y-80118095D01*
X111344300Y-80118095D02*
X111296680Y-80070476D01*
X111296680Y-80070476D02*
X111201442Y-80022857D01*
X111201442Y-80022857D02*
X110963347Y-80022857D01*
X110963347Y-80022857D02*
X110868109Y-80070476D01*
X110868109Y-80070476D02*
X110820490Y-80118095D01*
X110820490Y-80118095D02*
X110772871Y-80213333D01*
X110772871Y-80213333D02*
X110772871Y-80403809D01*
X110772871Y-80403809D02*
X110820490Y-80499047D01*
X110820490Y-80499047D02*
X110868109Y-80546666D01*
X110868109Y-80546666D02*
X110963347Y-80594285D01*
X110391919Y-79689523D02*
X110391919Y-79070476D01*
X110391919Y-79070476D02*
X110772871Y-79403809D01*
X110772871Y-79403809D02*
X110772871Y-79260952D01*
X110772871Y-79260952D02*
X110820490Y-79165714D01*
X110820490Y-79165714D02*
X110868109Y-79118095D01*
X110868109Y-79118095D02*
X110963347Y-79070476D01*
X110963347Y-79070476D02*
X111201442Y-79070476D01*
X111201442Y-79070476D02*
X111296680Y-79118095D01*
X111296680Y-79118095D02*
X111344300Y-79165714D01*
X111344300Y-79165714D02*
X111391919Y-79260952D01*
X111391919Y-79260952D02*
X111391919Y-79546666D01*
X111391919Y-79546666D02*
X111344300Y-79641904D01*
X111344300Y-79641904D02*
X111296680Y-79689523D01*
X111296680Y-78070476D02*
X111344300Y-78118095D01*
X111344300Y-78118095D02*
X111391919Y-78260952D01*
X111391919Y-78260952D02*
X111391919Y-78356190D01*
X111391919Y-78356190D02*
X111344300Y-78499047D01*
X111344300Y-78499047D02*
X111249061Y-78594285D01*
X111249061Y-78594285D02*
X111153823Y-78641904D01*
X111153823Y-78641904D02*
X110963347Y-78689523D01*
X110963347Y-78689523D02*
X110820490Y-78689523D01*
X110820490Y-78689523D02*
X110630014Y-78641904D01*
X110630014Y-78641904D02*
X110534776Y-78594285D01*
X110534776Y-78594285D02*
X110439538Y-78499047D01*
X110439538Y-78499047D02*
X110391919Y-78356190D01*
X110391919Y-78356190D02*
X110391919Y-78260952D01*
X110391919Y-78260952D02*
X110439538Y-78118095D01*
X110439538Y-78118095D02*
X110487157Y-78070476D01*
X110391919Y-77451428D02*
X110391919Y-77356190D01*
X110391919Y-77356190D02*
X110439538Y-77260952D01*
X110439538Y-77260952D02*
X110487157Y-77213333D01*
X110487157Y-77213333D02*
X110582395Y-77165714D01*
X110582395Y-77165714D02*
X110772871Y-77118095D01*
X110772871Y-77118095D02*
X111010966Y-77118095D01*
X111010966Y-77118095D02*
X111201442Y-77165714D01*
X111201442Y-77165714D02*
X111296680Y-77213333D01*
X111296680Y-77213333D02*
X111344300Y-77260952D01*
X111344300Y-77260952D02*
X111391919Y-77356190D01*
X111391919Y-77356190D02*
X111391919Y-77451428D01*
X111391919Y-77451428D02*
X111344300Y-77546666D01*
X111344300Y-77546666D02*
X111296680Y-77594285D01*
X111296680Y-77594285D02*
X111201442Y-77641904D01*
X111201442Y-77641904D02*
X111010966Y-77689523D01*
X111010966Y-77689523D02*
X110772871Y-77689523D01*
X110772871Y-77689523D02*
X110582395Y-77641904D01*
X110582395Y-77641904D02*
X110487157Y-77594285D01*
X110487157Y-77594285D02*
X110439538Y-77546666D01*
X110439538Y-77546666D02*
X110391919Y-77451428D01*
X111391919Y-76641904D02*
X111391919Y-76451428D01*
X111391919Y-76451428D02*
X111344300Y-76356190D01*
X111344300Y-76356190D02*
X111296680Y-76308571D01*
X111296680Y-76308571D02*
X111153823Y-76213333D01*
X111153823Y-76213333D02*
X110963347Y-76165714D01*
X110963347Y-76165714D02*
X110582395Y-76165714D01*
X110582395Y-76165714D02*
X110487157Y-76213333D01*
X110487157Y-76213333D02*
X110439538Y-76260952D01*
X110439538Y-76260952D02*
X110391919Y-76356190D01*
X110391919Y-76356190D02*
X110391919Y-76546666D01*
X110391919Y-76546666D02*
X110439538Y-76641904D01*
X110439538Y-76641904D02*
X110487157Y-76689523D01*
X110487157Y-76689523D02*
X110582395Y-76737142D01*
X110582395Y-76737142D02*
X110820490Y-76737142D01*
X110820490Y-76737142D02*
X110915728Y-76689523D01*
X110915728Y-76689523D02*
X110963347Y-76641904D01*
X110963347Y-76641904D02*
X111010966Y-76546666D01*
X111010966Y-76546666D02*
X111010966Y-76356190D01*
X111010966Y-76356190D02*
X110963347Y-76260952D01*
X110963347Y-76260952D02*
X110915728Y-76213333D01*
X110915728Y-76213333D02*
X110820490Y-76165714D01*
D11*
X115043171Y-141039136D02*
X115114600Y-141110564D01*
X115114600Y-141110564D02*
X115186028Y-141324850D01*
X115186028Y-141324850D02*
X115186028Y-141467707D01*
X115186028Y-141467707D02*
X115114600Y-141681993D01*
X115114600Y-141681993D02*
X114971742Y-141824850D01*
X114971742Y-141824850D02*
X114828885Y-141896279D01*
X114828885Y-141896279D02*
X114543171Y-141967707D01*
X114543171Y-141967707D02*
X114328885Y-141967707D01*
X114328885Y-141967707D02*
X114043171Y-141896279D01*
X114043171Y-141896279D02*
X113900314Y-141824850D01*
X113900314Y-141824850D02*
X113757457Y-141681993D01*
X113757457Y-141681993D02*
X113686028Y-141467707D01*
X113686028Y-141467707D02*
X113686028Y-141324850D01*
X113686028Y-141324850D02*
X113757457Y-141110564D01*
X113757457Y-141110564D02*
X113828885Y-141039136D01*
X115186028Y-140396279D02*
X113686028Y-140396279D01*
X114400314Y-140396279D02*
X114400314Y-139539136D01*
X115186028Y-139539136D02*
X113686028Y-139539136D01*
X115186028Y-138824850D02*
X113686028Y-138824850D01*
X114400314Y-137610564D02*
X114471742Y-137396278D01*
X114471742Y-137396278D02*
X114543171Y-137324849D01*
X114543171Y-137324849D02*
X114686028Y-137253421D01*
X114686028Y-137253421D02*
X114900314Y-137253421D01*
X114900314Y-137253421D02*
X115043171Y-137324849D01*
X115043171Y-137324849D02*
X115114600Y-137396278D01*
X115114600Y-137396278D02*
X115186028Y-137539135D01*
X115186028Y-137539135D02*
X115186028Y-138110564D01*
X115186028Y-138110564D02*
X113686028Y-138110564D01*
X113686028Y-138110564D02*
X113686028Y-137610564D01*
X113686028Y-137610564D02*
X113757457Y-137467707D01*
X113757457Y-137467707D02*
X113828885Y-137396278D01*
X113828885Y-137396278D02*
X113971742Y-137324849D01*
X113971742Y-137324849D02*
X114114600Y-137324849D01*
X114114600Y-137324849D02*
X114257457Y-137396278D01*
X114257457Y-137396278D02*
X114328885Y-137467707D01*
X114328885Y-137467707D02*
X114400314Y-137610564D01*
X114400314Y-137610564D02*
X114400314Y-138110564D01*
X115186028Y-136610564D02*
X113686028Y-136610564D01*
X115186028Y-134753421D02*
X113686028Y-134753421D01*
X113686028Y-134753421D02*
X113686028Y-134181992D01*
X113686028Y-134181992D02*
X113757457Y-134039135D01*
X113757457Y-134039135D02*
X113828885Y-133967706D01*
X113828885Y-133967706D02*
X113971742Y-133896278D01*
X113971742Y-133896278D02*
X114186028Y-133896278D01*
X114186028Y-133896278D02*
X114328885Y-133967706D01*
X114328885Y-133967706D02*
X114400314Y-134039135D01*
X114400314Y-134039135D02*
X114471742Y-134181992D01*
X114471742Y-134181992D02*
X114471742Y-134753421D01*
X115043171Y-132396278D02*
X115114600Y-132467706D01*
X115114600Y-132467706D02*
X115186028Y-132681992D01*
X115186028Y-132681992D02*
X115186028Y-132824849D01*
X115186028Y-132824849D02*
X115114600Y-133039135D01*
X115114600Y-133039135D02*
X114971742Y-133181992D01*
X114971742Y-133181992D02*
X114828885Y-133253421D01*
X114828885Y-133253421D02*
X114543171Y-133324849D01*
X114543171Y-133324849D02*
X114328885Y-133324849D01*
X114328885Y-133324849D02*
X114043171Y-133253421D01*
X114043171Y-133253421D02*
X113900314Y-133181992D01*
X113900314Y-133181992D02*
X113757457Y-133039135D01*
X113757457Y-133039135D02*
X113686028Y-132824849D01*
X113686028Y-132824849D02*
X113686028Y-132681992D01*
X113686028Y-132681992D02*
X113757457Y-132467706D01*
X113757457Y-132467706D02*
X113828885Y-132396278D01*
X114614600Y-131753421D02*
X114614600Y-130610564D01*
X113686028Y-129610563D02*
X113686028Y-129467706D01*
X113686028Y-129467706D02*
X113757457Y-129324849D01*
X113757457Y-129324849D02*
X113828885Y-129253421D01*
X113828885Y-129253421D02*
X113971742Y-129181992D01*
X113971742Y-129181992D02*
X114257457Y-129110563D01*
X114257457Y-129110563D02*
X114614600Y-129110563D01*
X114614600Y-129110563D02*
X114900314Y-129181992D01*
X114900314Y-129181992D02*
X115043171Y-129253421D01*
X115043171Y-129253421D02*
X115114600Y-129324849D01*
X115114600Y-129324849D02*
X115186028Y-129467706D01*
X115186028Y-129467706D02*
X115186028Y-129610563D01*
X115186028Y-129610563D02*
X115114600Y-129753421D01*
X115114600Y-129753421D02*
X115043171Y-129824849D01*
X115043171Y-129824849D02*
X114900314Y-129896278D01*
X114900314Y-129896278D02*
X114614600Y-129967706D01*
X114614600Y-129967706D02*
X114257457Y-129967706D01*
X114257457Y-129967706D02*
X113971742Y-129896278D01*
X113971742Y-129896278D02*
X113828885Y-129824849D01*
X113828885Y-129824849D02*
X113757457Y-129753421D01*
X113757457Y-129753421D02*
X113686028Y-129610563D01*
X115186028Y-128396278D02*
X115186028Y-128110564D01*
X115186028Y-128110564D02*
X115114600Y-127967707D01*
X115114600Y-127967707D02*
X115043171Y-127896278D01*
X115043171Y-127896278D02*
X114828885Y-127753421D01*
X114828885Y-127753421D02*
X114543171Y-127681992D01*
X114543171Y-127681992D02*
X113971742Y-127681992D01*
X113971742Y-127681992D02*
X113828885Y-127753421D01*
X113828885Y-127753421D02*
X113757457Y-127824850D01*
X113757457Y-127824850D02*
X113686028Y-127967707D01*
X113686028Y-127967707D02*
X113686028Y-128253421D01*
X113686028Y-128253421D02*
X113757457Y-128396278D01*
X113757457Y-128396278D02*
X113828885Y-128467707D01*
X113828885Y-128467707D02*
X113971742Y-128539135D01*
X113971742Y-128539135D02*
X114328885Y-128539135D01*
X114328885Y-128539135D02*
X114471742Y-128467707D01*
X114471742Y-128467707D02*
X114543171Y-128396278D01*
X114543171Y-128396278D02*
X114614600Y-128253421D01*
X114614600Y-128253421D02*
X114614600Y-127967707D01*
X114614600Y-127967707D02*
X114543171Y-127824850D01*
X114543171Y-127824850D02*
X114471742Y-127753421D01*
X114471742Y-127753421D02*
X114328885Y-127681992D01*
X115186028Y-125896279D02*
X113686028Y-125896279D01*
X113686028Y-125896279D02*
X113686028Y-125324850D01*
X113686028Y-125324850D02*
X113757457Y-125181993D01*
X113757457Y-125181993D02*
X113828885Y-125110564D01*
X113828885Y-125110564D02*
X113971742Y-125039136D01*
X113971742Y-125039136D02*
X114186028Y-125039136D01*
X114186028Y-125039136D02*
X114328885Y-125110564D01*
X114328885Y-125110564D02*
X114400314Y-125181993D01*
X114400314Y-125181993D02*
X114471742Y-125324850D01*
X114471742Y-125324850D02*
X114471742Y-125896279D01*
X115186028Y-123539136D02*
X114471742Y-124039136D01*
X115186028Y-124396279D02*
X113686028Y-124396279D01*
X113686028Y-124396279D02*
X113686028Y-123824850D01*
X113686028Y-123824850D02*
X113757457Y-123681993D01*
X113757457Y-123681993D02*
X113828885Y-123610564D01*
X113828885Y-123610564D02*
X113971742Y-123539136D01*
X113971742Y-123539136D02*
X114186028Y-123539136D01*
X114186028Y-123539136D02*
X114328885Y-123610564D01*
X114328885Y-123610564D02*
X114400314Y-123681993D01*
X114400314Y-123681993D02*
X114471742Y-123824850D01*
X114471742Y-123824850D02*
X114471742Y-124396279D01*
X113686028Y-122610564D02*
X113686028Y-122324850D01*
X113686028Y-122324850D02*
X113757457Y-122181993D01*
X113757457Y-122181993D02*
X113900314Y-122039136D01*
X113900314Y-122039136D02*
X114186028Y-121967707D01*
X114186028Y-121967707D02*
X114686028Y-121967707D01*
X114686028Y-121967707D02*
X114971742Y-122039136D01*
X114971742Y-122039136D02*
X115114600Y-122181993D01*
X115114600Y-122181993D02*
X115186028Y-122324850D01*
X115186028Y-122324850D02*
X115186028Y-122610564D01*
X115186028Y-122610564D02*
X115114600Y-122753422D01*
X115114600Y-122753422D02*
X114971742Y-122896279D01*
X114971742Y-122896279D02*
X114686028Y-122967707D01*
X114686028Y-122967707D02*
X114186028Y-122967707D01*
X114186028Y-122967707D02*
X113900314Y-122896279D01*
X113900314Y-122896279D02*
X113757457Y-122753422D01*
X113757457Y-122753422D02*
X113686028Y-122610564D01*
X113686028Y-121539135D02*
X113686028Y-120681993D01*
X115186028Y-121110564D02*
X113686028Y-121110564D01*
X113686028Y-119896278D02*
X113686028Y-119610564D01*
X113686028Y-119610564D02*
X113757457Y-119467707D01*
X113757457Y-119467707D02*
X113900314Y-119324850D01*
X113900314Y-119324850D02*
X114186028Y-119253421D01*
X114186028Y-119253421D02*
X114686028Y-119253421D01*
X114686028Y-119253421D02*
X114971742Y-119324850D01*
X114971742Y-119324850D02*
X115114600Y-119467707D01*
X115114600Y-119467707D02*
X115186028Y-119610564D01*
X115186028Y-119610564D02*
X115186028Y-119896278D01*
X115186028Y-119896278D02*
X115114600Y-120039136D01*
X115114600Y-120039136D02*
X114971742Y-120181993D01*
X114971742Y-120181993D02*
X114686028Y-120253421D01*
X114686028Y-120253421D02*
X114186028Y-120253421D01*
X114186028Y-120253421D02*
X113900314Y-120181993D01*
X113900314Y-120181993D02*
X113757457Y-120039136D01*
X113757457Y-120039136D02*
X113686028Y-119896278D01*
X113686028Y-118824849D02*
X113686028Y-117967707D01*
X115186028Y-118396278D02*
X113686028Y-118396278D01*
X114471742Y-117181992D02*
X115186028Y-117181992D01*
X113686028Y-117681992D02*
X114471742Y-117181992D01*
X114471742Y-117181992D02*
X113686028Y-116681992D01*
X115186028Y-116181993D02*
X113686028Y-116181993D01*
X113686028Y-116181993D02*
X113686028Y-115610564D01*
X113686028Y-115610564D02*
X113757457Y-115467707D01*
X113757457Y-115467707D02*
X113828885Y-115396278D01*
X113828885Y-115396278D02*
X113971742Y-115324850D01*
X113971742Y-115324850D02*
X114186028Y-115324850D01*
X114186028Y-115324850D02*
X114328885Y-115396278D01*
X114328885Y-115396278D02*
X114400314Y-115467707D01*
X114400314Y-115467707D02*
X114471742Y-115610564D01*
X114471742Y-115610564D02*
X114471742Y-116181993D01*
X114400314Y-114681993D02*
X114400314Y-114181993D01*
X115186028Y-113967707D02*
X115186028Y-114681993D01*
X115186028Y-114681993D02*
X113686028Y-114681993D01*
X113686028Y-114681993D02*
X113686028Y-113967707D01*
X114186028Y-112253421D02*
X114186028Y-111181993D01*
X113543171Y-111824850D02*
X115471742Y-112253421D01*
X114828885Y-111324850D02*
X114828885Y-112396278D01*
X115471742Y-111753421D02*
X113543171Y-111324850D01*
X115186028Y-109896278D02*
X115186028Y-110753421D01*
X115186028Y-110324850D02*
X113686028Y-110324850D01*
X113686028Y-110324850D02*
X113900314Y-110467707D01*
X113900314Y-110467707D02*
X114043171Y-110610564D01*
X114043171Y-110610564D02*
X114114600Y-110753421D01*
X116886658Y-140967707D02*
X116815230Y-141039136D01*
X116815230Y-141039136D02*
X116743801Y-141181993D01*
X116743801Y-141181993D02*
X116743801Y-141324850D01*
X116743801Y-141324850D02*
X116815230Y-141467707D01*
X116815230Y-141467707D02*
X116886658Y-141539136D01*
X116886658Y-141539136D02*
X117029516Y-141610564D01*
X117029516Y-141610564D02*
X117172373Y-141610564D01*
X117172373Y-141610564D02*
X117315230Y-141539136D01*
X117315230Y-141539136D02*
X117386658Y-141467707D01*
X117386658Y-141467707D02*
X117458087Y-141324850D01*
X117458087Y-141324850D02*
X117458087Y-141181993D01*
X117458087Y-141181993D02*
X117386658Y-141039136D01*
X117386658Y-141039136D02*
X117315230Y-140967707D01*
X116743801Y-140967707D02*
X117315230Y-140967707D01*
X117315230Y-140967707D02*
X117386658Y-140896279D01*
X117386658Y-140896279D02*
X117386658Y-140824850D01*
X117386658Y-140824850D02*
X117315230Y-140681993D01*
X117315230Y-140681993D02*
X117172373Y-140610564D01*
X117172373Y-140610564D02*
X116815230Y-140610564D01*
X116815230Y-140610564D02*
X116600944Y-140753422D01*
X116600944Y-140753422D02*
X116458087Y-140967707D01*
X116458087Y-140967707D02*
X116386658Y-141253422D01*
X116386658Y-141253422D02*
X116458087Y-141539136D01*
X116458087Y-141539136D02*
X116600944Y-141753422D01*
X116600944Y-141753422D02*
X116815230Y-141896279D01*
X116815230Y-141896279D02*
X117100944Y-141967707D01*
X117100944Y-141967707D02*
X117386658Y-141896279D01*
X117386658Y-141896279D02*
X117600944Y-141753422D01*
X117600944Y-141753422D02*
X117743801Y-141539136D01*
X117743801Y-141539136D02*
X117815230Y-141253422D01*
X117815230Y-141253422D02*
X117743801Y-140967707D01*
X117743801Y-140967707D02*
X117600944Y-140753422D01*
X117600944Y-139324851D02*
X116815230Y-139324851D01*
X116815230Y-139324851D02*
X116672373Y-139396279D01*
X116672373Y-139396279D02*
X116600944Y-139539136D01*
X116600944Y-139539136D02*
X116600944Y-139824851D01*
X116600944Y-139824851D02*
X116672373Y-139967708D01*
X117529516Y-139324851D02*
X117600944Y-139467708D01*
X117600944Y-139467708D02*
X117600944Y-139824851D01*
X117600944Y-139824851D02*
X117529516Y-139967708D01*
X117529516Y-139967708D02*
X117386658Y-140039136D01*
X117386658Y-140039136D02*
X117243801Y-140039136D01*
X117243801Y-140039136D02*
X117100944Y-139967708D01*
X117100944Y-139967708D02*
X117029516Y-139824851D01*
X117029516Y-139824851D02*
X117029516Y-139467708D01*
X117029516Y-139467708D02*
X116958087Y-139324851D01*
X117600944Y-138610565D02*
X116600944Y-138610565D01*
X116743801Y-138610565D02*
X116672373Y-138539136D01*
X116672373Y-138539136D02*
X116600944Y-138396279D01*
X116600944Y-138396279D02*
X116600944Y-138181993D01*
X116600944Y-138181993D02*
X116672373Y-138039136D01*
X116672373Y-138039136D02*
X116815230Y-137967708D01*
X116815230Y-137967708D02*
X117600944Y-137967708D01*
X116815230Y-137967708D02*
X116672373Y-137896279D01*
X116672373Y-137896279D02*
X116600944Y-137753422D01*
X116600944Y-137753422D02*
X116600944Y-137539136D01*
X116600944Y-137539136D02*
X116672373Y-137396279D01*
X116672373Y-137396279D02*
X116815230Y-137324850D01*
X116815230Y-137324850D02*
X117600944Y-137324850D01*
X117600944Y-136610565D02*
X116100944Y-136610565D01*
X116672373Y-136610565D02*
X116600944Y-136467708D01*
X116600944Y-136467708D02*
X116600944Y-136181993D01*
X116600944Y-136181993D02*
X116672373Y-136039136D01*
X116672373Y-136039136D02*
X116743801Y-135967708D01*
X116743801Y-135967708D02*
X116886658Y-135896279D01*
X116886658Y-135896279D02*
X117315230Y-135896279D01*
X117315230Y-135896279D02*
X117458087Y-135967708D01*
X117458087Y-135967708D02*
X117529516Y-136039136D01*
X117529516Y-136039136D02*
X117600944Y-136181993D01*
X117600944Y-136181993D02*
X117600944Y-136467708D01*
X117600944Y-136467708D02*
X117529516Y-136610565D01*
X117529516Y-134681993D02*
X117600944Y-134824850D01*
X117600944Y-134824850D02*
X117600944Y-135110565D01*
X117600944Y-135110565D02*
X117529516Y-135253422D01*
X117529516Y-135253422D02*
X117386658Y-135324850D01*
X117386658Y-135324850D02*
X116815230Y-135324850D01*
X116815230Y-135324850D02*
X116672373Y-135253422D01*
X116672373Y-135253422D02*
X116600944Y-135110565D01*
X116600944Y-135110565D02*
X116600944Y-134824850D01*
X116600944Y-134824850D02*
X116672373Y-134681993D01*
X116672373Y-134681993D02*
X116815230Y-134610565D01*
X116815230Y-134610565D02*
X116958087Y-134610565D01*
X116958087Y-134610565D02*
X117100944Y-135324850D01*
X117600944Y-133967708D02*
X116600944Y-133967708D01*
X116886658Y-133967708D02*
X116743801Y-133896279D01*
X116743801Y-133896279D02*
X116672373Y-133824851D01*
X116672373Y-133824851D02*
X116600944Y-133681993D01*
X116600944Y-133681993D02*
X116600944Y-133539136D01*
X117600944Y-133039137D02*
X116600944Y-133039137D01*
X116100944Y-133039137D02*
X116172373Y-133110565D01*
X116172373Y-133110565D02*
X116243801Y-133039137D01*
X116243801Y-133039137D02*
X116172373Y-132967708D01*
X116172373Y-132967708D02*
X116100944Y-133039137D01*
X116100944Y-133039137D02*
X116243801Y-133039137D01*
X117529516Y-132396279D02*
X117600944Y-132253422D01*
X117600944Y-132253422D02*
X117600944Y-131967708D01*
X117600944Y-131967708D02*
X117529516Y-131824851D01*
X117529516Y-131824851D02*
X117386658Y-131753422D01*
X117386658Y-131753422D02*
X117315230Y-131753422D01*
X117315230Y-131753422D02*
X117172373Y-131824851D01*
X117172373Y-131824851D02*
X117100944Y-131967708D01*
X117100944Y-131967708D02*
X117100944Y-132181994D01*
X117100944Y-132181994D02*
X117029516Y-132324851D01*
X117029516Y-132324851D02*
X116886658Y-132396279D01*
X116886658Y-132396279D02*
X116815230Y-132396279D01*
X116815230Y-132396279D02*
X116672373Y-132324851D01*
X116672373Y-132324851D02*
X116600944Y-132181994D01*
X116600944Y-132181994D02*
X116600944Y-131967708D01*
X116600944Y-131967708D02*
X116672373Y-131824851D01*
X116600944Y-131253422D02*
X117600944Y-130896279D01*
X117600944Y-130896279D02*
X116600944Y-130539136D01*
X117600944Y-129967708D02*
X116600944Y-129967708D01*
X116100944Y-129967708D02*
X116172373Y-130039136D01*
X116172373Y-130039136D02*
X116243801Y-129967708D01*
X116243801Y-129967708D02*
X116172373Y-129896279D01*
X116172373Y-129896279D02*
X116100944Y-129967708D01*
X116100944Y-129967708D02*
X116243801Y-129967708D01*
X117600944Y-129253422D02*
X116100944Y-129253422D01*
X116672373Y-129253422D02*
X116600944Y-129110565D01*
X116600944Y-129110565D02*
X116600944Y-128824850D01*
X116600944Y-128824850D02*
X116672373Y-128681993D01*
X116672373Y-128681993D02*
X116743801Y-128610565D01*
X116743801Y-128610565D02*
X116886658Y-128539136D01*
X116886658Y-128539136D02*
X117315230Y-128539136D01*
X117315230Y-128539136D02*
X117458087Y-128610565D01*
X117458087Y-128610565D02*
X117529516Y-128681993D01*
X117529516Y-128681993D02*
X117600944Y-128824850D01*
X117600944Y-128824850D02*
X117600944Y-129110565D01*
X117600944Y-129110565D02*
X117529516Y-129253422D01*
X117600944Y-127896279D02*
X116600944Y-127896279D01*
X116100944Y-127896279D02*
X116172373Y-127967707D01*
X116172373Y-127967707D02*
X116243801Y-127896279D01*
X116243801Y-127896279D02*
X116172373Y-127824850D01*
X116172373Y-127824850D02*
X116100944Y-127896279D01*
X116100944Y-127896279D02*
X116243801Y-127896279D01*
X116600944Y-127181993D02*
X117600944Y-127181993D01*
X116743801Y-127181993D02*
X116672373Y-127110564D01*
X116672373Y-127110564D02*
X116600944Y-126967707D01*
X116600944Y-126967707D02*
X116600944Y-126753421D01*
X116600944Y-126753421D02*
X116672373Y-126610564D01*
X116672373Y-126610564D02*
X116815230Y-126539136D01*
X116815230Y-126539136D02*
X117600944Y-126539136D01*
X116243801Y-124753421D02*
X116172373Y-124681993D01*
X116172373Y-124681993D02*
X116100944Y-124539136D01*
X116100944Y-124539136D02*
X116100944Y-124181993D01*
X116100944Y-124181993D02*
X116172373Y-124039136D01*
X116172373Y-124039136D02*
X116243801Y-123967707D01*
X116243801Y-123967707D02*
X116386658Y-123896278D01*
X116386658Y-123896278D02*
X116529516Y-123896278D01*
X116529516Y-123896278D02*
X116743801Y-123967707D01*
X116743801Y-123967707D02*
X117600944Y-124824850D01*
X117600944Y-124824850D02*
X117600944Y-123896278D01*
X116100944Y-122967707D02*
X116100944Y-122824850D01*
X116100944Y-122824850D02*
X116172373Y-122681993D01*
X116172373Y-122681993D02*
X116243801Y-122610565D01*
X116243801Y-122610565D02*
X116386658Y-122539136D01*
X116386658Y-122539136D02*
X116672373Y-122467707D01*
X116672373Y-122467707D02*
X117029516Y-122467707D01*
X117029516Y-122467707D02*
X117315230Y-122539136D01*
X117315230Y-122539136D02*
X117458087Y-122610565D01*
X117458087Y-122610565D02*
X117529516Y-122681993D01*
X117529516Y-122681993D02*
X117600944Y-122824850D01*
X117600944Y-122824850D02*
X117600944Y-122967707D01*
X117600944Y-122967707D02*
X117529516Y-123110565D01*
X117529516Y-123110565D02*
X117458087Y-123181993D01*
X117458087Y-123181993D02*
X117315230Y-123253422D01*
X117315230Y-123253422D02*
X117029516Y-123324850D01*
X117029516Y-123324850D02*
X116672373Y-123324850D01*
X116672373Y-123324850D02*
X116386658Y-123253422D01*
X116386658Y-123253422D02*
X116243801Y-123181993D01*
X116243801Y-123181993D02*
X116172373Y-123110565D01*
X116172373Y-123110565D02*
X116100944Y-122967707D01*
X116243801Y-121896279D02*
X116172373Y-121824851D01*
X116172373Y-121824851D02*
X116100944Y-121681994D01*
X116100944Y-121681994D02*
X116100944Y-121324851D01*
X116100944Y-121324851D02*
X116172373Y-121181994D01*
X116172373Y-121181994D02*
X116243801Y-121110565D01*
X116243801Y-121110565D02*
X116386658Y-121039136D01*
X116386658Y-121039136D02*
X116529516Y-121039136D01*
X116529516Y-121039136D02*
X116743801Y-121110565D01*
X116743801Y-121110565D02*
X117600944Y-121967708D01*
X117600944Y-121967708D02*
X117600944Y-121039136D01*
X116600944Y-119753423D02*
X117600944Y-119753423D01*
X116029516Y-120110565D02*
X117100944Y-120467708D01*
X117100944Y-120467708D02*
X117100944Y-119539137D01*
X122002205Y-141967707D02*
X122002205Y-141253422D01*
X122430776Y-142110564D02*
X120930776Y-141610564D01*
X120930776Y-141610564D02*
X122430776Y-141110564D01*
X122430776Y-139467708D02*
X120930776Y-139467708D01*
X121645062Y-139467708D02*
X121645062Y-138610565D01*
X122430776Y-138610565D02*
X120930776Y-138610565D01*
X122430776Y-137896279D02*
X121430776Y-137896279D01*
X120930776Y-137896279D02*
X121002205Y-137967707D01*
X121002205Y-137967707D02*
X121073633Y-137896279D01*
X121073633Y-137896279D02*
X121002205Y-137824850D01*
X121002205Y-137824850D02*
X120930776Y-137896279D01*
X120930776Y-137896279D02*
X121073633Y-137896279D01*
X121430776Y-137396278D02*
X121430776Y-136824850D01*
X120930776Y-137181993D02*
X122216490Y-137181993D01*
X122216490Y-137181993D02*
X122359348Y-137110564D01*
X122359348Y-137110564D02*
X122430776Y-136967707D01*
X122430776Y-136967707D02*
X122430776Y-136824850D01*
X122430776Y-135681993D02*
X121645062Y-135681993D01*
X121645062Y-135681993D02*
X121502205Y-135753421D01*
X121502205Y-135753421D02*
X121430776Y-135896278D01*
X121430776Y-135896278D02*
X121430776Y-136181993D01*
X121430776Y-136181993D02*
X121502205Y-136324850D01*
X122359348Y-135681993D02*
X122430776Y-135824850D01*
X122430776Y-135824850D02*
X122430776Y-136181993D01*
X122430776Y-136181993D02*
X122359348Y-136324850D01*
X122359348Y-136324850D02*
X122216490Y-136396278D01*
X122216490Y-136396278D02*
X122073633Y-136396278D01*
X122073633Y-136396278D02*
X121930776Y-136324850D01*
X121930776Y-136324850D02*
X121859348Y-136181993D01*
X121859348Y-136181993D02*
X121859348Y-135824850D01*
X121859348Y-135824850D02*
X121787919Y-135681993D01*
X122359348Y-134324850D02*
X122430776Y-134467707D01*
X122430776Y-134467707D02*
X122430776Y-134753421D01*
X122430776Y-134753421D02*
X122359348Y-134896278D01*
X122359348Y-134896278D02*
X122287919Y-134967707D01*
X122287919Y-134967707D02*
X122145062Y-135039135D01*
X122145062Y-135039135D02*
X121716490Y-135039135D01*
X121716490Y-135039135D02*
X121573633Y-134967707D01*
X121573633Y-134967707D02*
X121502205Y-134896278D01*
X121502205Y-134896278D02*
X121430776Y-134753421D01*
X121430776Y-134753421D02*
X121430776Y-134467707D01*
X121430776Y-134467707D02*
X121502205Y-134324850D01*
X122430776Y-133681993D02*
X120930776Y-133681993D01*
X122430776Y-133039136D02*
X121645062Y-133039136D01*
X121645062Y-133039136D02*
X121502205Y-133110564D01*
X121502205Y-133110564D02*
X121430776Y-133253421D01*
X121430776Y-133253421D02*
X121430776Y-133467707D01*
X121430776Y-133467707D02*
X121502205Y-133610564D01*
X121502205Y-133610564D02*
X121573633Y-133681993D01*
X122430776Y-132324850D02*
X121430776Y-132324850D01*
X120930776Y-132324850D02*
X121002205Y-132396278D01*
X121002205Y-132396278D02*
X121073633Y-132324850D01*
X121073633Y-132324850D02*
X121002205Y-132253421D01*
X121002205Y-132253421D02*
X120930776Y-132324850D01*
X120930776Y-132324850D02*
X121073633Y-132324850D01*
X120930776Y-129824850D02*
X120930776Y-130110564D01*
X120930776Y-130110564D02*
X121002205Y-130253421D01*
X121002205Y-130253421D02*
X121073633Y-130324850D01*
X121073633Y-130324850D02*
X121287919Y-130467707D01*
X121287919Y-130467707D02*
X121573633Y-130539135D01*
X121573633Y-130539135D02*
X122145062Y-130539135D01*
X122145062Y-130539135D02*
X122287919Y-130467707D01*
X122287919Y-130467707D02*
X122359348Y-130396278D01*
X122359348Y-130396278D02*
X122430776Y-130253421D01*
X122430776Y-130253421D02*
X122430776Y-129967707D01*
X122430776Y-129967707D02*
X122359348Y-129824850D01*
X122359348Y-129824850D02*
X122287919Y-129753421D01*
X122287919Y-129753421D02*
X122145062Y-129681992D01*
X122145062Y-129681992D02*
X121787919Y-129681992D01*
X121787919Y-129681992D02*
X121645062Y-129753421D01*
X121645062Y-129753421D02*
X121573633Y-129824850D01*
X121573633Y-129824850D02*
X121502205Y-129967707D01*
X121502205Y-129967707D02*
X121502205Y-130253421D01*
X121502205Y-130253421D02*
X121573633Y-130396278D01*
X121573633Y-130396278D02*
X121645062Y-130467707D01*
X121645062Y-130467707D02*
X121787919Y-130539135D01*
X120930776Y-129181993D02*
X120930776Y-128253421D01*
X120930776Y-128253421D02*
X121502205Y-128753421D01*
X121502205Y-128753421D02*
X121502205Y-128539136D01*
X121502205Y-128539136D02*
X121573633Y-128396279D01*
X121573633Y-128396279D02*
X121645062Y-128324850D01*
X121645062Y-128324850D02*
X121787919Y-128253421D01*
X121787919Y-128253421D02*
X122145062Y-128253421D01*
X122145062Y-128253421D02*
X122287919Y-128324850D01*
X122287919Y-128324850D02*
X122359348Y-128396279D01*
X122359348Y-128396279D02*
X122430776Y-128539136D01*
X122430776Y-128539136D02*
X122430776Y-128967707D01*
X122430776Y-128967707D02*
X122359348Y-129110564D01*
X122359348Y-129110564D02*
X122287919Y-129181993D01*
X120930776Y-127324850D02*
X120930776Y-127181993D01*
X120930776Y-127181993D02*
X121002205Y-127039136D01*
X121002205Y-127039136D02*
X121073633Y-126967708D01*
X121073633Y-126967708D02*
X121216490Y-126896279D01*
X121216490Y-126896279D02*
X121502205Y-126824850D01*
X121502205Y-126824850D02*
X121859348Y-126824850D01*
X121859348Y-126824850D02*
X122145062Y-126896279D01*
X122145062Y-126896279D02*
X122287919Y-126967708D01*
X122287919Y-126967708D02*
X122359348Y-127039136D01*
X122359348Y-127039136D02*
X122430776Y-127181993D01*
X122430776Y-127181993D02*
X122430776Y-127324850D01*
X122430776Y-127324850D02*
X122359348Y-127467708D01*
X122359348Y-127467708D02*
X122287919Y-127539136D01*
X122287919Y-127539136D02*
X122145062Y-127610565D01*
X122145062Y-127610565D02*
X121859348Y-127681993D01*
X121859348Y-127681993D02*
X121502205Y-127681993D01*
X121502205Y-127681993D02*
X121216490Y-127610565D01*
X121216490Y-127610565D02*
X121073633Y-127539136D01*
X121073633Y-127539136D02*
X121002205Y-127467708D01*
X121002205Y-127467708D02*
X120930776Y-127324850D01*
X122430776Y-126110565D02*
X122430776Y-125824851D01*
X122430776Y-125824851D02*
X122359348Y-125681994D01*
X122359348Y-125681994D02*
X122287919Y-125610565D01*
X122287919Y-125610565D02*
X122073633Y-125467708D01*
X122073633Y-125467708D02*
X121787919Y-125396279D01*
X121787919Y-125396279D02*
X121216490Y-125396279D01*
X121216490Y-125396279D02*
X121073633Y-125467708D01*
X121073633Y-125467708D02*
X121002205Y-125539137D01*
X121002205Y-125539137D02*
X120930776Y-125681994D01*
X120930776Y-125681994D02*
X120930776Y-125967708D01*
X120930776Y-125967708D02*
X121002205Y-126110565D01*
X121002205Y-126110565D02*
X121073633Y-126181994D01*
X121073633Y-126181994D02*
X121216490Y-126253422D01*
X121216490Y-126253422D02*
X121573633Y-126253422D01*
X121573633Y-126253422D02*
X121716490Y-126181994D01*
X121716490Y-126181994D02*
X121787919Y-126110565D01*
X121787919Y-126110565D02*
X121859348Y-125967708D01*
X121859348Y-125967708D02*
X121859348Y-125681994D01*
X121859348Y-125681994D02*
X121787919Y-125539137D01*
X121787919Y-125539137D02*
X121716490Y-125467708D01*
X121716490Y-125467708D02*
X121573633Y-125396279D01*
X122430776Y-123610566D02*
X120930776Y-123610566D01*
X121502205Y-123610566D02*
X121430776Y-123467709D01*
X121430776Y-123467709D02*
X121430776Y-123181994D01*
X121430776Y-123181994D02*
X121502205Y-123039137D01*
X121502205Y-123039137D02*
X121573633Y-122967709D01*
X121573633Y-122967709D02*
X121716490Y-122896280D01*
X121716490Y-122896280D02*
X122145062Y-122896280D01*
X122145062Y-122896280D02*
X122287919Y-122967709D01*
X122287919Y-122967709D02*
X122359348Y-123039137D01*
X122359348Y-123039137D02*
X122430776Y-123181994D01*
X122430776Y-123181994D02*
X122430776Y-123467709D01*
X122430776Y-123467709D02*
X122359348Y-123610566D01*
X122430776Y-121610566D02*
X121645062Y-121610566D01*
X121645062Y-121610566D02*
X121502205Y-121681994D01*
X121502205Y-121681994D02*
X121430776Y-121824851D01*
X121430776Y-121824851D02*
X121430776Y-122110566D01*
X121430776Y-122110566D02*
X121502205Y-122253423D01*
X122359348Y-121610566D02*
X122430776Y-121753423D01*
X122430776Y-121753423D02*
X122430776Y-122110566D01*
X122430776Y-122110566D02*
X122359348Y-122253423D01*
X122359348Y-122253423D02*
X122216490Y-122324851D01*
X122216490Y-122324851D02*
X122073633Y-122324851D01*
X122073633Y-122324851D02*
X121930776Y-122253423D01*
X121930776Y-122253423D02*
X121859348Y-122110566D01*
X121859348Y-122110566D02*
X121859348Y-121753423D01*
X121859348Y-121753423D02*
X121787919Y-121610566D01*
X122359348Y-120967708D02*
X122430776Y-120824851D01*
X122430776Y-120824851D02*
X122430776Y-120539137D01*
X122430776Y-120539137D02*
X122359348Y-120396280D01*
X122359348Y-120396280D02*
X122216490Y-120324851D01*
X122216490Y-120324851D02*
X122145062Y-120324851D01*
X122145062Y-120324851D02*
X122002205Y-120396280D01*
X122002205Y-120396280D02*
X121930776Y-120539137D01*
X121930776Y-120539137D02*
X121930776Y-120753423D01*
X121930776Y-120753423D02*
X121859348Y-120896280D01*
X121859348Y-120896280D02*
X121716490Y-120967708D01*
X121716490Y-120967708D02*
X121645062Y-120967708D01*
X121645062Y-120967708D02*
X121502205Y-120896280D01*
X121502205Y-120896280D02*
X121430776Y-120753423D01*
X121430776Y-120753423D02*
X121430776Y-120539137D01*
X121430776Y-120539137D02*
X121502205Y-120396280D01*
X122359348Y-119110565D02*
X122430776Y-119253422D01*
X122430776Y-119253422D02*
X122430776Y-119539137D01*
X122430776Y-119539137D02*
X122359348Y-119681994D01*
X122359348Y-119681994D02*
X122216490Y-119753422D01*
X122216490Y-119753422D02*
X121645062Y-119753422D01*
X121645062Y-119753422D02*
X121502205Y-119681994D01*
X121502205Y-119681994D02*
X121430776Y-119539137D01*
X121430776Y-119539137D02*
X121430776Y-119253422D01*
X121430776Y-119253422D02*
X121502205Y-119110565D01*
X121502205Y-119110565D02*
X121645062Y-119039137D01*
X121645062Y-119039137D02*
X121787919Y-119039137D01*
X121787919Y-119039137D02*
X121930776Y-119753422D01*
X122430776Y-117753423D02*
X120930776Y-117753423D01*
X122359348Y-117753423D02*
X122430776Y-117896280D01*
X122430776Y-117896280D02*
X122430776Y-118181994D01*
X122430776Y-118181994D02*
X122359348Y-118324851D01*
X122359348Y-118324851D02*
X122287919Y-118396280D01*
X122287919Y-118396280D02*
X122145062Y-118467708D01*
X122145062Y-118467708D02*
X121716490Y-118467708D01*
X121716490Y-118467708D02*
X121573633Y-118396280D01*
X121573633Y-118396280D02*
X121502205Y-118324851D01*
X121502205Y-118324851D02*
X121430776Y-118181994D01*
X121430776Y-118181994D02*
X121430776Y-117896280D01*
X121430776Y-117896280D02*
X121502205Y-117753423D01*
X122430776Y-115896280D02*
X121430776Y-115896280D01*
X121716490Y-115896280D02*
X121573633Y-115824851D01*
X121573633Y-115824851D02*
X121502205Y-115753423D01*
X121502205Y-115753423D02*
X121430776Y-115610565D01*
X121430776Y-115610565D02*
X121430776Y-115467708D01*
X122359348Y-114396280D02*
X122430776Y-114539137D01*
X122430776Y-114539137D02*
X122430776Y-114824852D01*
X122430776Y-114824852D02*
X122359348Y-114967709D01*
X122359348Y-114967709D02*
X122216490Y-115039137D01*
X122216490Y-115039137D02*
X121645062Y-115039137D01*
X121645062Y-115039137D02*
X121502205Y-114967709D01*
X121502205Y-114967709D02*
X121430776Y-114824852D01*
X121430776Y-114824852D02*
X121430776Y-114539137D01*
X121430776Y-114539137D02*
X121502205Y-114396280D01*
X121502205Y-114396280D02*
X121645062Y-114324852D01*
X121645062Y-114324852D02*
X121787919Y-114324852D01*
X121787919Y-114324852D02*
X121930776Y-115039137D01*
X121430776Y-113896280D02*
X121430776Y-113324852D01*
X120930776Y-113681995D02*
X122216490Y-113681995D01*
X122216490Y-113681995D02*
X122359348Y-113610566D01*
X122359348Y-113610566D02*
X122430776Y-113467709D01*
X122430776Y-113467709D02*
X122430776Y-113324852D01*
X122430776Y-112824852D02*
X121430776Y-112824852D01*
X121716490Y-112824852D02*
X121573633Y-112753423D01*
X121573633Y-112753423D02*
X121502205Y-112681995D01*
X121502205Y-112681995D02*
X121430776Y-112539137D01*
X121430776Y-112539137D02*
X121430776Y-112396280D01*
X122430776Y-111681995D02*
X122359348Y-111824852D01*
X122359348Y-111824852D02*
X122287919Y-111896281D01*
X122287919Y-111896281D02*
X122145062Y-111967709D01*
X122145062Y-111967709D02*
X121716490Y-111967709D01*
X121716490Y-111967709D02*
X121573633Y-111896281D01*
X121573633Y-111896281D02*
X121502205Y-111824852D01*
X121502205Y-111824852D02*
X121430776Y-111681995D01*
X121430776Y-111681995D02*
X121430776Y-111467709D01*
X121430776Y-111467709D02*
X121502205Y-111324852D01*
X121502205Y-111324852D02*
X121573633Y-111253424D01*
X121573633Y-111253424D02*
X121716490Y-111181995D01*
X121716490Y-111181995D02*
X122145062Y-111181995D01*
X122145062Y-111181995D02*
X122287919Y-111253424D01*
X122287919Y-111253424D02*
X122359348Y-111324852D01*
X122359348Y-111324852D02*
X122430776Y-111467709D01*
X122430776Y-111467709D02*
X122430776Y-111681995D01*
X122359348Y-109896281D02*
X122430776Y-110039138D01*
X122430776Y-110039138D02*
X122430776Y-110324852D01*
X122430776Y-110324852D02*
X122359348Y-110467709D01*
X122359348Y-110467709D02*
X122287919Y-110539138D01*
X122287919Y-110539138D02*
X122145062Y-110610566D01*
X122145062Y-110610566D02*
X121716490Y-110610566D01*
X121716490Y-110610566D02*
X121573633Y-110539138D01*
X121573633Y-110539138D02*
X121502205Y-110467709D01*
X121502205Y-110467709D02*
X121430776Y-110324852D01*
X121430776Y-110324852D02*
X121430776Y-110039138D01*
X121430776Y-110039138D02*
X121502205Y-109896281D01*
X122430776Y-109039138D02*
X122359348Y-109181995D01*
X122359348Y-109181995D02*
X122287919Y-109253424D01*
X122287919Y-109253424D02*
X122145062Y-109324852D01*
X122145062Y-109324852D02*
X121716490Y-109324852D01*
X121716490Y-109324852D02*
X121573633Y-109253424D01*
X121573633Y-109253424D02*
X121502205Y-109181995D01*
X121502205Y-109181995D02*
X121430776Y-109039138D01*
X121430776Y-109039138D02*
X121430776Y-108824852D01*
X121430776Y-108824852D02*
X121502205Y-108681995D01*
X121502205Y-108681995D02*
X121573633Y-108610567D01*
X121573633Y-108610567D02*
X121716490Y-108539138D01*
X121716490Y-108539138D02*
X122145062Y-108539138D01*
X122145062Y-108539138D02*
X122287919Y-108610567D01*
X122287919Y-108610567D02*
X122359348Y-108681995D01*
X122359348Y-108681995D02*
X122430776Y-108824852D01*
X122430776Y-108824852D02*
X122430776Y-109039138D01*
X122430776Y-107896281D02*
X121430776Y-107896281D01*
X121573633Y-107896281D02*
X121502205Y-107824852D01*
X121502205Y-107824852D02*
X121430776Y-107681995D01*
X121430776Y-107681995D02*
X121430776Y-107467709D01*
X121430776Y-107467709D02*
X121502205Y-107324852D01*
X121502205Y-107324852D02*
X121645062Y-107253424D01*
X121645062Y-107253424D02*
X122430776Y-107253424D01*
X121645062Y-107253424D02*
X121502205Y-107181995D01*
X121502205Y-107181995D02*
X121430776Y-107039138D01*
X121430776Y-107039138D02*
X121430776Y-106824852D01*
X121430776Y-106824852D02*
X121502205Y-106681995D01*
X121502205Y-106681995D02*
X121645062Y-106610566D01*
X121645062Y-106610566D02*
X122430776Y-106610566D01*
X121430776Y-105896281D02*
X122930776Y-105896281D01*
X121502205Y-105896281D02*
X121430776Y-105753424D01*
X121430776Y-105753424D02*
X121430776Y-105467709D01*
X121430776Y-105467709D02*
X121502205Y-105324852D01*
X121502205Y-105324852D02*
X121573633Y-105253424D01*
X121573633Y-105253424D02*
X121716490Y-105181995D01*
X121716490Y-105181995D02*
X122145062Y-105181995D01*
X122145062Y-105181995D02*
X122287919Y-105253424D01*
X122287919Y-105253424D02*
X122359348Y-105324852D01*
X122359348Y-105324852D02*
X122430776Y-105467709D01*
X122430776Y-105467709D02*
X122430776Y-105753424D01*
X122430776Y-105753424D02*
X122359348Y-105896281D01*
X121430776Y-103896281D02*
X122430776Y-103896281D01*
X121430776Y-104539138D02*
X122216490Y-104539138D01*
X122216490Y-104539138D02*
X122359348Y-104467709D01*
X122359348Y-104467709D02*
X122430776Y-104324852D01*
X122430776Y-104324852D02*
X122430776Y-104110566D01*
X122430776Y-104110566D02*
X122359348Y-103967709D01*
X122359348Y-103967709D02*
X122287919Y-103896281D01*
X121430776Y-103396280D02*
X121430776Y-102824852D01*
X120930776Y-103181995D02*
X122216490Y-103181995D01*
X122216490Y-103181995D02*
X122359348Y-103110566D01*
X122359348Y-103110566D02*
X122430776Y-102967709D01*
X122430776Y-102967709D02*
X122430776Y-102824852D01*
X122359348Y-101753423D02*
X122430776Y-101896280D01*
X122430776Y-101896280D02*
X122430776Y-102181995D01*
X122430776Y-102181995D02*
X122359348Y-102324852D01*
X122359348Y-102324852D02*
X122216490Y-102396280D01*
X122216490Y-102396280D02*
X121645062Y-102396280D01*
X121645062Y-102396280D02*
X121502205Y-102324852D01*
X121502205Y-102324852D02*
X121430776Y-102181995D01*
X121430776Y-102181995D02*
X121430776Y-101896280D01*
X121430776Y-101896280D02*
X121502205Y-101753423D01*
X121502205Y-101753423D02*
X121645062Y-101681995D01*
X121645062Y-101681995D02*
X121787919Y-101681995D01*
X121787919Y-101681995D02*
X121930776Y-102396280D01*
X122430776Y-101039138D02*
X121430776Y-101039138D01*
X121716490Y-101039138D02*
X121573633Y-100967709D01*
X121573633Y-100967709D02*
X121502205Y-100896281D01*
X121502205Y-100896281D02*
X121430776Y-100753423D01*
X121430776Y-100753423D02*
X121430776Y-100610566D01*
X122287919Y-100110567D02*
X122359348Y-100039138D01*
X122359348Y-100039138D02*
X122430776Y-100110567D01*
X122430776Y-100110567D02*
X122359348Y-100181995D01*
X122359348Y-100181995D02*
X122287919Y-100110567D01*
X122287919Y-100110567D02*
X122430776Y-100110567D01*
D10*
X43357142Y-17359580D02*
X43309523Y-17407200D01*
X43309523Y-17407200D02*
X43166666Y-17454819D01*
X43166666Y-17454819D02*
X43071428Y-17454819D01*
X43071428Y-17454819D02*
X42928571Y-17407200D01*
X42928571Y-17407200D02*
X42833333Y-17311961D01*
X42833333Y-17311961D02*
X42785714Y-17216723D01*
X42785714Y-17216723D02*
X42738095Y-17026247D01*
X42738095Y-17026247D02*
X42738095Y-16883390D01*
X42738095Y-16883390D02*
X42785714Y-16692914D01*
X42785714Y-16692914D02*
X42833333Y-16597676D01*
X42833333Y-16597676D02*
X42928571Y-16502438D01*
X42928571Y-16502438D02*
X43071428Y-16454819D01*
X43071428Y-16454819D02*
X43166666Y-16454819D01*
X43166666Y-16454819D02*
X43309523Y-16502438D01*
X43309523Y-16502438D02*
X43357142Y-16550057D01*
X44309523Y-17454819D02*
X43738095Y-17454819D01*
X44023809Y-17454819D02*
X44023809Y-16454819D01*
X44023809Y-16454819D02*
X43928571Y-16597676D01*
X43928571Y-16597676D02*
X43833333Y-16692914D01*
X43833333Y-16692914D02*
X43738095Y-16740533D01*
X45261904Y-17454819D02*
X44690476Y-17454819D01*
X44976190Y-17454819D02*
X44976190Y-16454819D01*
X44976190Y-16454819D02*
X44880952Y-16597676D01*
X44880952Y-16597676D02*
X44785714Y-16692914D01*
X44785714Y-16692914D02*
X44690476Y-16740533D01*
X37648095Y-67924819D02*
X37648095Y-68734342D01*
X37648095Y-68734342D02*
X37695714Y-68829580D01*
X37695714Y-68829580D02*
X37743333Y-68877200D01*
X37743333Y-68877200D02*
X37838571Y-68924819D01*
X37838571Y-68924819D02*
X38029047Y-68924819D01*
X38029047Y-68924819D02*
X38124285Y-68877200D01*
X38124285Y-68877200D02*
X38171904Y-68829580D01*
X38171904Y-68829580D02*
X38219523Y-68734342D01*
X38219523Y-68734342D02*
X38219523Y-67924819D01*
X39124285Y-67924819D02*
X38933809Y-67924819D01*
X38933809Y-67924819D02*
X38838571Y-67972438D01*
X38838571Y-67972438D02*
X38790952Y-68020057D01*
X38790952Y-68020057D02*
X38695714Y-68162914D01*
X38695714Y-68162914D02*
X38648095Y-68353390D01*
X38648095Y-68353390D02*
X38648095Y-68734342D01*
X38648095Y-68734342D02*
X38695714Y-68829580D01*
X38695714Y-68829580D02*
X38743333Y-68877200D01*
X38743333Y-68877200D02*
X38838571Y-68924819D01*
X38838571Y-68924819D02*
X39029047Y-68924819D01*
X39029047Y-68924819D02*
X39124285Y-68877200D01*
X39124285Y-68877200D02*
X39171904Y-68829580D01*
X39171904Y-68829580D02*
X39219523Y-68734342D01*
X39219523Y-68734342D02*
X39219523Y-68496247D01*
X39219523Y-68496247D02*
X39171904Y-68401009D01*
X39171904Y-68401009D02*
X39124285Y-68353390D01*
X39124285Y-68353390D02*
X39029047Y-68305771D01*
X39029047Y-68305771D02*
X38838571Y-68305771D01*
X38838571Y-68305771D02*
X38743333Y-68353390D01*
X38743333Y-68353390D02*
X38695714Y-68401009D01*
X38695714Y-68401009D02*
X38648095Y-68496247D01*
X36700042Y-137109580D02*
X36652423Y-137157200D01*
X36652423Y-137157200D02*
X36509566Y-137204819D01*
X36509566Y-137204819D02*
X36414328Y-137204819D01*
X36414328Y-137204819D02*
X36271471Y-137157200D01*
X36271471Y-137157200D02*
X36176233Y-137061961D01*
X36176233Y-137061961D02*
X36128614Y-136966723D01*
X36128614Y-136966723D02*
X36080995Y-136776247D01*
X36080995Y-136776247D02*
X36080995Y-136633390D01*
X36080995Y-136633390D02*
X36128614Y-136442914D01*
X36128614Y-136442914D02*
X36176233Y-136347676D01*
X36176233Y-136347676D02*
X36271471Y-136252438D01*
X36271471Y-136252438D02*
X36414328Y-136204819D01*
X36414328Y-136204819D02*
X36509566Y-136204819D01*
X36509566Y-136204819D02*
X36652423Y-136252438D01*
X36652423Y-136252438D02*
X36700042Y-136300057D01*
X37652423Y-137204819D02*
X37080995Y-137204819D01*
X37366709Y-137204819D02*
X37366709Y-136204819D01*
X37366709Y-136204819D02*
X37271471Y-136347676D01*
X37271471Y-136347676D02*
X37176233Y-136442914D01*
X37176233Y-136442914D02*
X37080995Y-136490533D01*
X38509566Y-136538152D02*
X38509566Y-137204819D01*
X38271471Y-136157200D02*
X38033376Y-136871485D01*
X38033376Y-136871485D02*
X38652423Y-136871485D01*
X113666667Y-18657200D02*
X113809524Y-18704819D01*
X113809524Y-18704819D02*
X114047619Y-18704819D01*
X114047619Y-18704819D02*
X114142857Y-18657200D01*
X114142857Y-18657200D02*
X114190476Y-18609580D01*
X114190476Y-18609580D02*
X114238095Y-18514342D01*
X114238095Y-18514342D02*
X114238095Y-18419104D01*
X114238095Y-18419104D02*
X114190476Y-18323866D01*
X114190476Y-18323866D02*
X114142857Y-18276247D01*
X114142857Y-18276247D02*
X114047619Y-18228628D01*
X114047619Y-18228628D02*
X113857143Y-18181009D01*
X113857143Y-18181009D02*
X113761905Y-18133390D01*
X113761905Y-18133390D02*
X113714286Y-18085771D01*
X113714286Y-18085771D02*
X113666667Y-17990533D01*
X113666667Y-17990533D02*
X113666667Y-17895295D01*
X113666667Y-17895295D02*
X113714286Y-17800057D01*
X113714286Y-17800057D02*
X113761905Y-17752438D01*
X113761905Y-17752438D02*
X113857143Y-17704819D01*
X113857143Y-17704819D02*
X114095238Y-17704819D01*
X114095238Y-17704819D02*
X114238095Y-17752438D01*
X114571429Y-17704819D02*
X114809524Y-18704819D01*
X114809524Y-18704819D02*
X115000000Y-17990533D01*
X115000000Y-17990533D02*
X115190476Y-18704819D01*
X115190476Y-18704819D02*
X115428572Y-17704819D01*
X116333333Y-18704819D02*
X115761905Y-18704819D01*
X116047619Y-18704819D02*
X116047619Y-17704819D01*
X116047619Y-17704819D02*
X115952381Y-17847676D01*
X115952381Y-17847676D02*
X115857143Y-17942914D01*
X115857143Y-17942914D02*
X115761905Y-17990533D01*
X53084819Y-22441666D02*
X52608628Y-22774999D01*
X53084819Y-23013094D02*
X52084819Y-23013094D01*
X52084819Y-23013094D02*
X52084819Y-22632142D01*
X52084819Y-22632142D02*
X52132438Y-22536904D01*
X52132438Y-22536904D02*
X52180057Y-22489285D01*
X52180057Y-22489285D02*
X52275295Y-22441666D01*
X52275295Y-22441666D02*
X52418152Y-22441666D01*
X52418152Y-22441666D02*
X52513390Y-22489285D01*
X52513390Y-22489285D02*
X52561009Y-22536904D01*
X52561009Y-22536904D02*
X52608628Y-22632142D01*
X52608628Y-22632142D02*
X52608628Y-23013094D01*
X52084819Y-22108332D02*
X52084819Y-21489285D01*
X52084819Y-21489285D02*
X52465771Y-21822618D01*
X52465771Y-21822618D02*
X52465771Y-21679761D01*
X52465771Y-21679761D02*
X52513390Y-21584523D01*
X52513390Y-21584523D02*
X52561009Y-21536904D01*
X52561009Y-21536904D02*
X52656247Y-21489285D01*
X52656247Y-21489285D02*
X52894342Y-21489285D01*
X52894342Y-21489285D02*
X52989580Y-21536904D01*
X52989580Y-21536904D02*
X53037200Y-21584523D01*
X53037200Y-21584523D02*
X53084819Y-21679761D01*
X53084819Y-21679761D02*
X53084819Y-21965475D01*
X53084819Y-21965475D02*
X53037200Y-22060713D01*
X53037200Y-22060713D02*
X52989580Y-22108332D01*
X117700476Y-65929819D02*
X118367142Y-66929819D01*
X118367142Y-65929819D02*
X117700476Y-66929819D01*
X119271904Y-66929819D02*
X118700476Y-66929819D01*
X118986190Y-66929819D02*
X118986190Y-65929819D01*
X118986190Y-65929819D02*
X118890952Y-66072676D01*
X118890952Y-66072676D02*
X118795714Y-66167914D01*
X118795714Y-66167914D02*
X118700476Y-66215533D01*
X39109580Y-63896666D02*
X39157200Y-63944285D01*
X39157200Y-63944285D02*
X39204819Y-64087142D01*
X39204819Y-64087142D02*
X39204819Y-64182380D01*
X39204819Y-64182380D02*
X39157200Y-64325237D01*
X39157200Y-64325237D02*
X39061961Y-64420475D01*
X39061961Y-64420475D02*
X38966723Y-64468094D01*
X38966723Y-64468094D02*
X38776247Y-64515713D01*
X38776247Y-64515713D02*
X38633390Y-64515713D01*
X38633390Y-64515713D02*
X38442914Y-64468094D01*
X38442914Y-64468094D02*
X38347676Y-64420475D01*
X38347676Y-64420475D02*
X38252438Y-64325237D01*
X38252438Y-64325237D02*
X38204819Y-64182380D01*
X38204819Y-64182380D02*
X38204819Y-64087142D01*
X38204819Y-64087142D02*
X38252438Y-63944285D01*
X38252438Y-63944285D02*
X38300057Y-63896666D01*
X38204819Y-63039523D02*
X38204819Y-63229999D01*
X38204819Y-63229999D02*
X38252438Y-63325237D01*
X38252438Y-63325237D02*
X38300057Y-63372856D01*
X38300057Y-63372856D02*
X38442914Y-63468094D01*
X38442914Y-63468094D02*
X38633390Y-63515713D01*
X38633390Y-63515713D02*
X39014342Y-63515713D01*
X39014342Y-63515713D02*
X39109580Y-63468094D01*
X39109580Y-63468094D02*
X39157200Y-63420475D01*
X39157200Y-63420475D02*
X39204819Y-63325237D01*
X39204819Y-63325237D02*
X39204819Y-63134761D01*
X39204819Y-63134761D02*
X39157200Y-63039523D01*
X39157200Y-63039523D02*
X39109580Y-62991904D01*
X39109580Y-62991904D02*
X39014342Y-62944285D01*
X39014342Y-62944285D02*
X38776247Y-62944285D01*
X38776247Y-62944285D02*
X38681009Y-62991904D01*
X38681009Y-62991904D02*
X38633390Y-63039523D01*
X38633390Y-63039523D02*
X38585771Y-63134761D01*
X38585771Y-63134761D02*
X38585771Y-63325237D01*
X38585771Y-63325237D02*
X38633390Y-63420475D01*
X38633390Y-63420475D02*
X38681009Y-63468094D01*
X38681009Y-63468094D02*
X38776247Y-63515713D01*
X105334819Y-26191666D02*
X104858628Y-26524999D01*
X105334819Y-26763094D02*
X104334819Y-26763094D01*
X104334819Y-26763094D02*
X104334819Y-26382142D01*
X104334819Y-26382142D02*
X104382438Y-26286904D01*
X104382438Y-26286904D02*
X104430057Y-26239285D01*
X104430057Y-26239285D02*
X104525295Y-26191666D01*
X104525295Y-26191666D02*
X104668152Y-26191666D01*
X104668152Y-26191666D02*
X104763390Y-26239285D01*
X104763390Y-26239285D02*
X104811009Y-26286904D01*
X104811009Y-26286904D02*
X104858628Y-26382142D01*
X104858628Y-26382142D02*
X104858628Y-26763094D01*
X105334819Y-25715475D02*
X105334819Y-25524999D01*
X105334819Y-25524999D02*
X105287200Y-25429761D01*
X105287200Y-25429761D02*
X105239580Y-25382142D01*
X105239580Y-25382142D02*
X105096723Y-25286904D01*
X105096723Y-25286904D02*
X104906247Y-25239285D01*
X104906247Y-25239285D02*
X104525295Y-25239285D01*
X104525295Y-25239285D02*
X104430057Y-25286904D01*
X104430057Y-25286904D02*
X104382438Y-25334523D01*
X104382438Y-25334523D02*
X104334819Y-25429761D01*
X104334819Y-25429761D02*
X104334819Y-25620237D01*
X104334819Y-25620237D02*
X104382438Y-25715475D01*
X104382438Y-25715475D02*
X104430057Y-25763094D01*
X104430057Y-25763094D02*
X104525295Y-25810713D01*
X104525295Y-25810713D02*
X104763390Y-25810713D01*
X104763390Y-25810713D02*
X104858628Y-25763094D01*
X104858628Y-25763094D02*
X104906247Y-25715475D01*
X104906247Y-25715475D02*
X104953866Y-25620237D01*
X104953866Y-25620237D02*
X104953866Y-25429761D01*
X104953866Y-25429761D02*
X104906247Y-25334523D01*
X104906247Y-25334523D02*
X104858628Y-25286904D01*
X104858628Y-25286904D02*
X104763390Y-25239285D01*
X120333333Y-56609580D02*
X120285714Y-56657200D01*
X120285714Y-56657200D02*
X120142857Y-56704819D01*
X120142857Y-56704819D02*
X120047619Y-56704819D01*
X120047619Y-56704819D02*
X119904762Y-56657200D01*
X119904762Y-56657200D02*
X119809524Y-56561961D01*
X119809524Y-56561961D02*
X119761905Y-56466723D01*
X119761905Y-56466723D02*
X119714286Y-56276247D01*
X119714286Y-56276247D02*
X119714286Y-56133390D01*
X119714286Y-56133390D02*
X119761905Y-55942914D01*
X119761905Y-55942914D02*
X119809524Y-55847676D01*
X119809524Y-55847676D02*
X119904762Y-55752438D01*
X119904762Y-55752438D02*
X120047619Y-55704819D01*
X120047619Y-55704819D02*
X120142857Y-55704819D01*
X120142857Y-55704819D02*
X120285714Y-55752438D01*
X120285714Y-55752438D02*
X120333333Y-55800057D01*
X120904762Y-56133390D02*
X120809524Y-56085771D01*
X120809524Y-56085771D02*
X120761905Y-56038152D01*
X120761905Y-56038152D02*
X120714286Y-55942914D01*
X120714286Y-55942914D02*
X120714286Y-55895295D01*
X120714286Y-55895295D02*
X120761905Y-55800057D01*
X120761905Y-55800057D02*
X120809524Y-55752438D01*
X120809524Y-55752438D02*
X120904762Y-55704819D01*
X120904762Y-55704819D02*
X121095238Y-55704819D01*
X121095238Y-55704819D02*
X121190476Y-55752438D01*
X121190476Y-55752438D02*
X121238095Y-55800057D01*
X121238095Y-55800057D02*
X121285714Y-55895295D01*
X121285714Y-55895295D02*
X121285714Y-55942914D01*
X121285714Y-55942914D02*
X121238095Y-56038152D01*
X121238095Y-56038152D02*
X121190476Y-56085771D01*
X121190476Y-56085771D02*
X121095238Y-56133390D01*
X121095238Y-56133390D02*
X120904762Y-56133390D01*
X120904762Y-56133390D02*
X120809524Y-56181009D01*
X120809524Y-56181009D02*
X120761905Y-56228628D01*
X120761905Y-56228628D02*
X120714286Y-56323866D01*
X120714286Y-56323866D02*
X120714286Y-56514342D01*
X120714286Y-56514342D02*
X120761905Y-56609580D01*
X120761905Y-56609580D02*
X120809524Y-56657200D01*
X120809524Y-56657200D02*
X120904762Y-56704819D01*
X120904762Y-56704819D02*
X121095238Y-56704819D01*
X121095238Y-56704819D02*
X121190476Y-56657200D01*
X121190476Y-56657200D02*
X121238095Y-56609580D01*
X121238095Y-56609580D02*
X121285714Y-56514342D01*
X121285714Y-56514342D02*
X121285714Y-56323866D01*
X121285714Y-56323866D02*
X121238095Y-56228628D01*
X121238095Y-56228628D02*
X121190476Y-56181009D01*
X121190476Y-56181009D02*
X121095238Y-56133390D01*
X65700476Y-15929819D02*
X66367142Y-16929819D01*
X66367142Y-15929819D02*
X65700476Y-16929819D01*
X66700476Y-16025057D02*
X66748095Y-15977438D01*
X66748095Y-15977438D02*
X66843333Y-15929819D01*
X66843333Y-15929819D02*
X67081428Y-15929819D01*
X67081428Y-15929819D02*
X67176666Y-15977438D01*
X67176666Y-15977438D02*
X67224285Y-16025057D01*
X67224285Y-16025057D02*
X67271904Y-16120295D01*
X67271904Y-16120295D02*
X67271904Y-16215533D01*
X67271904Y-16215533D02*
X67224285Y-16358390D01*
X67224285Y-16358390D02*
X66652857Y-16929819D01*
X66652857Y-16929819D02*
X67271904Y-16929819D01*
X66378095Y-101184819D02*
X66378095Y-101994342D01*
X66378095Y-101994342D02*
X66425714Y-102089580D01*
X66425714Y-102089580D02*
X66473333Y-102137200D01*
X66473333Y-102137200D02*
X66568571Y-102184819D01*
X66568571Y-102184819D02*
X66759047Y-102184819D01*
X66759047Y-102184819D02*
X66854285Y-102137200D01*
X66854285Y-102137200D02*
X66901904Y-102089580D01*
X66901904Y-102089580D02*
X66949523Y-101994342D01*
X66949523Y-101994342D02*
X66949523Y-101184819D01*
X67330476Y-101184819D02*
X67949523Y-101184819D01*
X67949523Y-101184819D02*
X67616190Y-101565771D01*
X67616190Y-101565771D02*
X67759047Y-101565771D01*
X67759047Y-101565771D02*
X67854285Y-101613390D01*
X67854285Y-101613390D02*
X67901904Y-101661009D01*
X67901904Y-101661009D02*
X67949523Y-101756247D01*
X67949523Y-101756247D02*
X67949523Y-101994342D01*
X67949523Y-101994342D02*
X67901904Y-102089580D01*
X67901904Y-102089580D02*
X67854285Y-102137200D01*
X67854285Y-102137200D02*
X67759047Y-102184819D01*
X67759047Y-102184819D02*
X67473333Y-102184819D01*
X67473333Y-102184819D02*
X67378095Y-102137200D01*
X67378095Y-102137200D02*
X67330476Y-102089580D01*
X76464819Y-20333333D02*
X77179104Y-20333333D01*
X77179104Y-20333333D02*
X77321961Y-20380952D01*
X77321961Y-20380952D02*
X77417200Y-20476190D01*
X77417200Y-20476190D02*
X77464819Y-20619047D01*
X77464819Y-20619047D02*
X77464819Y-20714285D01*
X76560057Y-19904761D02*
X76512438Y-19857142D01*
X76512438Y-19857142D02*
X76464819Y-19761904D01*
X76464819Y-19761904D02*
X76464819Y-19523809D01*
X76464819Y-19523809D02*
X76512438Y-19428571D01*
X76512438Y-19428571D02*
X76560057Y-19380952D01*
X76560057Y-19380952D02*
X76655295Y-19333333D01*
X76655295Y-19333333D02*
X76750533Y-19333333D01*
X76750533Y-19333333D02*
X76893390Y-19380952D01*
X76893390Y-19380952D02*
X77464819Y-19952380D01*
X77464819Y-19952380D02*
X77464819Y-19333333D01*
X97118095Y-106224819D02*
X97118095Y-107034342D01*
X97118095Y-107034342D02*
X97165714Y-107129580D01*
X97165714Y-107129580D02*
X97213333Y-107177200D01*
X97213333Y-107177200D02*
X97308571Y-107224819D01*
X97308571Y-107224819D02*
X97499047Y-107224819D01*
X97499047Y-107224819D02*
X97594285Y-107177200D01*
X97594285Y-107177200D02*
X97641904Y-107129580D01*
X97641904Y-107129580D02*
X97689523Y-107034342D01*
X97689523Y-107034342D02*
X97689523Y-106224819D01*
X98118095Y-106320057D02*
X98165714Y-106272438D01*
X98165714Y-106272438D02*
X98260952Y-106224819D01*
X98260952Y-106224819D02*
X98499047Y-106224819D01*
X98499047Y-106224819D02*
X98594285Y-106272438D01*
X98594285Y-106272438D02*
X98641904Y-106320057D01*
X98641904Y-106320057D02*
X98689523Y-106415295D01*
X98689523Y-106415295D02*
X98689523Y-106510533D01*
X98689523Y-106510533D02*
X98641904Y-106653390D01*
X98641904Y-106653390D02*
X98070476Y-107224819D01*
X98070476Y-107224819D02*
X98689523Y-107224819D01*
X66990433Y-151109580D02*
X66942814Y-151157200D01*
X66942814Y-151157200D02*
X66799957Y-151204819D01*
X66799957Y-151204819D02*
X66704719Y-151204819D01*
X66704719Y-151204819D02*
X66561862Y-151157200D01*
X66561862Y-151157200D02*
X66466624Y-151061961D01*
X66466624Y-151061961D02*
X66419005Y-150966723D01*
X66419005Y-150966723D02*
X66371386Y-150776247D01*
X66371386Y-150776247D02*
X66371386Y-150633390D01*
X66371386Y-150633390D02*
X66419005Y-150442914D01*
X66419005Y-150442914D02*
X66466624Y-150347676D01*
X66466624Y-150347676D02*
X66561862Y-150252438D01*
X66561862Y-150252438D02*
X66704719Y-150204819D01*
X66704719Y-150204819D02*
X66799957Y-150204819D01*
X66799957Y-150204819D02*
X66942814Y-150252438D01*
X66942814Y-150252438D02*
X66990433Y-150300057D01*
X67323767Y-150204819D02*
X67942814Y-150204819D01*
X67942814Y-150204819D02*
X67609481Y-150585771D01*
X67609481Y-150585771D02*
X67752338Y-150585771D01*
X67752338Y-150585771D02*
X67847576Y-150633390D01*
X67847576Y-150633390D02*
X67895195Y-150681009D01*
X67895195Y-150681009D02*
X67942814Y-150776247D01*
X67942814Y-150776247D02*
X67942814Y-151014342D01*
X67942814Y-151014342D02*
X67895195Y-151109580D01*
X67895195Y-151109580D02*
X67847576Y-151157200D01*
X67847576Y-151157200D02*
X67752338Y-151204819D01*
X67752338Y-151204819D02*
X67466624Y-151204819D01*
X67466624Y-151204819D02*
X67371386Y-151157200D01*
X67371386Y-151157200D02*
X67323767Y-151109580D01*
X38048095Y-34834819D02*
X38048095Y-35644342D01*
X38048095Y-35644342D02*
X38095714Y-35739580D01*
X38095714Y-35739580D02*
X38143333Y-35787200D01*
X38143333Y-35787200D02*
X38238571Y-35834819D01*
X38238571Y-35834819D02*
X38429047Y-35834819D01*
X38429047Y-35834819D02*
X38524285Y-35787200D01*
X38524285Y-35787200D02*
X38571904Y-35739580D01*
X38571904Y-35739580D02*
X38619523Y-35644342D01*
X38619523Y-35644342D02*
X38619523Y-34834819D01*
X39571904Y-34834819D02*
X39095714Y-34834819D01*
X39095714Y-34834819D02*
X39048095Y-35311009D01*
X39048095Y-35311009D02*
X39095714Y-35263390D01*
X39095714Y-35263390D02*
X39190952Y-35215771D01*
X39190952Y-35215771D02*
X39429047Y-35215771D01*
X39429047Y-35215771D02*
X39524285Y-35263390D01*
X39524285Y-35263390D02*
X39571904Y-35311009D01*
X39571904Y-35311009D02*
X39619523Y-35406247D01*
X39619523Y-35406247D02*
X39619523Y-35644342D01*
X39619523Y-35644342D02*
X39571904Y-35739580D01*
X39571904Y-35739580D02*
X39524285Y-35787200D01*
X39524285Y-35787200D02*
X39429047Y-35834819D01*
X39429047Y-35834819D02*
X39190952Y-35834819D01*
X39190952Y-35834819D02*
X39095714Y-35787200D01*
X39095714Y-35787200D02*
X39048095Y-35739580D01*
X36607142Y-131859580D02*
X36559523Y-131907200D01*
X36559523Y-131907200D02*
X36416666Y-131954819D01*
X36416666Y-131954819D02*
X36321428Y-131954819D01*
X36321428Y-131954819D02*
X36178571Y-131907200D01*
X36178571Y-131907200D02*
X36083333Y-131811961D01*
X36083333Y-131811961D02*
X36035714Y-131716723D01*
X36035714Y-131716723D02*
X35988095Y-131526247D01*
X35988095Y-131526247D02*
X35988095Y-131383390D01*
X35988095Y-131383390D02*
X36035714Y-131192914D01*
X36035714Y-131192914D02*
X36083333Y-131097676D01*
X36083333Y-131097676D02*
X36178571Y-131002438D01*
X36178571Y-131002438D02*
X36321428Y-130954819D01*
X36321428Y-130954819D02*
X36416666Y-130954819D01*
X36416666Y-130954819D02*
X36559523Y-131002438D01*
X36559523Y-131002438D02*
X36607142Y-131050057D01*
X37559523Y-131954819D02*
X36988095Y-131954819D01*
X37273809Y-131954819D02*
X37273809Y-130954819D01*
X37273809Y-130954819D02*
X37178571Y-131097676D01*
X37178571Y-131097676D02*
X37083333Y-131192914D01*
X37083333Y-131192914D02*
X36988095Y-131240533D01*
X38464285Y-130954819D02*
X37988095Y-130954819D01*
X37988095Y-130954819D02*
X37940476Y-131431009D01*
X37940476Y-131431009D02*
X37988095Y-131383390D01*
X37988095Y-131383390D02*
X38083333Y-131335771D01*
X38083333Y-131335771D02*
X38321428Y-131335771D01*
X38321428Y-131335771D02*
X38416666Y-131383390D01*
X38416666Y-131383390D02*
X38464285Y-131431009D01*
X38464285Y-131431009D02*
X38511904Y-131526247D01*
X38511904Y-131526247D02*
X38511904Y-131764342D01*
X38511904Y-131764342D02*
X38464285Y-131859580D01*
X38464285Y-131859580D02*
X38416666Y-131907200D01*
X38416666Y-131907200D02*
X38321428Y-131954819D01*
X38321428Y-131954819D02*
X38083333Y-131954819D01*
X38083333Y-131954819D02*
X37988095Y-131907200D01*
X37988095Y-131907200D02*
X37940476Y-131859580D01*
X57564819Y-79141904D02*
X58374342Y-79141904D01*
X58374342Y-79141904D02*
X58469580Y-79094285D01*
X58469580Y-79094285D02*
X58517200Y-79046666D01*
X58517200Y-79046666D02*
X58564819Y-78951428D01*
X58564819Y-78951428D02*
X58564819Y-78760952D01*
X58564819Y-78760952D02*
X58517200Y-78665714D01*
X58517200Y-78665714D02*
X58469580Y-78618095D01*
X58469580Y-78618095D02*
X58374342Y-78570476D01*
X58374342Y-78570476D02*
X57564819Y-78570476D01*
X58564819Y-77570476D02*
X58564819Y-78141904D01*
X58564819Y-77856190D02*
X57564819Y-77856190D01*
X57564819Y-77856190D02*
X57707676Y-77951428D01*
X57707676Y-77951428D02*
X57802914Y-78046666D01*
X57802914Y-78046666D02*
X57850533Y-78141904D01*
X62084819Y-29891666D02*
X61608628Y-30224999D01*
X62084819Y-30463094D02*
X61084819Y-30463094D01*
X61084819Y-30463094D02*
X61084819Y-30082142D01*
X61084819Y-30082142D02*
X61132438Y-29986904D01*
X61132438Y-29986904D02*
X61180057Y-29939285D01*
X61180057Y-29939285D02*
X61275295Y-29891666D01*
X61275295Y-29891666D02*
X61418152Y-29891666D01*
X61418152Y-29891666D02*
X61513390Y-29939285D01*
X61513390Y-29939285D02*
X61561009Y-29986904D01*
X61561009Y-29986904D02*
X61608628Y-30082142D01*
X61608628Y-30082142D02*
X61608628Y-30463094D01*
X61180057Y-29510713D02*
X61132438Y-29463094D01*
X61132438Y-29463094D02*
X61084819Y-29367856D01*
X61084819Y-29367856D02*
X61084819Y-29129761D01*
X61084819Y-29129761D02*
X61132438Y-29034523D01*
X61132438Y-29034523D02*
X61180057Y-28986904D01*
X61180057Y-28986904D02*
X61275295Y-28939285D01*
X61275295Y-28939285D02*
X61370533Y-28939285D01*
X61370533Y-28939285D02*
X61513390Y-28986904D01*
X61513390Y-28986904D02*
X62084819Y-29558332D01*
X62084819Y-29558332D02*
X62084819Y-28939285D01*
X107084819Y-61691666D02*
X106608628Y-62024999D01*
X107084819Y-62263094D02*
X106084819Y-62263094D01*
X106084819Y-62263094D02*
X106084819Y-61882142D01*
X106084819Y-61882142D02*
X106132438Y-61786904D01*
X106132438Y-61786904D02*
X106180057Y-61739285D01*
X106180057Y-61739285D02*
X106275295Y-61691666D01*
X106275295Y-61691666D02*
X106418152Y-61691666D01*
X106418152Y-61691666D02*
X106513390Y-61739285D01*
X106513390Y-61739285D02*
X106561009Y-61786904D01*
X106561009Y-61786904D02*
X106608628Y-61882142D01*
X106608628Y-61882142D02*
X106608628Y-62263094D01*
X106418152Y-60834523D02*
X107084819Y-60834523D01*
X106037200Y-61072618D02*
X106751485Y-61310713D01*
X106751485Y-61310713D02*
X106751485Y-60691666D01*
X39359580Y-31698666D02*
X39407200Y-31746285D01*
X39407200Y-31746285D02*
X39454819Y-31889142D01*
X39454819Y-31889142D02*
X39454819Y-31984380D01*
X39454819Y-31984380D02*
X39407200Y-32127237D01*
X39407200Y-32127237D02*
X39311961Y-32222475D01*
X39311961Y-32222475D02*
X39216723Y-32270094D01*
X39216723Y-32270094D02*
X39026247Y-32317713D01*
X39026247Y-32317713D02*
X38883390Y-32317713D01*
X38883390Y-32317713D02*
X38692914Y-32270094D01*
X38692914Y-32270094D02*
X38597676Y-32222475D01*
X38597676Y-32222475D02*
X38502438Y-32127237D01*
X38502438Y-32127237D02*
X38454819Y-31984380D01*
X38454819Y-31984380D02*
X38454819Y-31889142D01*
X38454819Y-31889142D02*
X38502438Y-31746285D01*
X38502438Y-31746285D02*
X38550057Y-31698666D01*
X38454819Y-31365332D02*
X38454819Y-30698666D01*
X38454819Y-30698666D02*
X39454819Y-31127237D01*
X112109580Y-49896666D02*
X112157200Y-49944285D01*
X112157200Y-49944285D02*
X112204819Y-50087142D01*
X112204819Y-50087142D02*
X112204819Y-50182380D01*
X112204819Y-50182380D02*
X112157200Y-50325237D01*
X112157200Y-50325237D02*
X112061961Y-50420475D01*
X112061961Y-50420475D02*
X111966723Y-50468094D01*
X111966723Y-50468094D02*
X111776247Y-50515713D01*
X111776247Y-50515713D02*
X111633390Y-50515713D01*
X111633390Y-50515713D02*
X111442914Y-50468094D01*
X111442914Y-50468094D02*
X111347676Y-50420475D01*
X111347676Y-50420475D02*
X111252438Y-50325237D01*
X111252438Y-50325237D02*
X111204819Y-50182380D01*
X111204819Y-50182380D02*
X111204819Y-50087142D01*
X111204819Y-50087142D02*
X111252438Y-49944285D01*
X111252438Y-49944285D02*
X111300057Y-49896666D01*
X111300057Y-49515713D02*
X111252438Y-49468094D01*
X111252438Y-49468094D02*
X111204819Y-49372856D01*
X111204819Y-49372856D02*
X111204819Y-49134761D01*
X111204819Y-49134761D02*
X111252438Y-49039523D01*
X111252438Y-49039523D02*
X111300057Y-48991904D01*
X111300057Y-48991904D02*
X111395295Y-48944285D01*
X111395295Y-48944285D02*
X111490533Y-48944285D01*
X111490533Y-48944285D02*
X111633390Y-48991904D01*
X111633390Y-48991904D02*
X112204819Y-49563332D01*
X112204819Y-49563332D02*
X112204819Y-48944285D01*
X62824819Y-97641666D02*
X62348628Y-97974999D01*
X62824819Y-98213094D02*
X61824819Y-98213094D01*
X61824819Y-98213094D02*
X61824819Y-97832142D01*
X61824819Y-97832142D02*
X61872438Y-97736904D01*
X61872438Y-97736904D02*
X61920057Y-97689285D01*
X61920057Y-97689285D02*
X62015295Y-97641666D01*
X62015295Y-97641666D02*
X62158152Y-97641666D01*
X62158152Y-97641666D02*
X62253390Y-97689285D01*
X62253390Y-97689285D02*
X62301009Y-97736904D01*
X62301009Y-97736904D02*
X62348628Y-97832142D01*
X62348628Y-97832142D02*
X62348628Y-98213094D01*
X62253390Y-97070237D02*
X62205771Y-97165475D01*
X62205771Y-97165475D02*
X62158152Y-97213094D01*
X62158152Y-97213094D02*
X62062914Y-97260713D01*
X62062914Y-97260713D02*
X62015295Y-97260713D01*
X62015295Y-97260713D02*
X61920057Y-97213094D01*
X61920057Y-97213094D02*
X61872438Y-97165475D01*
X61872438Y-97165475D02*
X61824819Y-97070237D01*
X61824819Y-97070237D02*
X61824819Y-96879761D01*
X61824819Y-96879761D02*
X61872438Y-96784523D01*
X61872438Y-96784523D02*
X61920057Y-96736904D01*
X61920057Y-96736904D02*
X62015295Y-96689285D01*
X62015295Y-96689285D02*
X62062914Y-96689285D01*
X62062914Y-96689285D02*
X62158152Y-96736904D01*
X62158152Y-96736904D02*
X62205771Y-96784523D01*
X62205771Y-96784523D02*
X62253390Y-96879761D01*
X62253390Y-96879761D02*
X62253390Y-97070237D01*
X62253390Y-97070237D02*
X62301009Y-97165475D01*
X62301009Y-97165475D02*
X62348628Y-97213094D01*
X62348628Y-97213094D02*
X62443866Y-97260713D01*
X62443866Y-97260713D02*
X62634342Y-97260713D01*
X62634342Y-97260713D02*
X62729580Y-97213094D01*
X62729580Y-97213094D02*
X62777200Y-97165475D01*
X62777200Y-97165475D02*
X62824819Y-97070237D01*
X62824819Y-97070237D02*
X62824819Y-96879761D01*
X62824819Y-96879761D02*
X62777200Y-96784523D01*
X62777200Y-96784523D02*
X62729580Y-96736904D01*
X62729580Y-96736904D02*
X62634342Y-96689285D01*
X62634342Y-96689285D02*
X62443866Y-96689285D01*
X62443866Y-96689285D02*
X62348628Y-96736904D01*
X62348628Y-96736904D02*
X62301009Y-96784523D01*
X62301009Y-96784523D02*
X62253390Y-96879761D01*
X51834819Y-40641666D02*
X51358628Y-40974999D01*
X51834819Y-41213094D02*
X50834819Y-41213094D01*
X50834819Y-41213094D02*
X50834819Y-40832142D01*
X50834819Y-40832142D02*
X50882438Y-40736904D01*
X50882438Y-40736904D02*
X50930057Y-40689285D01*
X50930057Y-40689285D02*
X51025295Y-40641666D01*
X51025295Y-40641666D02*
X51168152Y-40641666D01*
X51168152Y-40641666D02*
X51263390Y-40689285D01*
X51263390Y-40689285D02*
X51311009Y-40736904D01*
X51311009Y-40736904D02*
X51358628Y-40832142D01*
X51358628Y-40832142D02*
X51358628Y-41213094D01*
X50834819Y-40308332D02*
X50834819Y-39641666D01*
X50834819Y-39641666D02*
X51834819Y-40070237D01*
X116333333Y-56609580D02*
X116285714Y-56657200D01*
X116285714Y-56657200D02*
X116142857Y-56704819D01*
X116142857Y-56704819D02*
X116047619Y-56704819D01*
X116047619Y-56704819D02*
X115904762Y-56657200D01*
X115904762Y-56657200D02*
X115809524Y-56561961D01*
X115809524Y-56561961D02*
X115761905Y-56466723D01*
X115761905Y-56466723D02*
X115714286Y-56276247D01*
X115714286Y-56276247D02*
X115714286Y-56133390D01*
X115714286Y-56133390D02*
X115761905Y-55942914D01*
X115761905Y-55942914D02*
X115809524Y-55847676D01*
X115809524Y-55847676D02*
X115904762Y-55752438D01*
X115904762Y-55752438D02*
X116047619Y-55704819D01*
X116047619Y-55704819D02*
X116142857Y-55704819D01*
X116142857Y-55704819D02*
X116285714Y-55752438D01*
X116285714Y-55752438D02*
X116333333Y-55800057D01*
X116809524Y-56704819D02*
X117000000Y-56704819D01*
X117000000Y-56704819D02*
X117095238Y-56657200D01*
X117095238Y-56657200D02*
X117142857Y-56609580D01*
X117142857Y-56609580D02*
X117238095Y-56466723D01*
X117238095Y-56466723D02*
X117285714Y-56276247D01*
X117285714Y-56276247D02*
X117285714Y-55895295D01*
X117285714Y-55895295D02*
X117238095Y-55800057D01*
X117238095Y-55800057D02*
X117190476Y-55752438D01*
X117190476Y-55752438D02*
X117095238Y-55704819D01*
X117095238Y-55704819D02*
X116904762Y-55704819D01*
X116904762Y-55704819D02*
X116809524Y-55752438D01*
X116809524Y-55752438D02*
X116761905Y-55800057D01*
X116761905Y-55800057D02*
X116714286Y-55895295D01*
X116714286Y-55895295D02*
X116714286Y-56133390D01*
X116714286Y-56133390D02*
X116761905Y-56228628D01*
X116761905Y-56228628D02*
X116809524Y-56276247D01*
X116809524Y-56276247D02*
X116904762Y-56323866D01*
X116904762Y-56323866D02*
X117095238Y-56323866D01*
X117095238Y-56323866D02*
X117190476Y-56276247D01*
X117190476Y-56276247D02*
X117238095Y-56228628D01*
X117238095Y-56228628D02*
X117285714Y-56133390D01*
X36827042Y-143109580D02*
X36779423Y-143157200D01*
X36779423Y-143157200D02*
X36636566Y-143204819D01*
X36636566Y-143204819D02*
X36541328Y-143204819D01*
X36541328Y-143204819D02*
X36398471Y-143157200D01*
X36398471Y-143157200D02*
X36303233Y-143061961D01*
X36303233Y-143061961D02*
X36255614Y-142966723D01*
X36255614Y-142966723D02*
X36207995Y-142776247D01*
X36207995Y-142776247D02*
X36207995Y-142633390D01*
X36207995Y-142633390D02*
X36255614Y-142442914D01*
X36255614Y-142442914D02*
X36303233Y-142347676D01*
X36303233Y-142347676D02*
X36398471Y-142252438D01*
X36398471Y-142252438D02*
X36541328Y-142204819D01*
X36541328Y-142204819D02*
X36636566Y-142204819D01*
X36636566Y-142204819D02*
X36779423Y-142252438D01*
X36779423Y-142252438D02*
X36827042Y-142300057D01*
X37779423Y-143204819D02*
X37207995Y-143204819D01*
X37493709Y-143204819D02*
X37493709Y-142204819D01*
X37493709Y-142204819D02*
X37398471Y-142347676D01*
X37398471Y-142347676D02*
X37303233Y-142442914D01*
X37303233Y-142442914D02*
X37207995Y-142490533D01*
X38112757Y-142204819D02*
X38731804Y-142204819D01*
X38731804Y-142204819D02*
X38398471Y-142585771D01*
X38398471Y-142585771D02*
X38541328Y-142585771D01*
X38541328Y-142585771D02*
X38636566Y-142633390D01*
X38636566Y-142633390D02*
X38684185Y-142681009D01*
X38684185Y-142681009D02*
X38731804Y-142776247D01*
X38731804Y-142776247D02*
X38731804Y-143014342D01*
X38731804Y-143014342D02*
X38684185Y-143109580D01*
X38684185Y-143109580D02*
X38636566Y-143157200D01*
X38636566Y-143157200D02*
X38541328Y-143204819D01*
X38541328Y-143204819D02*
X38255614Y-143204819D01*
X38255614Y-143204819D02*
X38160376Y-143157200D01*
X38160376Y-143157200D02*
X38112757Y-143109580D01*
X38859580Y-97166666D02*
X38907200Y-97214285D01*
X38907200Y-97214285D02*
X38954819Y-97357142D01*
X38954819Y-97357142D02*
X38954819Y-97452380D01*
X38954819Y-97452380D02*
X38907200Y-97595237D01*
X38907200Y-97595237D02*
X38811961Y-97690475D01*
X38811961Y-97690475D02*
X38716723Y-97738094D01*
X38716723Y-97738094D02*
X38526247Y-97785713D01*
X38526247Y-97785713D02*
X38383390Y-97785713D01*
X38383390Y-97785713D02*
X38192914Y-97738094D01*
X38192914Y-97738094D02*
X38097676Y-97690475D01*
X38097676Y-97690475D02*
X38002438Y-97595237D01*
X38002438Y-97595237D02*
X37954819Y-97452380D01*
X37954819Y-97452380D02*
X37954819Y-97357142D01*
X37954819Y-97357142D02*
X38002438Y-97214285D01*
X38002438Y-97214285D02*
X38050057Y-97166666D01*
X37954819Y-96261904D02*
X37954819Y-96738094D01*
X37954819Y-96738094D02*
X38431009Y-96785713D01*
X38431009Y-96785713D02*
X38383390Y-96738094D01*
X38383390Y-96738094D02*
X38335771Y-96642856D01*
X38335771Y-96642856D02*
X38335771Y-96404761D01*
X38335771Y-96404761D02*
X38383390Y-96309523D01*
X38383390Y-96309523D02*
X38431009Y-96261904D01*
X38431009Y-96261904D02*
X38526247Y-96214285D01*
X38526247Y-96214285D02*
X38764342Y-96214285D01*
X38764342Y-96214285D02*
X38859580Y-96261904D01*
X38859580Y-96261904D02*
X38907200Y-96309523D01*
X38907200Y-96309523D02*
X38954819Y-96404761D01*
X38954819Y-96404761D02*
X38954819Y-96642856D01*
X38954819Y-96642856D02*
X38907200Y-96738094D01*
X38907200Y-96738094D02*
X38859580Y-96785713D01*
X41609580Y-25642857D02*
X41657200Y-25690476D01*
X41657200Y-25690476D02*
X41704819Y-25833333D01*
X41704819Y-25833333D02*
X41704819Y-25928571D01*
X41704819Y-25928571D02*
X41657200Y-26071428D01*
X41657200Y-26071428D02*
X41561961Y-26166666D01*
X41561961Y-26166666D02*
X41466723Y-26214285D01*
X41466723Y-26214285D02*
X41276247Y-26261904D01*
X41276247Y-26261904D02*
X41133390Y-26261904D01*
X41133390Y-26261904D02*
X40942914Y-26214285D01*
X40942914Y-26214285D02*
X40847676Y-26166666D01*
X40847676Y-26166666D02*
X40752438Y-26071428D01*
X40752438Y-26071428D02*
X40704819Y-25928571D01*
X40704819Y-25928571D02*
X40704819Y-25833333D01*
X40704819Y-25833333D02*
X40752438Y-25690476D01*
X40752438Y-25690476D02*
X40800057Y-25642857D01*
X41704819Y-24690476D02*
X41704819Y-25261904D01*
X41704819Y-24976190D02*
X40704819Y-24976190D01*
X40704819Y-24976190D02*
X40847676Y-25071428D01*
X40847676Y-25071428D02*
X40942914Y-25166666D01*
X40942914Y-25166666D02*
X40990533Y-25261904D01*
X40800057Y-24309523D02*
X40752438Y-24261904D01*
X40752438Y-24261904D02*
X40704819Y-24166666D01*
X40704819Y-24166666D02*
X40704819Y-23928571D01*
X40704819Y-23928571D02*
X40752438Y-23833333D01*
X40752438Y-23833333D02*
X40800057Y-23785714D01*
X40800057Y-23785714D02*
X40895295Y-23738095D01*
X40895295Y-23738095D02*
X40990533Y-23738095D01*
X40990533Y-23738095D02*
X41133390Y-23785714D01*
X41133390Y-23785714D02*
X41704819Y-24357142D01*
X41704819Y-24357142D02*
X41704819Y-23738095D01*
X33124819Y-128833333D02*
X33839104Y-128833333D01*
X33839104Y-128833333D02*
X33981961Y-128880952D01*
X33981961Y-128880952D02*
X34077200Y-128976190D01*
X34077200Y-128976190D02*
X34124819Y-129119047D01*
X34124819Y-129119047D02*
X34124819Y-129214285D01*
X34124819Y-127833333D02*
X34124819Y-128404761D01*
X34124819Y-128119047D02*
X33124819Y-128119047D01*
X33124819Y-128119047D02*
X33267676Y-128214285D01*
X33267676Y-128214285D02*
X33362914Y-128309523D01*
X33362914Y-128309523D02*
X33410533Y-128404761D01*
X37248095Y-100249819D02*
X37248095Y-101059342D01*
X37248095Y-101059342D02*
X37295714Y-101154580D01*
X37295714Y-101154580D02*
X37343333Y-101202200D01*
X37343333Y-101202200D02*
X37438571Y-101249819D01*
X37438571Y-101249819D02*
X37629047Y-101249819D01*
X37629047Y-101249819D02*
X37724285Y-101202200D01*
X37724285Y-101202200D02*
X37771904Y-101154580D01*
X37771904Y-101154580D02*
X37819523Y-101059342D01*
X37819523Y-101059342D02*
X37819523Y-100249819D01*
X38200476Y-100249819D02*
X38867142Y-100249819D01*
X38867142Y-100249819D02*
X38438571Y-101249819D01*
X114607142Y-27359580D02*
X114559523Y-27407200D01*
X114559523Y-27407200D02*
X114416666Y-27454819D01*
X114416666Y-27454819D02*
X114321428Y-27454819D01*
X114321428Y-27454819D02*
X114178571Y-27407200D01*
X114178571Y-27407200D02*
X114083333Y-27311961D01*
X114083333Y-27311961D02*
X114035714Y-27216723D01*
X114035714Y-27216723D02*
X113988095Y-27026247D01*
X113988095Y-27026247D02*
X113988095Y-26883390D01*
X113988095Y-26883390D02*
X114035714Y-26692914D01*
X114035714Y-26692914D02*
X114083333Y-26597676D01*
X114083333Y-26597676D02*
X114178571Y-26502438D01*
X114178571Y-26502438D02*
X114321428Y-26454819D01*
X114321428Y-26454819D02*
X114416666Y-26454819D01*
X114416666Y-26454819D02*
X114559523Y-26502438D01*
X114559523Y-26502438D02*
X114607142Y-26550057D01*
X115559523Y-27454819D02*
X114988095Y-27454819D01*
X115273809Y-27454819D02*
X115273809Y-26454819D01*
X115273809Y-26454819D02*
X115178571Y-26597676D01*
X115178571Y-26597676D02*
X115083333Y-26692914D01*
X115083333Y-26692914D02*
X114988095Y-26740533D01*
X116416666Y-26454819D02*
X116226190Y-26454819D01*
X116226190Y-26454819D02*
X116130952Y-26502438D01*
X116130952Y-26502438D02*
X116083333Y-26550057D01*
X116083333Y-26550057D02*
X115988095Y-26692914D01*
X115988095Y-26692914D02*
X115940476Y-26883390D01*
X115940476Y-26883390D02*
X115940476Y-27264342D01*
X115940476Y-27264342D02*
X115988095Y-27359580D01*
X115988095Y-27359580D02*
X116035714Y-27407200D01*
X116035714Y-27407200D02*
X116130952Y-27454819D01*
X116130952Y-27454819D02*
X116321428Y-27454819D01*
X116321428Y-27454819D02*
X116416666Y-27407200D01*
X116416666Y-27407200D02*
X116464285Y-27359580D01*
X116464285Y-27359580D02*
X116511904Y-27264342D01*
X116511904Y-27264342D02*
X116511904Y-27026247D01*
X116511904Y-27026247D02*
X116464285Y-26931009D01*
X116464285Y-26931009D02*
X116416666Y-26883390D01*
X116416666Y-26883390D02*
X116321428Y-26835771D01*
X116321428Y-26835771D02*
X116130952Y-26835771D01*
X116130952Y-26835771D02*
X116035714Y-26883390D01*
X116035714Y-26883390D02*
X115988095Y-26931009D01*
X115988095Y-26931009D02*
X115940476Y-27026247D01*
X103740433Y-100109580D02*
X103692814Y-100157200D01*
X103692814Y-100157200D02*
X103549957Y-100204819D01*
X103549957Y-100204819D02*
X103454719Y-100204819D01*
X103454719Y-100204819D02*
X103311862Y-100157200D01*
X103311862Y-100157200D02*
X103216624Y-100061961D01*
X103216624Y-100061961D02*
X103169005Y-99966723D01*
X103169005Y-99966723D02*
X103121386Y-99776247D01*
X103121386Y-99776247D02*
X103121386Y-99633390D01*
X103121386Y-99633390D02*
X103169005Y-99442914D01*
X103169005Y-99442914D02*
X103216624Y-99347676D01*
X103216624Y-99347676D02*
X103311862Y-99252438D01*
X103311862Y-99252438D02*
X103454719Y-99204819D01*
X103454719Y-99204819D02*
X103549957Y-99204819D01*
X103549957Y-99204819D02*
X103692814Y-99252438D01*
X103692814Y-99252438D02*
X103740433Y-99300057D01*
X104597576Y-99538152D02*
X104597576Y-100204819D01*
X104359481Y-99157200D02*
X104121386Y-99871485D01*
X104121386Y-99871485D02*
X104740433Y-99871485D01*
X101083333Y-63359580D02*
X101035714Y-63407200D01*
X101035714Y-63407200D02*
X100892857Y-63454819D01*
X100892857Y-63454819D02*
X100797619Y-63454819D01*
X100797619Y-63454819D02*
X100654762Y-63407200D01*
X100654762Y-63407200D02*
X100559524Y-63311961D01*
X100559524Y-63311961D02*
X100511905Y-63216723D01*
X100511905Y-63216723D02*
X100464286Y-63026247D01*
X100464286Y-63026247D02*
X100464286Y-62883390D01*
X100464286Y-62883390D02*
X100511905Y-62692914D01*
X100511905Y-62692914D02*
X100559524Y-62597676D01*
X100559524Y-62597676D02*
X100654762Y-62502438D01*
X100654762Y-62502438D02*
X100797619Y-62454819D01*
X100797619Y-62454819D02*
X100892857Y-62454819D01*
X100892857Y-62454819D02*
X101035714Y-62502438D01*
X101035714Y-62502438D02*
X101083333Y-62550057D01*
X102035714Y-63454819D02*
X101464286Y-63454819D01*
X101750000Y-63454819D02*
X101750000Y-62454819D01*
X101750000Y-62454819D02*
X101654762Y-62597676D01*
X101654762Y-62597676D02*
X101559524Y-62692914D01*
X101559524Y-62692914D02*
X101464286Y-62740533D01*
X57504819Y-46381904D02*
X58314342Y-46381904D01*
X58314342Y-46381904D02*
X58409580Y-46334285D01*
X58409580Y-46334285D02*
X58457200Y-46286666D01*
X58457200Y-46286666D02*
X58504819Y-46191428D01*
X58504819Y-46191428D02*
X58504819Y-46000952D01*
X58504819Y-46000952D02*
X58457200Y-45905714D01*
X58457200Y-45905714D02*
X58409580Y-45858095D01*
X58409580Y-45858095D02*
X58314342Y-45810476D01*
X58314342Y-45810476D02*
X57504819Y-45810476D01*
X57838152Y-44905714D02*
X58504819Y-44905714D01*
X57457200Y-45143809D02*
X58171485Y-45381904D01*
X58171485Y-45381904D02*
X58171485Y-44762857D01*
X73584819Y-28941666D02*
X73108628Y-29274999D01*
X73584819Y-29513094D02*
X72584819Y-29513094D01*
X72584819Y-29513094D02*
X72584819Y-29132142D01*
X72584819Y-29132142D02*
X72632438Y-29036904D01*
X72632438Y-29036904D02*
X72680057Y-28989285D01*
X72680057Y-28989285D02*
X72775295Y-28941666D01*
X72775295Y-28941666D02*
X72918152Y-28941666D01*
X72918152Y-28941666D02*
X73013390Y-28989285D01*
X73013390Y-28989285D02*
X73061009Y-29036904D01*
X73061009Y-29036904D02*
X73108628Y-29132142D01*
X73108628Y-29132142D02*
X73108628Y-29513094D01*
X72584819Y-28036904D02*
X72584819Y-28513094D01*
X72584819Y-28513094D02*
X73061009Y-28560713D01*
X73061009Y-28560713D02*
X73013390Y-28513094D01*
X73013390Y-28513094D02*
X72965771Y-28417856D01*
X72965771Y-28417856D02*
X72965771Y-28179761D01*
X72965771Y-28179761D02*
X73013390Y-28084523D01*
X73013390Y-28084523D02*
X73061009Y-28036904D01*
X73061009Y-28036904D02*
X73156247Y-27989285D01*
X73156247Y-27989285D02*
X73394342Y-27989285D01*
X73394342Y-27989285D02*
X73489580Y-28036904D01*
X73489580Y-28036904D02*
X73537200Y-28084523D01*
X73537200Y-28084523D02*
X73584819Y-28179761D01*
X73584819Y-28179761D02*
X73584819Y-28417856D01*
X73584819Y-28417856D02*
X73537200Y-28513094D01*
X73537200Y-28513094D02*
X73489580Y-28560713D01*
X116324819Y-88391666D02*
X115848628Y-88724999D01*
X116324819Y-88963094D02*
X115324819Y-88963094D01*
X115324819Y-88963094D02*
X115324819Y-88582142D01*
X115324819Y-88582142D02*
X115372438Y-88486904D01*
X115372438Y-88486904D02*
X115420057Y-88439285D01*
X115420057Y-88439285D02*
X115515295Y-88391666D01*
X115515295Y-88391666D02*
X115658152Y-88391666D01*
X115658152Y-88391666D02*
X115753390Y-88439285D01*
X115753390Y-88439285D02*
X115801009Y-88486904D01*
X115801009Y-88486904D02*
X115848628Y-88582142D01*
X115848628Y-88582142D02*
X115848628Y-88963094D01*
X115324819Y-87534523D02*
X115324819Y-87724999D01*
X115324819Y-87724999D02*
X115372438Y-87820237D01*
X115372438Y-87820237D02*
X115420057Y-87867856D01*
X115420057Y-87867856D02*
X115562914Y-87963094D01*
X115562914Y-87963094D02*
X115753390Y-88010713D01*
X115753390Y-88010713D02*
X116134342Y-88010713D01*
X116134342Y-88010713D02*
X116229580Y-87963094D01*
X116229580Y-87963094D02*
X116277200Y-87915475D01*
X116277200Y-87915475D02*
X116324819Y-87820237D01*
X116324819Y-87820237D02*
X116324819Y-87629761D01*
X116324819Y-87629761D02*
X116277200Y-87534523D01*
X116277200Y-87534523D02*
X116229580Y-87486904D01*
X116229580Y-87486904D02*
X116134342Y-87439285D01*
X116134342Y-87439285D02*
X115896247Y-87439285D01*
X115896247Y-87439285D02*
X115801009Y-87486904D01*
X115801009Y-87486904D02*
X115753390Y-87534523D01*
X115753390Y-87534523D02*
X115705771Y-87629761D01*
X115705771Y-87629761D02*
X115705771Y-87820237D01*
X115705771Y-87820237D02*
X115753390Y-87915475D01*
X115753390Y-87915475D02*
X115801009Y-87963094D01*
X115801009Y-87963094D02*
X115896247Y-88010713D01*
D12*
%TO.C,C11*%
X41380000Y-18445000D02*
X41380000Y-18130000D01*
X41380000Y-20870000D02*
X41380000Y-20555000D01*
X46620000Y-18130000D02*
X41380000Y-18130000D01*
X46620000Y-18445000D02*
X46620000Y-18130000D01*
X46620000Y-20870000D02*
X41380000Y-20870000D01*
X46620000Y-20870000D02*
X46620000Y-20555000D01*
%TO.C,U6*%
X33270000Y-69410000D02*
X33270000Y-87430000D01*
X33270000Y-87430000D02*
X43550000Y-87430000D01*
X35760000Y-69470000D02*
X35760000Y-87370000D01*
X35760000Y-87370000D02*
X41060000Y-87370000D01*
X37410000Y-69470000D02*
X35760000Y-69470000D01*
X41060000Y-69470000D02*
X39410000Y-69470000D01*
X41060000Y-87370000D02*
X41060000Y-69470000D01*
X43550000Y-69410000D02*
X33270000Y-69410000D01*
X43550000Y-87430000D02*
X43550000Y-69410000D01*
X39410000Y-69470000D02*
G75*
G02*
X37410000Y-69470000I-1000000J0D01*
G01*
D13*
%TO.C,C14*%
X33072900Y-139500000D02*
X34264160Y-139500000D01*
X33707900Y-138865000D02*
X33707900Y-140135000D01*
X34675900Y-137785500D02*
X34675900Y-141214500D01*
X34675900Y-141214500D02*
X40009900Y-141214500D01*
X40009900Y-137785500D02*
X34675900Y-137785500D01*
X40009900Y-141214500D02*
X40009900Y-137785500D01*
%TO.C,SW1*%
X111872997Y-21329755D02*
X111872997Y-23670244D01*
X112391770Y-25627001D02*
X117608228Y-25627001D01*
X117608228Y-19372998D02*
X112391770Y-19372998D01*
X118127001Y-23670244D02*
X118127001Y-21329755D01*
D14*
X111876998Y-17709999D02*
G75*
G02*
X111622998Y-17709999I-127000J0D01*
G01*
X111622998Y-17709999D02*
G75*
G02*
X111876998Y-17709999I127000J0D01*
G01*
D12*
%TO.C,R3*%
X55000000Y-23445000D02*
X55000000Y-20835000D01*
X56370000Y-24815000D02*
G75*
G02*
X53630000Y-24815000I-1370000J0D01*
G01*
X53630000Y-24815000D02*
G75*
G02*
X56370000Y-24815000I1370000J0D01*
G01*
%TO.C,X1*%
X121635000Y-67475000D02*
X115385000Y-67475000D01*
X121635000Y-72525000D02*
X115385000Y-72525000D01*
X115385000Y-72525000D02*
G75*
G02*
X115385000Y-67475000I0J2525000D01*
G01*
X121635000Y-67475000D02*
G75*
G02*
X121635000Y-72525000I0J-2525000D01*
G01*
D13*
%TO.C,C6*%
X40035500Y-61063000D02*
X40035500Y-66397000D01*
X40035500Y-66397000D02*
X43464500Y-66397000D01*
X41115000Y-67365000D02*
X42385000Y-67365000D01*
X41750000Y-68000000D02*
X41750000Y-66808740D01*
X43464500Y-61063000D02*
X40035500Y-61063000D01*
X43464500Y-66397000D02*
X43464500Y-61063000D01*
D12*
%TO.C,R9*%
X107250000Y-27195000D02*
X107250000Y-24585000D01*
X108620000Y-28565000D02*
G75*
G02*
X105880000Y-28565000I-1370000J0D01*
G01*
X105880000Y-28565000D02*
G75*
G02*
X108620000Y-28565000I1370000J0D01*
G01*
D13*
%TO.C,C8*%
X119103000Y-60035000D02*
X119103000Y-58765000D01*
X121897000Y-60035000D02*
X121897000Y-58765000D01*
X119103000Y-58765000D02*
G75*
G02*
X119564290Y-57727669I1397000J0D01*
G01*
X119481460Y-60991130D02*
G75*
G02*
X119103000Y-60035000I1018534J956128D01*
G01*
X121435710Y-57727669D02*
G75*
G02*
X121897000Y-58765000I-935710J-1037331D01*
G01*
X121897000Y-60035000D02*
G75*
G02*
X121518539Y-60991131I-1397006J3D01*
G01*
D12*
%TO.C,X2*%
X69635000Y-17475000D02*
X63385000Y-17475000D01*
X69635000Y-22525000D02*
X63385000Y-22525000D01*
X63385000Y-22525000D02*
G75*
G02*
X63385000Y-17475000I0J2525000D01*
G01*
X69635000Y-17475000D02*
G75*
G02*
X69635000Y-22525000I0J-2525000D01*
G01*
%TO.C,U3*%
X60680000Y-102730000D02*
X60680000Y-143490000D01*
X60680000Y-143490000D02*
X73600000Y-143490000D01*
X66140000Y-102730000D02*
X60680000Y-102730000D01*
X73600000Y-102730000D02*
X68140000Y-102730000D01*
X73600000Y-143490000D02*
X73600000Y-102730000D01*
X68140000Y-102730000D02*
G75*
G02*
X66140000Y-102730000I-1000000J0D01*
G01*
%TO.C,J2*%
X78130000Y-18670000D02*
X78130000Y-21330000D01*
X90890000Y-18670000D02*
X78130000Y-18670000D01*
X90890000Y-18670000D02*
X90890000Y-21330000D01*
X90890000Y-21330000D02*
X78130000Y-21330000D01*
X92160000Y-18670000D02*
X93490000Y-18670000D01*
X93490000Y-18670000D02*
X93490000Y-20000000D01*
%TO.C,U2*%
X88930000Y-107710000D02*
X88930000Y-143510000D01*
X88930000Y-143510000D02*
X106830000Y-143510000D01*
X91420000Y-107770000D02*
X91420000Y-143450000D01*
X91420000Y-143450000D02*
X104340000Y-143450000D01*
X96880000Y-107770000D02*
X91420000Y-107770000D01*
X104340000Y-107770000D02*
X98880000Y-107770000D01*
X104340000Y-143450000D02*
X104340000Y-107770000D01*
X106830000Y-107710000D02*
X88930000Y-107710000D01*
X106830000Y-143510000D02*
X106830000Y-107710000D01*
X98880000Y-107770000D02*
G75*
G02*
X96880000Y-107770000I-1000000J0D01*
G01*
D13*
%TO.C,C3*%
X64490100Y-146035500D02*
X64490100Y-149464500D01*
X64490100Y-149464500D02*
X69824100Y-149464500D01*
X69824100Y-146035500D02*
X64490100Y-146035500D01*
X69824100Y-149464500D02*
X69824100Y-146035500D01*
X70792100Y-148385000D02*
X70792100Y-147115000D01*
X71427100Y-147750000D02*
X70235840Y-147750000D01*
D12*
%TO.C,U5*%
X33670000Y-36320000D02*
X33670000Y-54340000D01*
X33670000Y-54340000D02*
X43950000Y-54340000D01*
X36160000Y-36380000D02*
X36160000Y-54280000D01*
X36160000Y-54280000D02*
X41460000Y-54280000D01*
X37810000Y-36380000D02*
X36160000Y-36380000D01*
X41460000Y-36380000D02*
X39810000Y-36380000D01*
X41460000Y-54280000D02*
X41460000Y-36380000D01*
X43950000Y-36320000D02*
X33670000Y-36320000D01*
X43950000Y-54340000D02*
X43950000Y-36320000D01*
X39810000Y-36380000D02*
G75*
G02*
X37810000Y-36380000I-1000000J0D01*
G01*
D13*
%TO.C,C15*%
X33460000Y-134000000D02*
X34651260Y-134000000D01*
X34095000Y-133365000D02*
X34095000Y-134635000D01*
X35198000Y-132603000D02*
X35198000Y-132990303D01*
X35198000Y-135009697D02*
X35198000Y-135397000D01*
X35198000Y-135397000D02*
X39262000Y-135397000D01*
X39262000Y-132603000D02*
X35198000Y-132603000D01*
X39262000Y-133324145D02*
X39262000Y-132603000D01*
X39262000Y-135397000D02*
X39262000Y-134675855D01*
D12*
%TO.C,U1*%
X58910000Y-69430000D02*
X58910000Y-87330000D01*
X58910000Y-87330000D02*
X109950000Y-87330000D01*
X58970000Y-71920000D02*
X58970000Y-84840000D01*
X58970000Y-84840000D02*
X109890000Y-84840000D01*
X109890000Y-71920000D02*
X58970000Y-71920000D01*
X109890000Y-77380000D02*
X109890000Y-71920000D01*
X109890000Y-84840000D02*
X109890000Y-79380000D01*
X109950000Y-69430000D02*
X58910000Y-69430000D01*
X109950000Y-87330000D02*
X109950000Y-69430000D01*
X109890000Y-79380000D02*
G75*
G02*
X109890000Y-77380000I0J1000000D01*
G01*
%TO.C,R2*%
X64000000Y-28555000D02*
X64000000Y-31165000D01*
X65370000Y-27185000D02*
G75*
G02*
X62630000Y-27185000I-1370000J0D01*
G01*
X62630000Y-27185000D02*
G75*
G02*
X65370000Y-27185000I1370000J0D01*
G01*
%TO.C,R4*%
X109000000Y-62695000D02*
X109000000Y-60085000D01*
X110370000Y-64065000D02*
G75*
G02*
X107630000Y-64065000I-1370000J0D01*
G01*
X107630000Y-64065000D02*
G75*
G02*
X110370000Y-64065000I1370000J0D01*
G01*
D13*
%TO.C,C7*%
X40535500Y-28845000D02*
X40535500Y-34179000D01*
X40535500Y-34179000D02*
X43964500Y-34179000D01*
X41615000Y-35147000D02*
X42885000Y-35147000D01*
X42250000Y-35782000D02*
X42250000Y-34590740D01*
X43964500Y-28845000D02*
X40535500Y-28845000D01*
X43964500Y-34179000D02*
X43964500Y-28845000D01*
%TO.C,C2*%
X112785500Y-47063000D02*
X112785500Y-52397000D01*
X112785500Y-52397000D02*
X116214500Y-52397000D01*
X113865000Y-53365000D02*
X115135000Y-53365000D01*
X114500000Y-54000000D02*
X114500000Y-52808740D01*
X116214500Y-47063000D02*
X112785500Y-47063000D01*
X116214500Y-52397000D02*
X116214500Y-47063000D01*
D12*
%TO.C,R8*%
X60000000Y-96305000D02*
X60000000Y-98915000D01*
X61370000Y-94935000D02*
G75*
G02*
X58630000Y-94935000I-1370000J0D01*
G01*
X58630000Y-94935000D02*
G75*
G02*
X61370000Y-94935000I1370000J0D01*
G01*
%TO.C,R7*%
X53750000Y-39305000D02*
X53750000Y-41915000D01*
X55120000Y-37935000D02*
G75*
G02*
X52380000Y-37935000I-1370000J0D01*
G01*
X52380000Y-37935000D02*
G75*
G02*
X55120000Y-37935000I1370000J0D01*
G01*
D13*
%TO.C,C9*%
X115103000Y-60035000D02*
X115103000Y-58765000D01*
X117897000Y-60035000D02*
X117897000Y-58765000D01*
X115103000Y-58765000D02*
G75*
G02*
X115564290Y-57727669I1397000J0D01*
G01*
X115481460Y-60991130D02*
G75*
G02*
X115103000Y-60035000I1018534J956128D01*
G01*
X117435710Y-57727669D02*
G75*
G02*
X117897000Y-58765000I-935710J-1037331D01*
G01*
X117897000Y-60035000D02*
G75*
G02*
X117518539Y-60991131I-1397006J3D01*
G01*
%TO.C,C13*%
X31929900Y-146000000D02*
X33121160Y-146000000D01*
X32564900Y-145365000D02*
X32564900Y-146635000D01*
X33786900Y-143841000D02*
X33786900Y-148159000D01*
X33786900Y-148159000D02*
X41152900Y-148159000D01*
X41152900Y-143841000D02*
X33786900Y-143841000D01*
X41152900Y-148159000D02*
X41152900Y-143841000D01*
%TO.C,C5*%
X39785500Y-94490100D02*
X39785500Y-99824100D01*
X39785500Y-99824100D02*
X43214500Y-99824100D01*
X40865000Y-100792100D02*
X42135000Y-100792100D01*
X41500000Y-101427100D02*
X41500000Y-100235840D01*
X43214500Y-94490100D02*
X39785500Y-94490100D01*
X43214500Y-99824100D02*
X43214500Y-94490100D01*
%TO.C,C12*%
X44635000Y-23603000D02*
X43365000Y-23603000D01*
X44635000Y-26397000D02*
X43365000Y-26397000D01*
X42327669Y-24064290D02*
G75*
G02*
X43365000Y-23603000I1037331J-935710D01*
G01*
X43365000Y-26397000D02*
G75*
G02*
X42327669Y-25935710I0J1397000D01*
G01*
X44635000Y-23603000D02*
G75*
G02*
X45591131Y-23981461I-3J-1397006D01*
G01*
X45591130Y-26018540D02*
G75*
G02*
X44635000Y-26397000I-956128J1018534D01*
G01*
D12*
%TO.C,J1*%
X34670000Y-129830000D02*
X34670000Y-128500000D01*
X36000000Y-129830000D02*
X34670000Y-129830000D01*
X37270000Y-127170000D02*
X39870000Y-127170000D01*
X37270000Y-129830000D02*
X37270000Y-127170000D01*
X37270000Y-129830000D02*
X39870000Y-129830000D01*
X39870000Y-129830000D02*
X39870000Y-127170000D01*
%TO.C,U7*%
X32870000Y-101735000D02*
X32870000Y-119755000D01*
X32870000Y-119755000D02*
X43150000Y-119755000D01*
X35360000Y-101795000D02*
X35360000Y-119695000D01*
X35360000Y-119695000D02*
X40660000Y-119695000D01*
X37010000Y-101795000D02*
X35360000Y-101795000D01*
X40660000Y-101795000D02*
X39010000Y-101795000D01*
X40660000Y-119695000D02*
X40660000Y-101795000D01*
X43150000Y-101735000D02*
X32870000Y-101735000D01*
X43150000Y-119755000D02*
X43150000Y-101735000D01*
X39010000Y-101795000D02*
G75*
G02*
X37010000Y-101795000I-1000000J0D01*
G01*
D13*
%TO.C,C16*%
X112563000Y-28285500D02*
X112563000Y-31714500D01*
X112563000Y-31714500D02*
X117897000Y-31714500D01*
X117897000Y-28285500D02*
X112563000Y-28285500D01*
X117897000Y-31714500D02*
X117897000Y-28285500D01*
X118865000Y-30635000D02*
X118865000Y-29365000D01*
X119500000Y-30000000D02*
X118308740Y-30000000D01*
%TO.C,C4*%
X101240100Y-100785500D02*
X101240100Y-104214500D01*
X101240100Y-104214500D02*
X106574100Y-104214500D01*
X106574100Y-100785500D02*
X101240100Y-100785500D01*
X106574100Y-104214500D02*
X106574100Y-100785500D01*
X107542100Y-103135000D02*
X107542100Y-101865000D01*
X108177100Y-102500000D02*
X106985840Y-102500000D01*
%TO.C,C1*%
X96900000Y-66000000D02*
X98091260Y-66000000D01*
X97535000Y-65365000D02*
X97535000Y-66635000D01*
X98503000Y-64285500D02*
X98503000Y-67714500D01*
X98503000Y-67714500D02*
X103837000Y-67714500D01*
X103837000Y-64285500D02*
X98503000Y-64285500D01*
X103837000Y-67714500D02*
X103837000Y-64285500D01*
D12*
%TO.C,U4*%
X58970000Y-36670000D02*
X58970000Y-54570000D01*
X58970000Y-54570000D02*
X110010000Y-54570000D01*
X59030000Y-39160000D02*
X59030000Y-52080000D01*
X59030000Y-52080000D02*
X109950000Y-52080000D01*
X109950000Y-39160000D02*
X59030000Y-39160000D01*
X109950000Y-44620000D02*
X109950000Y-39160000D01*
X109950000Y-52080000D02*
X109950000Y-46620000D01*
X110010000Y-36670000D02*
X58970000Y-36670000D01*
X110010000Y-54570000D02*
X110010000Y-36670000D01*
X109950000Y-46620000D02*
G75*
G02*
X109950000Y-44620000I0J1000000D01*
G01*
%TO.C,R5*%
X75500000Y-29945000D02*
X75500000Y-27335000D01*
X76870000Y-31315000D02*
G75*
G02*
X74130000Y-31315000I-1370000J0D01*
G01*
X74130000Y-31315000D02*
G75*
G02*
X76870000Y-31315000I1370000J0D01*
G01*
%TO.C,R6*%
X113500000Y-87055000D02*
X113500000Y-89665000D01*
X114870000Y-85685000D02*
G75*
G02*
X112130000Y-85685000I-1370000J0D01*
G01*
X112130000Y-85685000D02*
G75*
G02*
X114870000Y-85685000I1370000J0D01*
G01*
%TD*%
M02*
